<svg xmlns="http://www.w3.org/2000/svg" xmlns:xlink="http://www.w3.org/1999/xlink" contentStyleType="text/css" data-diagram-type="DESCRIPTION" height="603px" preserveAspectRatio="none" style="width:1420px;height:603px;background:#FFFFFF;" version="1.1" viewBox="0 0 1420 603" width="1420px" zoomAndPan="magnify"><title>ServiceLib Architecture Overview</title><defs/><g><g class="title" data-source-line="12"><text fill="#000000" font-family="sans-serif" font-size="14" font-weight="bold" lengthAdjust="spacing" textLength="238.4512" x="583.8344" y="23.5352">ServiceLib Architecture Overview</text></g><!--cluster Domain Layer--><g class="cluster" data-entity="Domain Layer" data-source-line="15" data-uid="ent0002" id="cluster_Domain Layer"><rect fill="#FEFECE" height="203.98" rx="2.5" ry="2.5" style="stroke:#000000;stroke-width:1;" width="402" x="713" y="393.9483"/><text fill="#000000" font-family="sans-serif" font-size="14" font-weight="bold" lengthAdjust="spacing" textLength="99.3125" x="864.3438" y="409.4834">Domain Layer</text></g><!--cluster Application Layer--><g class="cluster" data-entity="Application Layer" data-source-line="22" data-uid="ent0007" id="cluster_Application Layer"><rect fill="#FEFECE" height="97.48" rx="2.5" ry="2.5" style="stroke:#000000;stroke-width:1;" width="494" x="852" y="272.4683"/><text fill="#000000" font-family="sans-serif" font-size="14" font-weight="bold" lengthAdjust="spacing" textLength="125.7266" x="1036.1367" y="288.0034">Application Layer</text></g><!--cluster Infrastructure Layer--><g class="cluster" data-entity="Infrastructure Layer" data-source-line="28" data-uid="ent0011" id="cluster_Infrastructure Layer"><rect fill="#FEFECE" height="203.97" rx="2.5" ry="2.5" style="stroke:#000000;stroke-width:1;" width="345" x="7" y="165.9783"/><text fill="#000000" font-family="sans-serif" font-size="14" font-weight="bold" lengthAdjust="spacing" textLength="143.9854" x="107.5073" y="181.5134">Infrastructure Layer</text></g><!--cluster Interface Layer--><g class="cluster" data-entity="Interface Layer" data-source-line="35" data-uid="ent0016" id="cluster_Interface Layer"><rect fill="#FEFECE" height="203.97" rx="2.5" ry="2.5" style="stroke:#000000;stroke-width:1;" width="435" x="393" y="165.9783"/><text fill="#000000" font-family="sans-serif" font-size="14" font-weight="bold" lengthAdjust="spacing" textLength="107.4814" x="556.7593" y="181.5134">Interface Layer</text></g><!--cluster Cross-Cutting Concerns--><g class="cluster" data-entity="Cross-Cutting Concerns" data-source-line="42" data-uid="ent0021" id="cluster_Cross-Cutting Concerns"><rect fill="#FEFECE" height="97.49" rx="2.5" ry="2.5" style="stroke:#000000;stroke-width:1;" width="1008" x="298" y="44.4883"/><text fill="#000000" font-family="sans-serif" font-size="14" font-weight="bold" lengthAdjust="spacing" textLength="175.4033" x="714.2983" y="60.0234">Cross-Cutting Concerns</text></g><!--entity model--><g class="entity" data-entity="model" data-source-line="16" data-uid="ent0003" id="entity_model"><rect fill="#FEFECE" height="46.4883" rx="2.5" ry="2.5" style="stroke:#000000;stroke-width:0.5;" width="138.3691" x="786.82" y="535.4383"/><rect fill="#FEFECE" height="10" style="stroke:#000000;stroke-width:0.5;" width="15" x="905.1891" y="540.4383"/><rect fill="#FEFECE" height="2" style="stroke:#000000;stroke-width:0.5;" width="4" x="903.1891" y="542.4383"/><rect fill="#FEFECE" height="2" style="stroke:#000000;stroke-width:0.5;" width="4" x="903.1891" y="546.4383"/><text fill="#000000" font-family="sans-serif" font-size="14" lengthAdjust="spacing" textLength="98.3691" x="801.82" y="568.9734">Domain Model</text></g><!--entity valueobject--><g class="entity" data-entity="valueobject" data-source-line="17" data-uid="ent0004" id="entity_valueobject"><rect fill="#FEFECE" height="46.4883" rx="2.5" ry="2.5" style="stroke:#000000;stroke-width:0.5;" width="133.1396" x="960.43" y="535.4383"/><rect fill="#FEFECE" height="10" style="stroke:#000000;stroke-width:0.5;" width="15" x="1073.5696" y="540.4383"/><rect fill="#FEFECE" height="2" style="stroke:#000000;stroke-width:0.5;" width="4" x="1071.5696" y="542.4383"/><rect fill="#FEFECE" height="2" style="stroke:#000000;stroke-width:0.5;" width="4" x="1071.5696" y="546.4383"/><text fill="#000000" font-family="sans-serif" font-size="14" lengthAdjust="spacing" textLength="93.1396" x="975.43" y="568.9734">Value Objects</text></g><!--entity domainServices--><g class="entity" data-entity="domainServices" data-source-line="18" data-uid="ent0005" id="entity_domainServices"><rect fill="#FEFECE" height="46.4883" rx="2.5" ry="2.5" style="stroke:#000000;stroke-width:0.5;" width="151.5215" x="947.24" y="428.9483"/><rect fill="#FEFECE" height="10" style="stroke:#000000;stroke-width:0.5;" width="15" x="1078.7615" y="433.9483"/><rect fill="#FEFECE" height="2" style="stroke:#000000;stroke-width:0.5;" width="4" x="1076.7615" y="435.9483"/><rect fill="#FEFECE" height="2" style="stroke:#000000;stroke-width:0.5;" width="4" x="1076.7615" y="439.9483"/><text fill="#000000" font-family="sans-serif" font-size="14" lengthAdjust="spacing" textLength="111.5215" x="962.24" y="462.4834">Domain Services</text></g><!--entity repoInterfaces--><g class="entity" data-entity="repoInterfaces" data-source-line="19" data-uid="ent0006" id="entity_repoInterfaces"><rect fill="#FEFECE" height="46.4883" rx="2.5" ry="2.5" style="stroke:#000000;stroke-width:0.5;" width="183.0283" x="729.49" y="428.9483"/><rect fill="#FEFECE" height="10" style="stroke:#000000;stroke-width:0.5;" width="15" x="892.5183" y="433.9483"/><rect fill="#FEFECE" height="2" style="stroke:#000000;stroke-width:0.5;" width="4" x="890.5183" y="435.9483"/><rect fill="#FEFECE" height="2" style="stroke:#000000;stroke-width:0.5;" width="4" x="890.5183" y="439.9483"/><text fill="#000000" font-family="sans-serif" font-size="14" lengthAdjust="spacing" textLength="143.0283" x="744.49" y="462.4834">Repository Interfaces</text></g><!--entity useCases--><g class="entity" data-entity="useCases" data-source-line="23" data-uid="ent0008" id="entity_useCases"><rect fill="#FEFECE" height="46.4883" rx="2.5" ry="2.5" style="stroke:#000000;stroke-width:0.5;" width="108.5576" x="867.72" y="307.4683"/><rect fill="#FEFECE" height="10" style="stroke:#000000;stroke-width:0.5;" width="15" x="956.2776" y="312.4683"/><rect fill="#FEFECE" height="2" style="stroke:#000000;stroke-width:0.5;" width="4" x="954.2776" y="314.4683"/><rect fill="#FEFECE" height="2" style="stroke:#000000;stroke-width:0.5;" width="4" x="954.2776" y="318.4683"/><text fill="#000000" font-family="sans-serif" font-size="14" lengthAdjust="spacing" textLength="68.5576" x="882.72" y="341.0034">Use Cases</text></g><!--entity appServices--><g class="entity" data-entity="appServices" data-source-line="24" data-uid="ent0009" id="entity_appServices"><rect fill="#FEFECE" height="46.4883" rx="2.5" ry="2.5" style="stroke:#000000;stroke-width:0.5;" width="175.748" x="1011.13" y="307.4683"/><rect fill="#FEFECE" height="10" style="stroke:#000000;stroke-width:0.5;" width="15" x="1166.878" y="312.4683"/><rect fill="#FEFECE" height="2" style="stroke:#000000;stroke-width:0.5;" width="4" x="1164.878" y="314.4683"/><rect fill="#FEFECE" height="2" style="stroke:#000000;stroke-width:0.5;" width="4" x="1164.878" y="318.4683"/><text fill="#000000" font-family="sans-serif" font-size="14" lengthAdjust="spacing" textLength="135.748" x="1026.13" y="341.0034">Application Services</text></g><!--entity validation--><g class="entity" data-entity="validation" data-source-line="25" data-uid="ent0010" id="entity_validation"><rect fill="#FEFECE" height="46.4883" rx="2.5" ry="2.5" style="stroke:#000000;stroke-width:0.5;" width="108.0928" x="1221.95" y="307.4683"/><rect fill="#FEFECE" height="10" style="stroke:#000000;stroke-width:0.5;" width="15" x="1310.0428" y="312.4683"/><rect fill="#FEFECE" height="2" style="stroke:#000000;stroke-width:0.5;" width="4" x="1308.0428" y="314.4683"/><rect fill="#FEFECE" height="2" style="stroke:#000000;stroke-width:0.5;" width="4" x="1308.0428" y="318.4683"/><text fill="#000000" font-family="sans-serif" font-size="14" lengthAdjust="spacing" textLength="68.0928" x="1236.95" y="341.0034">Validation</text></g><!--entity repositories--><g class="entity" data-entity="repositories" data-source-line="29" data-uid="ent0012" id="entity_repositories"><rect fill="#FEFECE" height="46.4883" rx="2.5" ry="2.5" style="stroke:#000000;stroke-width:0.5;" width="123.7949" x="23.1" y="200.9783"/><rect fill="#FEFECE" height="10" style="stroke:#000000;stroke-width:0.5;" width="15" x="126.8949" y="205.9783"/><rect fill="#FEFECE" height="2" style="stroke:#000000;stroke-width:0.5;" width="4" x="124.8949" y="207.9783"/><rect fill="#FEFECE" height="2" style="stroke:#000000;stroke-width:0.5;" width="4" x="124.8949" y="211.9783"/><text fill="#000000" font-family="sans-serif" font-size="14" lengthAdjust="spacing" textLength="83.7949" x="38.1" y="234.5134">Repositories</text></g><!--entity db--><g class="entity" data-entity="db" data-source-line="30" data-uid="ent0013" id="entity_db"><rect fill="#FEFECE" height="46.4883" rx="2.5" ry="2.5" style="stroke:#000000;stroke-width:0.5;" width="153.1689" x="23.42" y="307.4683"/><rect fill="#FEFECE" height="10" style="stroke:#000000;stroke-width:0.5;" width="15" x="156.5889" y="312.4683"/><rect fill="#FEFECE" height="2" style="stroke:#000000;stroke-width:0.5;" width="4" x="154.5889" y="314.4683"/><rect fill="#FEFECE" height="2" style="stroke:#000000;stroke-width:0.5;" width="4" x="154.5889" y="318.4683"/><text fill="#000000" font-family="sans-serif" font-size="14" lengthAdjust="spacing" textLength="113.1689" x="38.42" y="341.0034">Database Access</text></g><!--entity cache--><g class="entity" data-entity="cache" data-source-line="31" data-uid="ent0014" id="entity_cache"><rect fill="#FEFECE" height="46.4883" rx="2.5" ry="2.5" style="stroke:#000000;stroke-width:0.5;" width="94.7422" x="211.63" y="307.4683"/><rect fill="#FEFECE" height="10" style="stroke:#000000;stroke-width:0.5;" width="15" x="286.3722" y="312.4683"/><rect fill="#FEFECE" height="2" style="stroke:#000000;stroke-width:0.5;" width="4" x="284.3722" y="314.4683"/><rect fill="#FEFECE" height="2" style="stroke:#000000;stroke-width:0.5;" width="4" x="284.3722" y="318.4683"/><text fill="#000000" font-family="sans-serif" font-size="14" lengthAdjust="spacing" textLength="54.7422" x="226.63" y="341.0034">Caching</text></g><!--entity externalServices--><g class="entity" data-entity="externalServices" data-source-line="32" data-uid="ent0015" id="entity_externalServices"><rect fill="#FEFECE" height="46.4883" rx="2.5" ry="2.5" style="stroke:#000000;stroke-width:0.5;" width="154.3037" x="181.85" y="200.9783"/><rect fill="#FEFECE" height="10" style="stroke:#000000;stroke-width:0.5;" width="15" x="316.1537" y="205.9783"/><rect fill="#FEFECE" height="2" style="stroke:#000000;stroke-width:0.5;" width="4" x="314.1537" y="207.9783"/><rect fill="#FEFECE" height="2" style="stroke:#000000;stroke-width:0.5;" width="4" x="314.1537" y="211.9783"/><text fill="#000000" font-family="sans-serif" font-size="14" lengthAdjust="spacing" textLength="114.3037" x="196.85" y="234.5134">External Services</text></g><!--entity controllers--><g class="entity" data-entity="controllers" data-source-line="36" data-uid="ent0017" id="entity_controllers"><rect fill="#FEFECE" height="46.4883" rx="2.5" ry="2.5" style="stroke:#000000;stroke-width:0.5;" width="115.2979" x="696.35" y="200.9783"/><rect fill="#FEFECE" height="10" style="stroke:#000000;stroke-width:0.5;" width="15" x="791.6479" y="205.9783"/><rect fill="#FEFECE" height="2" style="stroke:#000000;stroke-width:0.5;" width="4" x="789.6479" y="207.9783"/><rect fill="#FEFECE" height="2" style="stroke:#000000;stroke-width:0.5;" width="4" x="789.6479" y="211.9783"/><text fill="#000000" font-family="sans-serif" font-size="14" lengthAdjust="spacing" textLength="75.2979" x="711.35" y="234.5134">Controllers</text></g><!--entity middleware--><g class="entity" data-entity="middleware" data-source-line="37" data-uid="ent0018" id="entity_middleware"><rect fill="#FEFECE" height="46.4883" rx="2.5" ry="2.5" style="stroke:#000000;stroke-width:0.5;" width="117.6221" x="409.19" y="200.9783"/><rect fill="#FEFECE" height="10" style="stroke:#000000;stroke-width:0.5;" width="15" x="506.8121" y="205.9783"/><rect fill="#FEFECE" height="2" style="stroke:#000000;stroke-width:0.5;" width="4" x="504.8121" y="207.9783"/><rect fill="#FEFECE" height="2" style="stroke:#000000;stroke-width:0.5;" width="4" x="504.8121" y="211.9783"/><text fill="#000000" font-family="sans-serif" font-size="14" lengthAdjust="spacing" textLength="77.6221" x="424.19" y="234.5134">Middleware</text></g><!--entity graphql--><g class="entity" data-entity="graphql" data-source-line="38" data-uid="ent0019" id="entity_graphql"><rect fill="#FEFECE" height="46.4883" rx="2.5" ry="2.5" style="stroke:#000000;stroke-width:0.5;" width="99.418" x="562.29" y="200.9783"/><rect fill="#FEFECE" height="10" style="stroke:#000000;stroke-width:0.5;" width="15" x="641.708" y="205.9783"/><rect fill="#FEFECE" height="2" style="stroke:#000000;stroke-width:0.5;" width="4" x="639.708" y="207.9783"/><rect fill="#FEFECE" height="2" style="stroke:#000000;stroke-width:0.5;" width="4" x="639.708" y="211.9783"/><text fill="#000000" font-family="sans-serif" font-size="14" lengthAdjust="spacing" textLength="59.418" x="577.29" y="234.5134">GraphQL</text></g><!--entity health--><g class="entity" data-entity="health" data-source-line="39" data-uid="ent0020" id="entity_health"><rect fill="#FEFECE" height="46.4883" rx="2.5" ry="2.5" style="stroke:#000000;stroke-width:0.5;" width="136.8857" x="411.56" y="307.4683"/><rect fill="#FEFECE" height="10" style="stroke:#000000;stroke-width:0.5;" width="15" x="528.4457" y="312.4683"/><rect fill="#FEFECE" height="2" style="stroke:#000000;stroke-width:0.5;" width="4" x="526.4457" y="314.4683"/><rect fill="#FEFECE" height="2" style="stroke:#000000;stroke-width:0.5;" width="4" x="526.4457" y="318.4683"/><text fill="#000000" font-family="sans-serif" font-size="14" lengthAdjust="spacing" textLength="96.8857" x="426.56" y="341.0034">Health Checks</text></g><!--entity logging--><g class="entity" data-entity="logging" data-source-line="43" data-uid="ent0022" id="entity_logging"><rect fill="#FEFECE" height="46.4883" rx="2.5" ry="2.5" style="stroke:#000000;stroke-width:0.5;" width="94.9883" x="313.51" y="79.4883"/><rect fill="#FEFECE" height="10" style="stroke:#000000;stroke-width:0.5;" width="15" x="388.4983" y="84.4883"/><rect fill="#FEFECE" height="2" style="stroke:#000000;stroke-width:0.5;" width="4" x="386.4983" y="86.4883"/><rect fill="#FEFECE" height="2" style="stroke:#000000;stroke-width:0.5;" width="4" x="386.4983" y="90.4883"/><text fill="#000000" font-family="sans-serif" font-size="14" lengthAdjust="spacing" textLength="54.9883" x="328.51" y="113.0234">Logging</text></g><!--entity errors--><g class="entity" data-entity="errors" data-source-line="44" data-uid="ent0023" id="entity_errors"><rect fill="#FEFECE" height="46.4883" rx="2.5" ry="2.5" style="stroke:#000000;stroke-width:0.5;" width="138.834" x="443.58" y="79.4883"/><rect fill="#FEFECE" height="10" style="stroke:#000000;stroke-width:0.5;" width="15" x="562.414" y="84.4883"/><rect fill="#FEFECE" height="2" style="stroke:#000000;stroke-width:0.5;" width="4" x="560.414" y="86.4883"/><rect fill="#FEFECE" height="2" style="stroke:#000000;stroke-width:0.5;" width="4" x="560.414" y="90.4883"/><text fill="#000000" font-family="sans-serif" font-size="14" lengthAdjust="spacing" textLength="98.834" x="458.58" y="113.0234">Error Handling</text></g><!--entity telemetry--><g class="entity" data-entity="telemetry" data-source-line="45" data-uid="ent0024" id="entity_telemetry"><rect fill="#FEFECE" height="46.4883" rx="2.5" ry="2.5" style="stroke:#000000;stroke-width:0.5;" width="107.6484" x="617.18" y="79.4883"/><rect fill="#FEFECE" height="10" style="stroke:#000000;stroke-width:0.5;" width="15" x="704.8284" y="84.4883"/><rect fill="#FEFECE" height="2" style="stroke:#000000;stroke-width:0.5;" width="4" x="702.8284" y="86.4883"/><rect fill="#FEFECE" height="2" style="stroke:#000000;stroke-width:0.5;" width="4" x="702.8284" y="90.4883"/><text fill="#000000" font-family="sans-serif" font-size="14" lengthAdjust="spacing" textLength="67.6484" x="632.18" y="113.0234">Telemetry</text></g><!--entity config--><g class="entity" data-entity="config" data-source-line="46" data-uid="ent0025" id="entity_config"><rect fill="#FEFECE" height="46.4883" rx="2.5" ry="2.5" style="stroke:#000000;stroke-width:0.5;" width="133.6182" x="760.19" y="79.4883"/><rect fill="#FEFECE" height="10" style="stroke:#000000;stroke-width:0.5;" width="15" x="873.8082" y="84.4883"/><rect fill="#FEFECE" height="2" style="stroke:#000000;stroke-width:0.5;" width="4" x="871.8082" y="86.4883"/><rect fill="#FEFECE" height="2" style="stroke:#000000;stroke-width:0.5;" width="4" x="871.8082" y="90.4883"/><text fill="#000000" font-family="sans-serif" font-size="14" lengthAdjust="spacing" textLength="93.6182" x="775.19" y="113.0234">Configuration</text></g><!--entity auth--><g class="entity" data-entity="auth" data-source-line="47" data-uid="ent0026" id="entity_auth"><rect fill="#FEFECE" height="46.4883" rx="2.5" ry="2.5" style="stroke:#000000;stroke-width:0.5;" width="139.5176" x="929.24" y="79.4883"/><rect fill="#FEFECE" height="10" style="stroke:#000000;stroke-width:0.5;" width="15" x="1048.7576" y="84.4883"/><rect fill="#FEFECE" height="2" style="stroke:#000000;stroke-width:0.5;" width="4" x="1046.7576" y="86.4883"/><rect fill="#FEFECE" height="2" style="stroke:#000000;stroke-width:0.5;" width="4" x="1046.7576" y="90.4883"/><text fill="#000000" font-family="sans-serif" font-size="14" lengthAdjust="spacing" textLength="99.5176" x="944.24" y="113.0234">Authentication</text></g><!--entity di--><g class="entity" data-entity="di" data-source-line="48" data-uid="ent0027" id="entity_di"><rect fill="#FEFECE" height="46.4883" rx="2.5" ry="2.5" style="stroke:#000000;stroke-width:0.5;" width="186.3232" x="1103.84" y="79.4883"/><rect fill="#FEFECE" height="10" style="stroke:#000000;stroke-width:0.5;" width="15" x="1270.1632" y="84.4883"/><rect fill="#FEFECE" height="2" style="stroke:#000000;stroke-width:0.5;" width="4" x="1268.1632" y="86.4883"/><rect fill="#FEFECE" height="2" style="stroke:#000000;stroke-width:0.5;" width="4" x="1268.1632" y="90.4883"/><text fill="#000000" font-family="sans-serif" font-size="14" lengthAdjust="spacing" textLength="146.3232" x="1118.84" y="113.0234">Dependency Injection</text></g><!--link controllers to useCases--><g class="link" data-entity-1="controllers" data-entity-2="useCases" data-source-line="52" data-uid="lnk28" id="link_controllers_useCases"><path d="M798.7,247.8183 C808.48,253.0683 818.69,258.7883 828,264.4683 C849.71,277.6883 868.3385,290.5056 886.4185,303.5056" fill="none" id="controllers-to-useCases" style="stroke:#000000;stroke-width:1;"/><polygon fill="#000000" points="891.29,307.0083,886.318,298.5066,887.2305,304.0894,881.6477,305.0019,891.29,307.0083" style="stroke:#000000;stroke-width:1;"/></g><!--link useCases to domainServices--><g class="link" data-entity-1="useCases" data-entity-2="domainServices" data-source-line="53" data-uid="lnk29" id="link_useCases_domainServices"><path d="M941,354.1783 C959.05,375.5483 982.1867,402.906 1000.2167,424.236" fill="none" id="useCases-to-domainServices" style="stroke:#000000;stroke-width:1;"/><polygon fill="#000000" points="1004.09,428.8183,1001.3348,419.3626,1000.8622,424.9997,995.2251,424.5271,1004.09,428.8183" style="stroke:#000000;stroke-width:1;"/></g><!--link useCases to repoInterfaces--><g class="link" data-entity-1="useCases" data-entity-2="repoInterfaces" data-source-line="54" data-uid="lnk30" id="link_useCases_repoInterfaces"><path d="M903,354.1783 C884.95,375.5483 861.8133,402.906 843.7833,424.236" fill="none" id="useCases-to-repoInterfaces" style="stroke:#000000;stroke-width:1;"/><polygon fill="#000000" points="839.91,428.8183,848.7749,424.5271,843.1378,424.9997,842.6652,419.3626,839.91,428.8183" style="stroke:#000000;stroke-width:1;"/></g><!--link domainServices to model--><g class="link" data-entity-1="domainServices" data-entity-2="model" data-source-line="55" data-uid="lnk31" id="link_domainServices_model"><path d="M986.76,475.8683 C958.75,493.3983 925.2458,514.3549 897.2558,531.8749" fill="none" id="domainServices-to-model" style="stroke:#000000;stroke-width:1;"/><polygon fill="#000000" points="892.17,535.0583,901.921,533.6737,896.4082,532.4054,897.6765,526.8926,892.17,535.0583" style="stroke:#000000;stroke-width:1;"/></g><!--link domainServices to valueobject--><g class="link" data-entity-1="domainServices" data-entity-2="valueobject" data-source-line="56" data-uid="lnk32" id="link_domainServices_valueobject"><path d="M1023.87,475.8683 C1024.54,493.3983 1025.2307,511.5427 1025.9007,529.0627" fill="none" id="domainServices-to-valueobject" style="stroke:#000000;stroke-width:1;"/><polygon fill="#000000" points="1026.13,535.0583,1029.7832,525.912,1025.9389,530.0619,1021.789,526.2177,1026.13,535.0583" style="stroke:#000000;stroke-width:1;"/></g><!--link repositories to repoInterfaces--><g class="link" data-entity-1="repositories" data-entity-2="repoInterfaces" data-source-line="57" data-uid="lnk33" id="link_repositories_repoInterfaces"><path d="M147.3,243.8083 C152.92,245.1683 158.54,246.4083 164,247.4683 C199.11,254.2183 293.8,245.3183 324,264.4683 C373.85,296.0783 344.18,344.7683 393,377.9483 C446.46,414.2883 614.403,434.2929 723.383,443.8729" fill="none" id="repositories-to-repoInterfaces" style="stroke:#000000;stroke-width:1;"/><polygon fill="#000000" points="729.36,444.3983,720.7448,439.6255,724.3792,443.9604,720.0443,447.5948,729.36,444.3983" style="stroke:#000000;stroke-width:1;"/></g><!--link repositories to db--><g class="link" data-entity-1="repositories" data-entity-2="db" data-source-line="58" data-uid="lnk34" id="link_repositories_db"><path d="M88.25,247.8883 C90.77,265.4183 93.3886,283.629 95.8986,301.139" fill="none" id="repositories-to-db" style="stroke:#000000;stroke-width:1;"/><polygon fill="#000000" points="96.75,307.0783,99.4325,297.6018,96.0405,302.1289,91.5134,298.7369,96.75,307.0783" style="stroke:#000000;stroke-width:1;"/></g><!--link repositories to cache--><g class="link" data-entity-1="repositories" data-entity-2="cache" data-source-line="59" data-uid="lnk35" id="link_repositories_cache"><path d="M147.19,242.2783 C163.11,248.0583 179.74,255.3983 194,264.4683 C212.08,275.9583 225.1095,288.7649 237.1695,302.6749" fill="none" id="repositories-to-cache" style="stroke:#000000;stroke-width:1;"/><polygon fill="#000000" points="241.1,307.2083,238.2266,297.7879,237.8246,303.4305,232.1821,303.0285,241.1,307.2083" style="stroke:#000000;stroke-width:1;"/></g><!--link logging to controllers--><g class="link" data-entity-1="logging" data-entity-2="controllers" data-source-line="62" data-uid="lnk36" id="link_logging_controllers"><path d="M385.61,126.4683 C397.02,135.5483 411.3,145.0183 426,149.9783 C479.31,167.9383 626.63,137.4383 679,157.9783 C701.49,166.7983 717.7667,181.0453 731.5667,196.1753" fill="none" id="logging-to-controllers" style="stroke:#000000;stroke-width:1;"/><polygon fill="#000000" points="735.61,200.6083,732.5004,191.2632,732.2406,196.9141,726.5897,196.6543,735.61,200.6083" style="stroke:#000000;stroke-width:1;"/></g><!--link logging to useCases--><g class="link" data-entity-1="logging" data-entity-2="useCases" data-source-line="63" data-uid="lnk37" id="link_logging_useCases"><path d="M385.28,126.2983 C396.73,135.4783 411.14,145.0683 426,149.9783 C447.21,156.9883 808.9,146.3983 828,157.9783 C856.12,175.0183 893.1597,258.8585 910.6797,301.4985" fill="none" id="logging-to-useCases" style="stroke:#000000;stroke-width:1;"/><polygon fill="#000000" points="912.96,307.0483,913.2394,297.2034,911.0597,302.4235,905.8397,300.2438,912.96,307.0483" style="stroke:#000000;stroke-width:1;"/></g><!--link logging to repositories--><g class="link" data-entity-1="logging" data-entity-2="repositories" data-source-line="64" data-uid="lnk38" id="link_logging_repositories"><path d="M313.16,111.0783 C271.92,118.7383 211.68,133.1783 164,157.9783 C142.69,169.0583 126.2479,182.4642 111.3379,196.5742" fill="none" id="logging-to-repositories" style="stroke:#000000;stroke-width:1;"/><polygon fill="#000000" points="106.98,200.6983,116.2663,197.4174,110.6116,197.2615,110.7675,191.6068,106.98,200.6983" style="stroke:#000000;stroke-width:1;"/></g><!--link telemetry to controllers--><g class="link" data-entity-1="telemetry" data-entity-2="controllers" data-source-line="65" data-uid="lnk39" id="link_telemetry_controllers"><path d="M686.61,126.2083 C701.45,147.5683 720.2165,174.5909 735.0365,195.9209" fill="none" id="telemetry-to-controllers" style="stroke:#000000;stroke-width:1;"/><polygon fill="#000000" points="738.46,200.8483,736.6096,191.1748,735.607,196.7421,730.0397,195.7395,738.46,200.8483" style="stroke:#000000;stroke-width:1;"/></g><!--link telemetry to useCases--><g class="link" data-entity-1="telemetry" data-entity-2="useCases" data-source-line="66" data-uid="lnk40" id="link_telemetry_useCases"><path d="M698.64,126.4383 C711.36,135.5283 727.12,144.9983 743,149.9783 C754.62,153.6183 953.55,149.2083 962,157.9783 C1001.41,198.8583 966.0391,265.6666 941.7291,302.1166" fill="none" id="telemetry-to-useCases" style="stroke:#000000;stroke-width:1;"/><polygon fill="#000000" points="938.4,307.1083,946.7215,301.8402,941.1743,302.9486,940.0659,297.4013,938.4,307.1083" style="stroke:#000000;stroke-width:1;"/></g><!--link telemetry to repositories--><g class="link" data-entity-1="telemetry" data-entity-2="repositories" data-source-line="67" data-uid="lnk41" id="link_telemetry_repositories"><path d="M644.16,126.3283 C631.59,135.5183 615.89,145.0983 600,149.9783 C553.68,164.1883 209.44,141.1683 164,157.9783 C140.64,166.6183 123.3751,180.9995 108.7351,196.1795" fill="none" id="telemetry-to-repositories" style="stroke:#000000;stroke-width:1;"/><polygon fill="#000000" points="104.57,200.4983,113.6969,196.7969,108.0409,196.8993,107.9385,191.2434,104.57,200.4983" style="stroke:#000000;stroke-width:1;"/></g><!--link errors to controllers--><g class="link" data-entity-1="errors" data-entity-2="controllers" data-source-line="68" data-uid="lnk42" id="link_errors_controllers"><path d="M548.05,126.3683 C563.4,135.1983 582,144.5083 600,149.9783 C633.77,160.2283 646.61,143.9583 679,157.9783 C701.02,167.4983 717.1299,181.5377 731.0199,196.3777" fill="none" id="errors-to-controllers" style="stroke:#000000;stroke-width:1;"/><polygon fill="#000000" points="735.12,200.7583,731.8902,191.4541,731.7032,197.1078,726.0495,196.9209,735.12,200.7583" style="stroke:#000000;stroke-width:1;"/></g><!--link errors to useCases--><g class="link" data-entity-1="errors" data-entity-2="useCases" data-source-line="69" data-uid="lnk43" id="link_errors_useCases"><path d="M546.62,126.2783 C562.17,135.4583 581.31,145.0383 600,149.9783 C615.64,154.0983 878.73,147.4383 891,157.9783 C933.97,194.8983 931.4735,263.5583 926.5935,301.0983" fill="none" id="errors-to-useCases" style="stroke:#000000;stroke-width:1;"/><polygon fill="#000000" points="925.82,307.0483,930.9468,298.639,926.4646,302.09,923.0136,297.6077,925.82,307.0483" style="stroke:#000000;stroke-width:1;"/></g><!--link errors to repositories--><g class="link" data-entity-1="errors" data-entity-2="repositories" data-source-line="70" data-uid="lnk44" id="link_errors_repositories"><path d="M479.38,126.2583 C463.82,135.4183 444.68,145.0183 426,149.9783 C369.7,164.9283 218.51,137.4283 164,157.9783 C140.7,166.7583 123.4222,181.1364 108.7822,196.2664" fill="none" id="errors-to-repositories" style="stroke:#000000;stroke-width:1;"/><polygon fill="#000000" points="104.61,200.5783,113.743,196.8919,108.0869,196.985,107.9938,191.329,104.61,200.5783" style="stroke:#000000;stroke-width:1;"/></g><!--link auth to controllers--><g class="link" data-entity-1="auth" data-entity-2="controllers" data-source-line="71" data-uid="lnk45" id="link_auth_controllers"><path d="M957.13,126.2483 C942.6,133.9283 926.15,142.4683 911,149.9783 C875.56,167.5383 840.566,183.8919 809.596,198.0619" fill="none" id="auth-to-controllers" style="stroke:#000000;stroke-width:1;"/><polygon fill="#000000" points="804.14,200.5583,813.9883,200.4511,808.6867,198.478,810.6598,193.1764,804.14,200.5583" style="stroke:#000000;stroke-width:1;"/></g><!--link di to controllers--><g class="link" data-entity-1="di" data-entity-2="controllers" data-source-line="72" data-uid="lnk46" id="link_di_controllers"><path d="M1147.97,126.3683 C1128.9,134.5783 1106.7,143.4383 1086,149.9783 C991.87,179.7083 884.9291,200.8181 818.0091,212.5981" fill="none" id="di-to-controllers" style="stroke:#000000;stroke-width:1;"/><polygon fill="#000000" points="812.1,213.6383,821.6572,216.0174,817.0243,212.7715,820.2703,208.1386,812.1,213.6383" style="stroke:#000000;stroke-width:1;"/></g><!--link di to useCases--><g class="link" data-entity-1="di" data-entity-2="useCases" data-source-line="73" data-uid="lnk47" id="link_di_useCases"><path d="M1167.26,126.2883 C1127.26,156.8483 1054.19,213.4583 994,264.4683 C977.66,278.3083 964.2181,290.4078 950.3781,303.1878" fill="none" id="di-to-useCases" style="stroke:#000000;stroke-width:1;"/><polygon fill="#000000" points="945.97,307.2583,955.2958,304.0913,949.6434,303.8662,949.8685,298.2138,945.97,307.2583" style="stroke:#000000;stroke-width:1;"/></g><!--link di to repositories--><g class="link" data-entity-1="di" data-entity-2="repositories" data-source-line="74" data-uid="lnk48" id="link_di_repositories"><path d="M1153.42,126.4783 C1133.45,135.6883 1109.11,145.2483 1086,149.9783 C1035.81,160.2383 212.13,140.4383 164,157.9783 C140.44,166.5683 123.0108,181.1558 108.3908,196.4158" fill="none" id="di-to-repositories" style="stroke:#000000;stroke-width:1;"/><polygon fill="#000000" points="104.24,200.7483,113.3546,197.0167,107.699,197.1378,107.5779,191.4823,104.24,200.7483" style="stroke:#000000;stroke-width:1;"/></g><!--link di to domainServices--><g class="link" data-entity-1="di" data-entity-2="domainServices" data-source-line="75" data-uid="lnk49" id="link_di_domainServices"><path d="M1226.33,126.2983 C1286.57,175.3283 1413.12,293.9083 1346,377.9483 C1315.68,415.9183 1190.5968,435.048 1105.0168,444.088" fill="none" id="di-to-domainServices" style="stroke:#000000;stroke-width:1;"/><polygon fill="#000000" points="1099.05,444.7183,1108.4204,447.7507,1104.0223,444.193,1107.58,439.795,1099.05,444.7183" style="stroke:#000000;stroke-width:1;"/></g><!--SRC=[XLFBSXCn4BplLwZ28QTS-02gpCOXgNAAHu0BnK6Mnhl2ihICj3OkYdzdzDYrP2Tmaxf7hPxNDRk5ZJB0V0_C-QC6rxYjCWD7lcF2xWPhmFYdmB1nfryNxC35bdUGE0JXkUaq505h2kZGZaQsLbjaXrxvabyWsaEYrffY2wgTVdvhKGB-B-ZierTtoxjbkon2FoIl_rARGbxGQhpobESJu5u9MAarsHSX8U571FP-7mWuDCrrMLBDZu2EAk50CcjOgu6RwcMJoyYkRksEAyDMuSaL-zqmzYr3ZrQ2_iwuOxjm2inNhaVwTVs3L5oazW6n4IYUPhyfH4PiWaBK9nYiKzxYaJqO3xZXKomISuAQFyt9w68Oj1BSArkx_UA0jPHf4XWTn4jWoXUL8puCfHtAIiaODgMKhzN_3sQ3t7aSK-bB2tC-gaXZ0c9PkEUX6smXwCzSbdLWMavDCLr419qXWCjVL073TUqQCZfRhztbebN6MciyMgrf6j8FftkW7vMK6WuS8RLvlWRo7VAX_xYAJ1VEF-C8t0FNlcTj3sARHFk8L6vQjCxTjAFtb1jjZ17at6LJAzjrKyewdMFIj9V8xhcHUc8XGD7fPz2m0u_7YFlfbdFSg6x4KmD5HE84ZBGEnkSXIBqdABO41Z0IZ0Wp6CPt2f0gf5Bj4uAE0gvNWskA8hARcpUdaPiE4JsR-eexc_8wD4QaZNk6AFUjdBBdT2zu6haBB0qTvPjw9dBFHExPMUwvN-bbCKmbFjUZ1AkDcFjteLCpir8DLrffHYw42dXMAR1A8ep4XO1KBq6pNhvNMXaxw_vV]--></g></svg>