<svg xmlns="http://www.w3.org/2000/svg" xmlns:xlink="http://www.w3.org/1999/xlink" contentStyleType="text/css" data-diagram-type="CLASS" height="844px" preserveAspectRatio="none" style="width:1748px;height:844px;background:#FFFFFF;" version="1.1" viewBox="0 0 1748 844" width="1748px" zoomAndPan="magnify"><title>ServiceLib Errors Package Class Diagram</title><defs/><g><g class="title" data-source-line="10"><text fill="#000000" font-family="sans-serif" font-size="14" font-weight="bold" lengthAdjust="spacing" textLength="294.54" x="720.0199" y="23.5352">ServiceLib Errors Package Class Diagram</text></g><!--class GoError--><g class="entity" data-entity="GoError" data-source-line="13" data-uid="ent0002" id="entity_GoError"><rect fill="#FEFECE" height="64.4883" rx="2.5" ry="2.5" style="stroke:#000000;stroke-width:2;" width="109.6035" x="1201.03" y="159.9083"/><ellipse cx="1235.8383" cy="175.9083" fill="#B4A7E5" rx="11" ry="11" style="stroke:#181818;stroke-width:1;"/><path d="M1232.2661,172.1734 L1232.2661,170.0152 L1239.6455,170.0152 L1239.6455,172.1734 L1237.1801,172.1734 L1237.1801,180.2501 L1239.6455,180.2501 L1239.6455,182.4083 L1232.2661,182.4083 L1232.2661,180.2501 L1234.7314,180.2501 L1234.7314,172.1734 Z " fill="#000000"/><text fill="#000000" font-family="sans-serif" font-size="14" font-style="italic" lengthAdjust="spacing" textLength="33.585" x="1254.2402" y="181.1993">error</text><line style="stroke:#000000;stroke-width:2;" x1="1202.03" x2="1309.6335" y1="191.9083" y2="191.9083"/><line style="stroke:#000000;stroke-width:2;" x1="1202.03" x2="1309.6335" y1="199.9083" y2="199.9083"/><text fill="#000000" font-family="sans-serif" font-size="14" lengthAdjust="spacing" textLength="97.6035" x="1207.03" y="217.4434">+Error() string</text></g><!--class BaseError--><g class="entity" data-entity="BaseError" data-source-line="17" data-uid="ent0003" id="entity_BaseError"><rect fill="#FEFECE" height="245.8594" rx="2.5" ry="2.5" style="stroke:#000000;stroke-width:2;" width="331.0195" x="579.32" y="416.8183"/><ellipse cx="723.8932" cy="432.8183" fill="#ADD1B2" rx="11" ry="11" style="stroke:#181818;stroke-width:1;"/><path d="M726.3664,438.9613 Q725.7853,439.2602 725.1462,439.4096 Q724.507,439.559 723.8014,439.559 Q721.2946,439.559 719.9748,437.9071 Q718.655,436.2553 718.655,433.1342 Q718.655,430.0048 719.9748,428.3529 Q721.2946,426.7011 723.8014,426.7011 Q724.507,426.7011 725.1545,426.8505 Q725.8019,426.9999 726.3664,427.2988 L726.3664,430.0214 Q725.7355,429.4404 725.142,429.1706 Q724.5485,428.9008 723.9177,428.9008 Q722.5729,428.9008 721.8881,429.9675 Q721.2033,431.0341 721.2033,433.1342 Q721.2033,435.226 721.8881,436.2926 Q722.5729,437.3593 723.9177,437.3593 Q724.5485,437.3593 725.142,437.0895 Q725.7355,436.8197 726.3664,436.2387 Z " fill="#000000"/><text fill="#000000" font-family="sans-serif" font-size="14" lengthAdjust="spacing" textLength="33.373" x="744.3932" y="438.1093">Error</text><line style="stroke:#000000;stroke-width:2;" x1="580.32" x2="909.3395" y1="448.8183" y2="448.8183"/><text fill="#000000" font-family="sans-serif" font-size="14" lengthAdjust="spacing" textLength="88.9082" x="585.32" y="466.3534">-code: string</text><text fill="#000000" font-family="sans-serif" font-size="14" lengthAdjust="spacing" textLength="115.9307" x="585.32" y="482.8417">-message: string</text><text fill="#000000" font-family="sans-serif" font-size="14" lengthAdjust="spacing" textLength="208.5098" x="585.32" y="499.33">-details: map[string]interface{}</text><text fill="#000000" font-family="sans-serif" font-size="14" lengthAdjust="spacing" textLength="89.0723" x="585.32" y="515.8183">-cause: error</text><text fill="#000000" font-family="sans-serif" font-size="14" lengthAdjust="spacing" textLength="91.9844" x="585.32" y="532.3066">-stack: string</text><line style="stroke:#000000;stroke-width:2;" x1="580.32" x2="909.3395" y1="539.2597" y2="539.2597"/><text fill="#000000" font-family="sans-serif" font-size="14" lengthAdjust="spacing" textLength="97.6035" x="585.32" y="556.7948">+Error() string</text><text fill="#000000" font-family="sans-serif" font-size="14" lengthAdjust="spacing" textLength="99.1279" x="585.32" y="573.2831">+Code() string</text><text fill="#000000" font-family="sans-serif" font-size="14" lengthAdjust="spacing" textLength="122.623" x="585.32" y="589.7714">+Message() string</text><text fill="#000000" font-family="sans-serif" font-size="14" lengthAdjust="spacing" textLength="217.8887" x="585.32" y="606.2597">+Details() map[string]interface{}</text><text fill="#000000" font-family="sans-serif" font-size="14" lengthAdjust="spacing" textLength="99.292" x="585.32" y="622.748">+Cause() error</text><text fill="#000000" font-family="sans-serif" font-size="14" lengthAdjust="spacing" textLength="100.0918" x="585.32" y="639.2362">+Stack() string</text><text fill="#000000" font-family="sans-serif" font-size="14" lengthAdjust="spacing" textLength="319.0195" x="585.32" y="655.7245">+WithDetails(key string, value interface{}) Error</text></g><!--class ValidationError--><g class="entity" data-entity="ValidationError" data-source-line="32" data-uid="ent0004" id="entity_ValidationError"><rect fill="#FEFECE" height="80.9766" rx="2.5" ry="2.5" style="stroke:#000000;stroke-width:2;" width="133.4658" x="604.1" y="740.1683"/><ellipse cx="619.1" cy="756.1683" fill="#ADD1B2" rx="11" ry="11" style="stroke:#181818;stroke-width:1;"/><path d="M621.5731,762.3113 Q620.9921,762.6102 620.3529,762.7596 Q619.7138,762.909 619.0082,762.909 Q616.5014,762.909 615.1815,761.2571 Q613.8617,759.6053 613.8617,756.4842 Q613.8617,753.3548 615.1815,751.7029 Q616.5014,750.0511 619.0082,750.0511 Q619.7138,750.0511 620.3612,750.2005 Q621.0087,750.3499 621.5731,750.6488 L621.5731,753.3714 Q620.9423,752.7904 620.3488,752.5206 Q619.7553,752.2508 619.1244,752.2508 Q617.7797,752.2508 617.0949,753.3175 Q616.4101,754.3841 616.4101,756.4842 Q616.4101,758.576 617.0949,759.6426 Q617.7797,760.7093 619.1244,760.7093 Q619.7553,760.7093 620.3488,760.4395 Q620.9423,760.1697 621.5731,759.5887 Z " fill="#000000"/><text fill="#000000" font-family="sans-serif" font-size="14" lengthAdjust="spacing" textLength="101.4658" x="633.1" y="761.4593">ValidationError</text><line style="stroke:#000000;stroke-width:2;" x1="605.1" x2="736.5658" y1="772.1683" y2="772.1683"/><text fill="#000000" font-family="sans-serif" font-size="14" lengthAdjust="spacing" textLength="86.3789" x="610.1" y="789.7034">-field: string</text><line style="stroke:#000000;stroke-width:2;" x1="605.1" x2="736.5658" y1="796.6566" y2="796.6566"/><text fill="#000000" font-family="sans-serif" font-size="14" lengthAdjust="spacing" textLength="96.4414" x="610.1" y="814.1917">+Field() string</text></g><!--class NotFoundError--><g class="entity" data-entity="NotFoundError" data-source-line="37" data-uid="ent0005" id="entity_NotFoundError"><rect fill="#FEFECE" height="113.9531" rx="2.5" ry="2.5" style="stroke:#000000;stroke-width:2;" width="137.5693" x="232.04" y="723.6783"/><ellipse cx="249.6156" cy="739.6783" fill="#ADD1B2" rx="11" ry="11" style="stroke:#181818;stroke-width:1;"/><path d="M252.0888,745.8213 Q251.5077,746.1202 250.8686,746.2696 Q250.2294,746.419 249.5238,746.419 Q247.017,746.419 245.6972,744.7671 Q244.3774,743.1153 244.3774,739.9942 Q244.3774,736.8648 245.6972,735.2129 Q247.017,733.5611 249.5238,733.5611 Q250.2294,733.5611 250.8769,733.7105 Q251.5243,733.8599 252.0888,734.1587 L252.0888,736.8814 Q251.4579,736.3004 250.8644,736.0306 Q250.2709,735.7608 249.64,735.7608 Q248.2953,735.7608 247.6105,736.8275 Q246.9257,737.8941 246.9257,739.9942 Q246.9257,742.086 247.6105,743.1526 Q248.2953,744.2193 249.64,744.2193 Q250.2709,744.2193 250.8644,743.9495 Q251.4579,743.6797 252.0888,743.0987 Z " fill="#000000"/><text fill="#000000" font-family="sans-serif" font-size="14" lengthAdjust="spacing" textLength="99.8457" x="264.188" y="744.9693">NotFoundError</text><line style="stroke:#000000;stroke-width:2;" x1="233.04" x2="368.6093" y1="755.6783" y2="755.6783"/><text fill="#000000" font-family="sans-serif" font-size="14" lengthAdjust="spacing" textLength="94.8486" x="238.04" y="773.2134">-entity: string</text><text fill="#000000" font-family="sans-serif" font-size="14" lengthAdjust="spacing" textLength="117.8789" x="238.04" y="789.7017">-identifier: string</text><line style="stroke:#000000;stroke-width:2;" x1="233.04" x2="368.6093" y1="796.6548" y2="796.6548"/><text fill="#000000" font-family="sans-serif" font-size="14" lengthAdjust="spacing" textLength="102.3408" x="238.04" y="814.19">+Entity() string</text><text fill="#000000" font-family="sans-serif" font-size="14" lengthAdjust="spacing" textLength="125.5693" x="238.04" y="830.6783">+Identifier() string</text></g><!--class DatabaseError--><g class="entity" data-entity="DatabaseError" data-source-line="44" data-uid="ent0006" id="entity_DatabaseError"><rect fill="#FEFECE" height="113.9531" rx="2.5" ry="2.5" style="stroke:#000000;stroke-width:2;" width="143.749" x="1138.96" y="723.6783"/><ellipse cx="1161.0299" cy="739.6783" fill="#ADD1B2" rx="11" ry="11" style="stroke:#181818;stroke-width:1;"/><path d="M1163.5031,745.8213 Q1162.922,746.1202 1162.2829,746.2696 Q1161.6437,746.419 1160.9381,746.419 Q1158.4313,746.419 1157.1115,744.7671 Q1155.7916,743.1153 1155.7916,739.9942 Q1155.7916,736.8648 1157.1115,735.2129 Q1158.4313,733.5611 1160.9381,733.5611 Q1161.6437,733.5611 1162.2912,733.7105 Q1162.9386,733.8599 1163.5031,734.1587 L1163.5031,736.8814 Q1162.8722,736.3004 1162.2787,736.0306 Q1161.6852,735.7608 1161.0543,735.7608 Q1159.7096,735.7608 1159.0248,736.8275 Q1158.34,737.8941 1158.34,739.9942 Q1158.34,742.086 1159.0248,743.1526 Q1159.7096,744.2193 1161.0543,744.2193 Q1161.6852,744.2193 1162.2787,743.9495 Q1162.8722,743.6797 1163.5031,743.0987 Z " fill="#000000"/><text fill="#000000" font-family="sans-serif" font-size="14" lengthAdjust="spacing" textLength="96.0381" x="1176.601" y="744.9693">DatabaseError</text><line style="stroke:#000000;stroke-width:2;" x1="1139.96" x2="1281.709" y1="755.6783" y2="755.6783"/><text fill="#000000" font-family="sans-serif" font-size="14" lengthAdjust="spacing" textLength="121.7686" x="1144.96" y="773.2134">-operation: string</text><text fill="#000000" font-family="sans-serif" font-size="14" lengthAdjust="spacing" textLength="90.1523" x="1144.96" y="789.7017">-table: string</text><line style="stroke:#000000;stroke-width:2;" x1="1139.96" x2="1281.709" y1="796.6548" y2="796.6548"/><text fill="#000000" font-family="sans-serif" font-size="14" lengthAdjust="spacing" textLength="131.749" x="1144.96" y="814.19">+Operation() string</text><text fill="#000000" font-family="sans-serif" font-size="14" lengthAdjust="spacing" textLength="101.4727" x="1144.96" y="830.6783">+Table() string</text></g><!--class AuthenticationError--><g class="entity" data-entity="AuthenticationError" data-source-line="51" data-uid="ent0007" id="entity_AuthenticationError"><rect fill="#FEFECE" height="80.9766" rx="2.5" ry="2.5" style="stroke:#000000;stroke-width:2;" width="164.8906" x="404.38" y="740.1683"/><ellipse cx="419.38" cy="756.1683" fill="#ADD1B2" rx="11" ry="11" style="stroke:#181818;stroke-width:1;"/><path d="M421.8531,762.3113 Q421.2721,762.6102 420.6329,762.7596 Q419.9938,762.909 419.2882,762.909 Q416.7814,762.909 415.4615,761.2571 Q414.1417,759.6053 414.1417,756.4842 Q414.1417,753.3548 415.4615,751.7029 Q416.7814,750.0511 419.2882,750.0511 Q419.9938,750.0511 420.6412,750.2005 Q421.2887,750.3499 421.8531,750.6488 L421.8531,753.3714 Q421.2223,752.7904 420.6288,752.5206 Q420.0353,752.2508 419.4044,752.2508 Q418.0597,752.2508 417.3749,753.3175 Q416.6901,754.3841 416.6901,756.4842 Q416.6901,758.576 417.3749,759.6426 Q418.0597,760.7093 419.4044,760.7093 Q420.0353,760.7093 420.6288,760.4395 Q421.2223,760.1697 421.8531,759.5887 Z " fill="#000000"/><text fill="#000000" font-family="sans-serif" font-size="14" lengthAdjust="spacing" textLength="132.8906" x="433.38" y="761.4593">AuthenticationError</text><line style="stroke:#000000;stroke-width:2;" x1="405.38" x2="568.2706" y1="772.1683" y2="772.1683"/><text fill="#000000" font-family="sans-serif" font-size="14" lengthAdjust="spacing" textLength="102.2109" x="410.38" y="789.7034">-reason: string</text><line style="stroke:#000000;stroke-width:2;" x1="405.38" x2="568.2706" y1="796.6566" y2="796.6566"/><text fill="#000000" font-family="sans-serif" font-size="14" lengthAdjust="spacing" textLength="113.0391" x="410.38" y="814.1917">+Reason() string</text></g><!--class AuthorizationError--><g class="entity" data-entity="AuthorizationError" data-source-line="56" data-uid="ent0008" id="entity_AuthorizationError"><rect fill="#FEFECE" height="113.9531" rx="2.5" ry="2.5" style="stroke:#000000;stroke-width:2;" width="158.3486" x="772.66" y="723.6783"/><ellipse cx="787.66" cy="739.6783" fill="#ADD1B2" rx="11" ry="11" style="stroke:#181818;stroke-width:1;"/><path d="M790.1331,745.8213 Q789.5521,746.1202 788.9129,746.2696 Q788.2738,746.419 787.5682,746.419 Q785.0614,746.419 783.7415,744.7671 Q782.4217,743.1153 782.4217,739.9942 Q782.4217,736.8648 783.7415,735.2129 Q785.0614,733.5611 787.5682,733.5611 Q788.2738,733.5611 788.9212,733.7105 Q789.5687,733.8599 790.1331,734.1587 L790.1331,736.8814 Q789.5023,736.3004 788.9088,736.0306 Q788.3153,735.7608 787.6844,735.7608 Q786.3397,735.7608 785.6549,736.8275 Q784.9701,737.8941 784.9701,739.9942 Q784.9701,742.086 785.6549,743.1526 Q786.3397,744.2193 787.6844,744.2193 Q788.3153,744.2193 788.9088,743.9495 Q789.5023,743.6797 790.1331,743.0987 Z " fill="#000000"/><text fill="#000000" font-family="sans-serif" font-size="14" lengthAdjust="spacing" textLength="126.3486" x="801.66" y="744.9693">AuthorizationError</text><line style="stroke:#000000;stroke-width:2;" x1="773.66" x2="930.0086" y1="755.6783" y2="755.6783"/><text fill="#000000" font-family="sans-serif" font-size="14" lengthAdjust="spacing" textLength="115.1787" x="778.66" y="773.2134">-resource: string</text><text fill="#000000" font-family="sans-serif" font-size="14" lengthAdjust="spacing" textLength="98" x="778.66" y="789.7017">-action: string</text><line style="stroke:#000000;stroke-width:2;" x1="773.66" x2="930.0086" y1="796.6548" y2="796.6548"/><text fill="#000000" font-family="sans-serif" font-size="14" lengthAdjust="spacing" textLength="126.0068" x="778.66" y="814.19">+Resource() string</text><text fill="#000000" font-family="sans-serif" font-size="14" lengthAdjust="spacing" textLength="107.6318" x="778.66" y="830.6783">+Action() string</text></g><!--class TimeoutError--><g class="entity" data-entity="TimeoutError" data-source-line="63" data-uid="ent0009" id="entity_TimeoutError"><rect fill="#FEFECE" height="80.9766" rx="2.5" ry="2.5" style="stroke:#000000;stroke-width:2;" width="189.6592" x="7" y="740.1683"/><ellipse cx="52.7461" cy="756.1683" fill="#ADD1B2" rx="11" ry="11" style="stroke:#181818;stroke-width:1;"/><path d="M55.2192,762.3113 Q54.6382,762.6102 53.999,762.7596 Q53.3599,762.909 52.6543,762.909 Q50.1475,762.909 48.8276,761.2571 Q47.5078,759.6053 47.5078,756.4842 Q47.5078,753.3548 48.8276,751.7029 Q50.1475,750.0511 52.6543,750.0511 Q53.3599,750.0511 54.0073,750.2005 Q54.6548,750.3499 55.2192,750.6488 L55.2192,753.3714 Q54.5884,752.7904 53.9949,752.5206 Q53.4014,752.2508 52.7705,752.2508 Q51.4258,752.2508 50.741,753.3175 Q50.0562,754.3841 50.0562,756.4842 Q50.0562,758.576 50.741,759.6426 Q51.4258,760.7093 52.7705,760.7093 Q53.4014,760.7093 53.9949,760.4395 Q54.5884,760.1697 55.2192,759.5887 Z " fill="#000000"/><text fill="#000000" font-family="sans-serif" font-size="14" lengthAdjust="spacing" textLength="89.667" x="73.2461" y="761.4593">TimeoutError</text><line style="stroke:#000000;stroke-width:2;" x1="8" x2="195.6592" y1="772.1683" y2="772.1683"/><text fill="#000000" font-family="sans-serif" font-size="14" lengthAdjust="spacing" textLength="168.2803" x="13" y="789.7034">-duration: time.Duration</text><line style="stroke:#000000;stroke-width:2;" x1="8" x2="195.6592" y1="796.6566" y2="796.6566"/><text fill="#000000" font-family="sans-serif" font-size="14" lengthAdjust="spacing" textLength="177.6592" x="13" y="814.1917">+Duration() time.Duration</text></g><!--class ConflictError--><g class="entity" data-entity="ConflictError" data-source-line="68" data-uid="ent0010" id="entity_ConflictError"><rect fill="#FEFECE" height="113.9531" rx="2.5" ry="2.5" style="stroke:#000000;stroke-width:2;" width="137.5693" x="966.04" y="723.6783"/><ellipse cx="989.848" cy="739.6783" fill="#ADD1B2" rx="11" ry="11" style="stroke:#181818;stroke-width:1;"/><path d="M992.3211,745.8213 Q991.74,746.1202 991.1009,746.2696 Q990.4617,746.419 989.7562,746.419 Q987.2493,746.419 985.9295,744.7671 Q984.6097,743.1153 984.6097,739.9942 Q984.6097,736.8648 985.9295,735.2129 Q987.2493,733.5611 989.7562,733.5611 Q990.4617,733.5611 991.1092,733.7105 Q991.7567,733.8599 992.3211,734.1587 L992.3211,736.8814 Q991.6902,736.3004 991.0967,736.0306 Q990.5032,735.7608 989.8724,735.7608 Q988.5276,735.7608 987.8428,736.8275 Q987.158,737.8941 987.158,739.9942 Q987.158,742.086 987.8428,743.1526 Q988.5276,744.2193 989.8724,744.2193 Q990.5032,744.2193 991.0967,743.9495 Q991.6902,743.6797 992.3211,743.0987 Z " fill="#000000"/><text fill="#000000" font-family="sans-serif" font-size="14" lengthAdjust="spacing" textLength="85.9961" x="1005.8053" y="744.9693">ConflictError</text><line style="stroke:#000000;stroke-width:2;" x1="967.04" x2="1102.6093" y1="755.6783" y2="755.6783"/><text fill="#000000" font-family="sans-serif" font-size="14" lengthAdjust="spacing" textLength="94.8486" x="972.04" y="773.2134">-entity: string</text><text fill="#000000" font-family="sans-serif" font-size="14" lengthAdjust="spacing" textLength="117.8789" x="972.04" y="789.7017">-identifier: string</text><line style="stroke:#000000;stroke-width:2;" x1="967.04" x2="1102.6093" y1="796.6548" y2="796.6548"/><text fill="#000000" font-family="sans-serif" font-size="14" lengthAdjust="spacing" textLength="102.3408" x="972.04" y="814.19">+Entity() string</text><text fill="#000000" font-family="sans-serif" font-size="14" lengthAdjust="spacing" textLength="125.5693" x="972.04" y="830.6783">+Identifier() string</text></g><!--class ErrorHandler--><g class="entity" data-entity="ErrorHandler" data-source-line="75" data-uid="ent0011" id="entity_ErrorHandler"><rect fill="#FEFECE" height="97.4648" rx="2.5" ry="2.5" style="stroke:#000000;stroke-width:2;" width="395.5098" x="1346.07" y="143.4183"/><ellipse cx="1496.341" cy="159.4183" fill="#ADD1B2" rx="11" ry="11" style="stroke:#181818;stroke-width:1;"/><path d="M1498.8141,165.5613 Q1498.2331,165.8602 1497.5939,166.0096 Q1496.9548,166.159 1496.2492,166.159 Q1493.7424,166.159 1492.4225,164.5071 Q1491.1027,162.8553 1491.1027,159.7342 Q1491.1027,156.6048 1492.4225,154.9529 Q1493.7424,153.3011 1496.2492,153.3011 Q1496.9548,153.3011 1497.6022,153.4505 Q1498.2497,153.5999 1498.8141,153.8987 L1498.8141,156.6214 Q1498.1833,156.0404 1497.5898,155.7706 Q1496.9963,155.5008 1496.3654,155.5008 Q1495.0207,155.5008 1494.3359,156.5675 Q1493.6511,157.6341 1493.6511,159.7342 Q1493.6511,161.826 1494.3359,162.8926 Q1495.0207,163.9593 1496.3654,163.9593 Q1496.9963,163.9593 1497.5898,163.6895 Q1498.1833,163.4197 1498.8141,162.8387 Z " fill="#000000"/><text fill="#000000" font-family="sans-serif" font-size="14" lengthAdjust="spacing" textLength="86.4678" x="1516.841" y="164.7093">ErrorHandler</text><line style="stroke:#000000;stroke-width:2;" x1="1347.07" x2="1740.5798" y1="175.4183" y2="175.4183"/><line style="stroke:#000000;stroke-width:2;" x1="1347.07" x2="1740.5798" y1="183.4183" y2="183.4183"/><text fill="#000000" font-family="sans-serif" font-size="14" lengthAdjust="spacing" textLength="227.5" x="1352.07" y="200.9534">+HandleError(err error) Response</text><text fill="#000000" font-family="sans-serif" font-size="14" lengthAdjust="spacing" textLength="383.5098" x="1352.07" y="217.4417">+LogError(ctx context.Context, logger Logger, err error)</text><text fill="#000000" font-family="sans-serif" font-size="14" lengthAdjust="spacing" textLength="307.4873" x="1352.07" y="233.93">+WriteError(w http.ResponseWriter, err error)</text></g><!--class Functions--><g class="entity" data-entity="Functions" data-source-line="94" data-uid="ent0021" id="entity_Functions"><rect fill="#FEFECE" height="295.3242" rx="2.5" ry="2.5" style="stroke:#000000;stroke-width:2;" width="712.9297" x="217.36" y="44.4883"/><ellipse cx="536.694" cy="60.4883" fill="#ADD1B2" rx="11" ry="11" style="stroke:#181818;stroke-width:1;"/><path d="M539.1671,66.6313 Q538.5861,66.9302 537.9469,67.0796 Q537.3078,67.229 536.6022,67.229 Q534.0954,67.229 532.7755,65.5771 Q531.4557,63.9253 531.4557,60.8042 Q531.4557,57.6748 532.7755,56.0229 Q534.0954,54.3711 536.6022,54.3711 Q537.3078,54.3711 537.9552,54.5205 Q538.6027,54.6699 539.1671,54.9688 L539.1671,57.6914 Q538.5363,57.1104 537.9428,56.8406 Q537.3493,56.5708 536.7184,56.5708 Q535.3737,56.5708 534.6889,57.6375 Q534.004,58.7041 534.004,60.8042 Q534.004,62.896 534.6889,63.9626 Q535.3737,65.0293 536.7184,65.0293 Q537.3493,65.0293 537.9428,64.7595 Q538.5363,64.4897 539.1671,63.9087 Z " fill="#000000"/><text fill="#000000" font-family="sans-serif" font-size="14" lengthAdjust="spacing" textLength="65.7617" x="557.194" y="65.7793">Functions</text><line style="stroke:#000000;stroke-width:2;" x1="218.36" x2="929.2897" y1="76.4883" y2="76.4883"/><line style="stroke:#000000;stroke-width:2;" x1="218.36" x2="929.2897" y1="84.4883" y2="84.4883"/><text fill="#000000" font-family="sans-serif" font-size="14" lengthAdjust="spacing" text-decoration="underline" textLength="394.3789" x="223.36" y="102.0234">+NewError(code string, message string, cause error) Error</text><text fill="#000000" font-family="sans-serif" font-size="14" lengthAdjust="spacing" text-decoration="underline" textLength="528.0352" x="223.36" y="118.5117">+NewValidationError(message string, field string, cause error) ValidationError</text><text fill="#000000" font-family="sans-serif" font-size="14" lengthAdjust="spacing" text-decoration="underline" textLength="647.4727" x="223.36" y="135">+NewNotFoundError(message string, entity string, identifier string, cause error) NotFoundError</text><text fill="#000000" font-family="sans-serif" font-size="14" lengthAdjust="spacing" text-decoration="underline" textLength="639.0508" x="223.36" y="151.4883">+NewDatabaseError(message string, operation string, table string, cause error) DatabaseError</text><text fill="#000000" font-family="sans-serif" font-size="14" lengthAdjust="spacing" text-decoration="underline" textLength="606.7168" x="223.36" y="167.9766">+NewAuthenticationError(message string, reason string, cause error) AuthenticationError</text><text fill="#000000" font-family="sans-serif" font-size="14" lengthAdjust="spacing" text-decoration="underline" textLength="700.9297" x="223.36" y="184.4648">+NewAuthorizationError(message string, resource string, action string, cause error) AuthorizationError</text><text fill="#000000" font-family="sans-serif" font-size="14" lengthAdjust="spacing" text-decoration="underline" textLength="586.3389" x="223.36" y="200.9531">+NewTimeoutError(message string, duration time.Duration, cause error) TimeoutError</text><text fill="#000000" font-family="sans-serif" font-size="14" lengthAdjust="spacing" text-decoration="underline" textLength="619.7734" x="223.36" y="217.4414">+NewConflictError(message string, entity string, identifier string, cause error) ConflictError</text><text fill="#000000" font-family="sans-serif" font-size="14" lengthAdjust="spacing" text-decoration="underline" textLength="224.6289" x="223.36" y="233.9297">+IsValidationError(err error) bool</text><text fill="#000000" font-family="sans-serif" font-size="14" lengthAdjust="spacing" text-decoration="underline" textLength="223.0088" x="223.36" y="250.418">+IsNotFoundError(err error) bool</text><text fill="#000000" font-family="sans-serif" font-size="14" lengthAdjust="spacing" text-decoration="underline" textLength="219.2012" x="223.36" y="266.9063">+IsDatabaseError(err error) bool</text><text fill="#000000" font-family="sans-serif" font-size="14" lengthAdjust="spacing" text-decoration="underline" textLength="256.0537" x="223.36" y="283.3945">+IsAuthenticationError(err error) bool</text><text fill="#000000" font-family="sans-serif" font-size="14" lengthAdjust="spacing" text-decoration="underline" textLength="249.5117" x="223.36" y="299.8828">+IsAuthorizationError(err error) bool</text><text fill="#000000" font-family="sans-serif" font-size="14" lengthAdjust="spacing" text-decoration="underline" textLength="212.8301" x="223.36" y="316.3711">+IsTimeoutError(err error) bool</text><text fill="#000000" font-family="sans-serif" font-size="14" lengthAdjust="spacing" text-decoration="underline" textLength="209.1592" x="223.36" y="332.8594">+IsConflictError(err error) bool</text></g><!--reverse link GoError to BaseError--><g class="link" data-entity-1="GoError" data-entity-2="BaseError" data-source-line="82" data-uid="lnk12" id="link_GoError_BaseError"><path codeLine="82" d="M1194.2191,234.8212 C1127.1391,280.1812 1015.03,356.0083 910.78,426.5083" fill="none" id="GoError-backto-BaseError" style="stroke:#000000;stroke-width:2;"/><polygon fill="none" points="1209.13,224.7383,1190.8581,229.8509,1197.58,239.7915,1209.13,224.7383" style="stroke:#000000;stroke-width:2;"/></g><!--reverse link BaseError to ValidationError--><g class="link" data-entity-1="BaseError" data-entity-2="ValidationError" data-source-line="83" data-uid="lnk13" id="link_BaseError_ValidationError"><path codeLine="83" d="M701.6369,680.1932 C693.0369,707.9732 689.81,718.3583 683.2,739.7183" fill="none" id="BaseError-backto-ValidationError" style="stroke:#000000;stroke-width:2;"/><polygon fill="none" points="706.96,662.9983,695.9053,678.4188,707.3685,681.9675,706.96,662.9983" style="stroke:#000000;stroke-width:2;"/></g><!--reverse link BaseError to NotFoundError--><g class="link" data-entity-1="BaseError" data-entity-2="NotFoundError" data-source-line="84" data-uid="lnk14" id="link_BaseError_NotFoundError"><path codeLine="84" d="M563.1559,657.164 C554.0759,662.114 560.8,658.2483 551.83,662.6783 C481.73,697.2983 456.69,688.5783 386.83,723.6783 C381.26,726.4783 375.6,729.5583 369.99,732.7883" fill="none" id="BaseError-backto-NotFoundError" style="stroke:#000000;stroke-width:2;"/><polygon fill="none" points="578.96,648.5483,560.284,651.8959,566.0278,662.432,578.96,648.5483" style="stroke:#000000;stroke-width:2;"/></g><!--reverse link BaseError to DatabaseError--><g class="link" data-entity-1="BaseError" data-entity-2="DatabaseError" data-source-line="85" data-uid="lnk15" id="link_BaseError_DatabaseError"><path codeLine="85" d="M926.6867,657.5107 C935.7167,662.3207 928.88,658.4283 937.83,662.6783 C1015.3,699.3983 1043.23,687.2283 1120.83,723.6783 C1126.74,726.4483 1132.75,729.5383 1138.7,732.7883" fill="none" id="BaseError-backto-DatabaseError" style="stroke:#000000;stroke-width:2;"/><polygon fill="none" points="910.8,649.0483,923.8659,662.8062,929.5075,652.2151,910.8,649.0483" style="stroke:#000000;stroke-width:2;"/></g><!--reverse link BaseError to AuthenticationError--><g class="link" data-entity-1="BaseError" data-entity-2="AuthenticationError" data-source-line="86" data-uid="lnk16" id="link_BaseError_AuthenticationError"><path codeLine="86" d="M599.6008,675.226 C569.5908,703.006 553.02,718.3583 529.95,739.7183" fill="none" id="BaseError-backto-AuthenticationError" style="stroke:#000000;stroke-width:2;"/><polygon fill="none" points="612.81,662.9983,595.5249,670.8229,603.6767,679.629,612.81,662.9983" style="stroke:#000000;stroke-width:2;"/></g><!--reverse link BaseError to AuthorizationError--><g class="link" data-entity-1="BaseError" data-entity-2="AuthorizationError" data-source-line="87" data-uid="lnk17" id="link_BaseError_AuthorizationError"><path codeLine="87" d="M806.9381,679.4257 C816.3981,700.5457 818.45,705.1283 826.62,723.3783" fill="none" id="BaseError-backto-AuthorizationError" style="stroke:#000000;stroke-width:2;"/><polygon fill="none" points="799.58,662.9983,801.4623,681.8783,812.4139,676.973,799.58,662.9983" style="stroke:#000000;stroke-width:2;"/></g><!--reverse link BaseError to TimeoutError--><g class="link" data-entity-1="BaseError" data-entity-2="TimeoutError" data-source-line="88" data-uid="lnk18" id="link_BaseError_TimeoutError"><path codeLine="88" d="M562.7315,658.6224 C553.7015,662.9124 560.88,659.1483 551.83,662.6783 C409.99,717.8983 359.34,675.8683 214.83,723.6783 C201.63,728.0383 188.03,733.6883 175.03,739.7083" fill="none" id="BaseError-backto-TimeoutError" style="stroke:#000000;stroke-width:2;"/><polygon fill="none" points="578.99,650.8983,560.1568,653.2029,565.3062,664.0419,578.99,650.8983" style="stroke:#000000;stroke-width:2;"/></g><!--reverse link BaseError to ConflictError--><g class="link" data-entity-1="BaseError" data-entity-2="ConflictError" data-source-line="89" data-uid="lnk19" id="link_BaseError_ConflictError"><path codeLine="89" d="M907.1235,674.4425 C932.7635,695.5625 944.37,705.1283 966.52,723.3783" fill="none" id="BaseError-backto-ConflictError" style="stroke:#000000;stroke-width:2;"/><polygon fill="none" points="893.23,662.9983,903.3087,679.0737,910.9382,669.8114,893.23,662.9983" style="stroke:#000000;stroke-width:2;"/></g><!--link ErrorHandler to BaseError--><g class="link" data-entity-1="ErrorHandler" data-entity-2="BaseError" data-source-line="91" data-uid="lnk20" id="link_ErrorHandler_BaseError"><path codeLine="91" d="M1487.04,241.1383 C1445.49,273.7883 1386.38,315.3583 1327.83,339.8183 C1164.8,407.9183 1101.96,351.4183 937.83,416.8183 C928.81,420.4083 925.1579,421.8394 916.1479,426.1694" fill="none" id="ErrorHandler-to-BaseError" style="stroke:#000000;stroke-width:2;"/><polygon fill="#000000" points="910.74,428.7683,920.5845,428.4752,915.2466,426.6025,917.1193,421.2646,910.74,428.7683" style="stroke:#000000;stroke-width:2;"/><text fill="#000000" font-family="sans-serif" font-size="13" lengthAdjust="spacing" textLength="49.1245" x="1225.98" y="383.3866">handles</text></g><!--link Functions to BaseError--><g class="link" data-entity-1="Functions" data-entity-2="BaseError" data-source-line="112" data-uid="lnk22" id="link_Functions_BaseError"><path codeLine="112" d="M646.6,340.2183 C659.19,365.6583 669.4885,386.4909 681.7085,411.1809" fill="none" id="Functions-to-BaseError" style="stroke:#000000;stroke-width:2;"/><polygon fill="#000000" points="684.37,416.5583,683.9627,406.7178,682.1521,412.0771,676.7928,410.2665,684.37,416.5583" style="stroke:#000000;stroke-width:2;"/><text fill="#000000" font-family="sans-serif" font-size="13" lengthAdjust="spacing" textLength="45.1318" x="670.57" y="383.3866">creates</text></g><!--link Functions to ValidationError--><g class="link" data-entity-1="Functions" data-entity-2="ValidationError" data-source-line="113" data-uid="lnk23" id="link_Functions_ValidationError"><path codeLine="113" d="M514.15,340.0583 C484.63,436.4783 464.86,562.7383 514.83,662.6783 C520.37,673.7683 565.7426,707.0304 607.7526,736.4004" fill="none" id="Functions-to-ValidationError" style="stroke:#000000;stroke-width:2;"/><polygon fill="#000000" points="612.67,739.8383,607.5858,731.4032,608.5721,736.9734,603.002,737.9598,612.67,739.8383" style="stroke:#000000;stroke-width:2;"/><text fill="#000000" font-family="sans-serif" font-size="13" lengthAdjust="spacing" textLength="45.1318" x="515.83" y="544.8166">creates</text></g><!--link Functions to NotFoundError--><g class="link" data-entity-1="Functions" data-entity-2="NotFoundError" data-source-line="114" data-uid="lnk24" id="link_Functions_NotFoundError"><path codeLine="114" d="M379.53,340.0283 C358.71,363.5083 340.26,389.2483 326.83,416.8183 C278.5,516.0383 283.3677,642.9061 291.7477,717.2261" fill="none" id="Functions-to-NotFoundError" style="stroke:#000000;stroke-width:2;"/><polygon fill="#000000" points="292.42,723.1883,295.3864,713.7968,291.8598,718.2198,287.4368,714.6931,292.42,723.1883" style="stroke:#000000;stroke-width:2;"/><text fill="#000000" font-family="sans-serif" font-size="13" lengthAdjust="spacing" textLength="45.1318" x="327.83" y="544.8166">creates</text></g><!--link Functions to DatabaseError--><g class="link" data-entity-1="Functions" data-entity-2="DatabaseError" data-source-line="115" data-uid="lnk25" id="link_Functions_DatabaseError"><path codeLine="115" d="M930.68,284.4483 C999.54,316.4583 1065.26,359.3783 1113.83,416.8183 C1188.67,505.3183 1206.0559,639.8455 1209.8659,717.4855" fill="none" id="Functions-to-DatabaseError" style="stroke:#000000;stroke-width:2;"/><polygon fill="#000000" points="1210.16,723.4783,1213.7141,714.293,1209.9149,718.4843,1205.7237,714.6852,1210.16,723.4783" style="stroke:#000000;stroke-width:2;"/><text fill="#000000" font-family="sans-serif" font-size="13" lengthAdjust="spacing" textLength="45.1318" x="1205.73" y="544.8166">creates</text></g><!--link Functions to AuthenticationError--><g class="link" data-entity-1="Functions" data-entity-2="AuthenticationError" data-source-line="116" data-uid="lnk26" id="link_Functions_AuthenticationError"><path codeLine="116" d="M444.36,340.0183 C428.99,364.2983 415.65,390.2583 406.83,416.8183 C372.39,520.5183 374.55,558.2783 406.83,662.6783 C415.59,690.9983 430.1032,713.8761 446.9532,735.1361" fill="none" id="Functions-to-AuthenticationError" style="stroke:#000000;stroke-width:2;"/><polygon fill="#000000" points="450.68,739.8383,448.2246,730.3004,447.5743,735.9198,441.955,735.2695,450.68,739.8383" style="stroke:#000000;stroke-width:2;"/><text fill="#000000" font-family="sans-serif" font-size="13" lengthAdjust="spacing" textLength="45.1318" x="407.83" y="544.8166">creates</text></g><!--link Functions to AuthorizationError--><g class="link" data-entity-1="Functions" data-entity-2="AuthorizationError" data-source-line="117" data-uid="lnk27" id="link_Functions_AuthorizationError"><path codeLine="117" d="M866.68,340.1183 C890.86,362.6783 912.04,388.1683 927.83,416.8183 C980.57,512.5183 958.88,557.9083 927.83,662.6783 C921.5,684.0383 913.242,700.1752 900.982,718.4552" fill="none" id="Functions-to-AuthorizationError" style="stroke:#000000;stroke-width:2;"/><polygon fill="#000000" points="897.64,723.4383,905.9751,718.1917,900.425,719.2857,899.331,713.7357,897.64,723.4383" style="stroke:#000000;stroke-width:2;"/><text fill="#000000" font-family="sans-serif" font-size="13" lengthAdjust="spacing" textLength="45.1318" x="960.76" y="544.8166">creates</text></g><!--link Functions to TimeoutError--><g class="link" data-entity-1="Functions" data-entity-2="TimeoutError" data-source-line="118" data-uid="lnk28" id="link_Functions_TimeoutError"><path codeLine="118" d="M308.97,340.1083 C280.49,363.2083 253.91,388.8283 231.83,416.8183 C152.99,516.7683 120.5339,662.6312 108.5439,734.0112" fill="none" id="Functions-to-TimeoutError" style="stroke:#000000;stroke-width:2;"/><polygon fill="#000000" points="107.55,739.9283,112.9856,731.7152,108.3783,734.9974,105.0961,730.39,107.55,739.9283" style="stroke:#000000;stroke-width:2;"/><text fill="#000000" font-family="sans-serif" font-size="13" lengthAdjust="spacing" textLength="45.1318" x="232.83" y="544.8166">creates</text></g><!--link Functions to ConflictError--><g class="link" data-entity-1="Functions" data-entity-2="ConflictError" data-source-line="119" data-uid="lnk29" id="link_Functions_ConflictError"><path codeLine="119" d="M930.68,327.4583 C963.61,352.5583 992.81,382.1083 1014.83,416.8183 C1074.39,510.7083 1062.4966,641.3957 1048.6366,717.3857" fill="none" id="Functions-to-ConflictError" style="stroke:#000000;stroke-width:2;"/><polygon fill="#000000" points="1047.56,723.2883,1053.11,715.1521,1048.4572,718.3694,1045.2398,713.7166,1047.56,723.2883" style="stroke:#000000;stroke-width:2;"/><text fill="#000000" font-family="sans-serif" font-size="13" lengthAdjust="spacing" textLength="45.1318" x="1060.25" y="544.8166">creates</text></g><!--SRC=[jLPDRzim3BtxLmZTeItI5CEEnJ2WpSTMeEk6jTWEmmwAhIH252kGv7uk_tsq5DiY8sU7OQT4r1CVHJxIEcPZCPUbO6ufc7NFIjZChcIvuOQlMQwujPVE6JchdBZETNadNmHxIo5NsXJ2t2zblYg5jUnT6Z3IIXisKpnVxG70jZ2wAei0UZETJ2UZoLuinkZ70sxyVXn7vgHJWjq9yo1pSIDdR08GOzbNECqNWetgOsmi-GASPDbnd0zPEc7cF1UMyR88392VrioEHEtiY77BFchlcBrcZ0tytvDJIAYHvIBRPfa_ouucBVwAMz6T6EQw41SD7jPh21_2Yqs5S5mgUy7MVFCpc7-reRnklHTUMJZZewhNri4j8nyqCB2CW1WPFWTcP1i7Qh3rSWz6DJSW6lB1NKsEtFoGRjcuMeddtSuPU-2gYhBzkZqDLOeIzvqhMN0dTTcbaDX28kTIg2A-yhGsf6fngzsq5bpd45c2Er62W9xZCiYYjW6DGOdrE7JRwnQOOXzpnsUD1ZmxiWHslH76Np0E050g5iRWIuD2zFSrBCLyMO6s8RASf3DX3r4OmIqAOV3DM_gSQoDV4hwnkN5jTMLof7EUani3NK2X-rtc-CfT3FToBNJbElRO47YBgichWxtpyMxfjLwroSHx7S58btCbyuW1MVwpSZp79nX8IWJos13cJrY4PeT-33rvoY2F6rrQKKDkz2Biv-w9mM1tuicTZyBl6LDwiG1dD_xdZ7K-V1iRwNRE7zdIkSrvuzZlOFoMp5GZb4-dNSgDpPgf-VxtSDYDnAmRZdw3D3hTHcrBDr5NqSs4v5CGh5oAYDL5zv0kiWnLQZZy47q5BjZIsot9rxmglT1jK_vfO_2rRrUXyAymyU4wMtOh7dVbXVdU3jhTLwLT- -z5euv9CxXZ9oJr9zI37xTfVxHgn3EgsfxVq3tjickTD1UM06524jXZQcTiQ_43Dis3rKHu4chQOmkpDEqyfSO41LPZWY4CozOGvca_9L4tOOpLlSVLZ54yAGa7wW_Y7VN7lue0DrlCT6sfZgEfEDDQ4JJMvc4iLjTXR4eXVpz12dxu0AhNOIXEFiN2uEw62vrLEUZOmQp22FeWwyFXTrOV2h-7-b2fLyiXB7c5z47Haw4FXB_w7UeF]--></g></svg>