<svg xmlns="http://www.w3.org/2000/svg" xmlns:xlink="http://www.w3.org/1999/xlink" contentStyleType="text/css" data-diagram-type="SEQUENCE" height="1083px" preserveAspectRatio="none" style="width:1355px;height:1083px;background:#FFFFFF;" version="1.1" viewBox="0 0 1355 1083" width="1355px" zoomAndPan="magnify"><title>HTTP Request Processing Sequence</title><defs/><g><text fill="#000000" font-family="sans-serif" font-size="14" font-weight="bold" lengthAdjust="spacing" textLength="256.8809" x="548.095" y="28.5352">HTTP Request Processing Sequence</text><g><title>HTTP Server</title><rect fill="#FFFFFF" height="834.3398" style="stroke:#181818;stroke-width:1;" width="10" x="149.2397" y="150.2871"/></g><g><title>Middleware Chain</title><rect fill="#FFFFFF" height="775.7188" style="stroke:#181818;stroke-width:1;" width="10" x="280.4434" y="179.5977"/></g><g><title>Request ID Middleware</title><rect fill="#FFFFFF" height="113.9316" style="stroke:#181818;stroke-width:1;" width="10" x="442.5532" y="208.9082"/></g><g><title>Logging Middleware</title><rect fill="#FFFFFF" height="87.9316" style="stroke:#181818;stroke-width:1;" width="10" x="612.7363" y="352.1504"/></g><g><title>Logging Middleware</title><rect fill="#FFFFFF" height="87.9316" style="stroke:#181818;stroke-width:1;" width="10" x="612.7363" y="838.0742"/></g><g><title>Recovery Middleware</title><rect fill="#FFFFFF" height="339.3711" style="stroke:#181818;stroke-width:1;" width="10" x="776.5381" y="469.3926"/></g><g><title>Application Handler</title><rect fill="#FFFFFF" height="288.75" style="stroke:#181818;stroke-width:1;" width="10" x="939.0068" y="498.7031"/></g><g><title>Context Logger</title><rect fill="#FFFFFF" height="29.3105" style="stroke:#181818;stroke-width:1;" width="10" x="1082.8511" y="381.4609"/></g><g><title>Context Logger</title><rect fill="#FFFFFF" height="29.3105" style="stroke:#181818;stroke-width:1;" width="10" x="1082.8511" y="684.5215"/></g><g><title>Context Logger</title><rect fill="#FFFFFF" height="29.3105" style="stroke:#181818;stroke-width:1;" width="10" x="1082.8511" y="867.3848"/></g><g><title>Error Handler</title><rect fill="#FFFFFF" height="87.9316" style="stroke:#181818;stroke-width:1;" width="10" x="1204.957" y="655.2109"/></g><g><title>Database</title><rect fill="#FFFFFF" height="29.3105" style="stroke:#181818;stroke-width:1;" width="10" x="1305.7383" y="528.0137"/></g><rect fill="none" height="208.1289" style="stroke:#000000;stroke-width:2;" width="579.1494" x="693.2563" y="572.3242"/><g><title>Client</title><rect fill="#000000" fill-opacity="0.00000" height="883.6504" width="8" x="23.7524" y="118.9766"/><line style="stroke:#181818;stroke-width:0.5;stroke-dasharray:5.0,5.0;" x1="27" x2="27" y1="118.9766" y2="1002.627"/></g><g><title>HTTP Server</title><rect fill="#000000" fill-opacity="0.00000" height="883.6504" width="8" x="150.2397" y="118.9766"/><line style="stroke:#181818;stroke-width:0.5;stroke-dasharray:5.0,5.0;" x1="154.2378" x2="154.2378" y1="118.9766" y2="1002.627"/></g><g><title>Middleware Chain</title><rect fill="#000000" fill-opacity="0.00000" height="883.6504" width="8" x="281.4434" y="118.9766"/><line style="stroke:#181818;stroke-width:0.5;stroke-dasharray:5.0,5.0;" x1="284.9966" x2="284.9966" y1="118.9766" y2="1002.627"/></g><g><title>Request ID Middleware</title><rect fill="#000000" fill-opacity="0.00000" height="883.6504" width="8" x="443.5532" y="118.9766"/><line style="stroke:#181818;stroke-width:0.5;stroke-dasharray:5.0,5.0;" x1="446.8901" x2="446.8901" y1="118.9766" y2="1002.627"/></g><g><title>Logging Middleware</title><rect fill="#000000" fill-opacity="0.00000" height="883.6504" width="8" x="613.7363" y="118.9766"/><line style="stroke:#181818;stroke-width:0.5;stroke-dasharray:5.0,5.0;" x1="617.2163" x2="617.2163" y1="118.9766" y2="1002.627"/></g><g><title>Recovery Middleware</title><rect fill="#000000" fill-opacity="0.00000" height="883.6504" width="8" x="777.5381" y="118.9766"/><line style="stroke:#181818;stroke-width:0.5;stroke-dasharray:5.0,5.0;" x1="781.2563" x2="781.2563" y1="118.9766" y2="1002.627"/></g><g><title>Application Handler</title><rect fill="#000000" fill-opacity="0.00000" height="883.6504" width="8" x="940.0068" y="118.9766"/><line style="stroke:#181818;stroke-width:0.5;stroke-dasharray:5.0,5.0;" x1="943.8198" x2="943.8198" y1="118.9766" y2="1002.627"/></g><g><title>Context Logger</title><rect fill="#000000" fill-opacity="0.00000" height="883.6504" width="8" x="1083.8511" y="118.9766"/><line style="stroke:#181818;stroke-width:0.5;stroke-dasharray:5.0,5.0;" x1="1087.1938" x2="1087.1938" y1="118.9766" y2="1002.627"/></g><g><title>Error Handler</title><rect fill="#000000" fill-opacity="0.00000" height="883.6504" width="8" x="1205.957" y="118.9766"/><line style="stroke:#181818;stroke-width:0.5;stroke-dasharray:5.0,5.0;" x1="1209.5083" x2="1209.5083" y1="118.9766" y2="1002.627"/></g><g><title>Database</title><rect fill="#000000" fill-opacity="0.00000" height="883.6504" width="8" x="1306.7383" y="118.9766"/><line style="stroke:#181818;stroke-width:0.5;stroke-dasharray:5.0,5.0;" x1="1310.4058" x2="1310.4058" y1="118.9766" y2="1002.627"/></g><g class="participant participant-head" data-participant="Client"><text fill="#000000" font-family="sans-serif" font-size="14" lengthAdjust="spacing" textLength="39.5049" x="5" y="116.0234">Client</text><ellipse cx="27.7524" cy="50.9883" fill="#E2E2F0" rx="8" ry="8" style="stroke:#181818;stroke-width:0.5;"/><path d="M27.7524,58.9883 L27.7524,85.9883 M14.7524,66.9883 L40.7524,66.9883 M27.7524,85.9883 L14.7524,100.9883 M27.7524,85.9883 L40.7524,100.9883" fill="none" style="stroke:#181818;stroke-width:0.5;"/></g><g class="participant participant-tail" data-participant="Client"><text fill="#000000" font-family="sans-serif" font-size="14" lengthAdjust="spacing" textLength="39.5049" x="5" y="1015.1621">Client</text><ellipse cx="27.7524" cy="1026.6152" fill="#E2E2F0" rx="8" ry="8" style="stroke:#181818;stroke-width:0.5;"/><path d="M27.7524,1034.6152 L27.7524,1061.6152 M14.7524,1042.6152 L40.7524,1042.6152 M27.7524,1061.6152 L14.7524,1076.6152 M27.7524,1061.6152 L40.7524,1076.6152" fill="none" style="stroke:#181818;stroke-width:0.5;"/></g><g class="participant participant-head" data-participant="Server"><rect fill="#FEFECE" height="30.4883" rx="2.5" ry="2.5" style="stroke:#000000;stroke-width:2;" width="96.0039" x="106.2378" y="87.4883"/><text fill="#000000" font-family="sans-serif" font-size="14" lengthAdjust="spacing" textLength="82.0039" x="113.2378" y="108.0234">HTTP Server</text></g><g class="participant participant-tail" data-participant="Server"><rect fill="#FEFECE" height="30.4883" rx="2.5" ry="2.5" style="stroke:#000000;stroke-width:2;" width="96.0039" x="106.2378" y="1001.627"/><text fill="#000000" font-family="sans-serif" font-size="14" lengthAdjust="spacing" textLength="82.0039" x="113.2378" y="1022.1621">HTTP Server</text></g><g class="participant participant-head" data-participant="Middleware"><rect fill="#FEFECE" height="30.4883" rx="2.5" ry="2.5" style="stroke:#000000;stroke-width:2;" width="134.8936" x="217.9966" y="87.4883"/><text fill="#000000" font-family="sans-serif" font-size="14" lengthAdjust="spacing" textLength="120.8936" x="224.9966" y="108.0234">Middleware Chain</text></g><g class="participant participant-tail" data-participant="Middleware"><rect fill="#FEFECE" height="30.4883" rx="2.5" ry="2.5" style="stroke:#000000;stroke-width:2;" width="134.8936" x="217.9966" y="1001.627"/><text fill="#000000" font-family="sans-serif" font-size="14" lengthAdjust="spacing" textLength="120.8936" x="224.9966" y="1022.1621">Middleware Chain</text></g><g class="participant participant-head" data-participant="RequestID"><rect fill="#FEFECE" height="30.4883" rx="2.5" ry="2.5" style="stroke:#000000;stroke-width:2;" width="169.3262" x="362.8901" y="87.4883"/><text fill="#000000" font-family="sans-serif" font-size="14" lengthAdjust="spacing" textLength="155.3262" x="369.8901" y="108.0234">Request ID Middleware</text></g><g class="participant participant-tail" data-participant="RequestID"><rect fill="#FEFECE" height="30.4883" rx="2.5" ry="2.5" style="stroke:#000000;stroke-width:2;" width="169.3262" x="362.8901" y="1001.627"/><text fill="#000000" font-family="sans-serif" font-size="14" lengthAdjust="spacing" textLength="155.3262" x="369.8901" y="1022.1621">Request ID Middleware</text></g><g class="participant participant-head" data-participant="LoggingMW"><rect fill="#FEFECE" height="30.4883" rx="2.5" ry="2.5" style="stroke:#000000;stroke-width:2;" width="151.04" x="542.2163" y="87.4883"/><text fill="#000000" font-family="sans-serif" font-size="14" lengthAdjust="spacing" textLength="137.04" x="549.2163" y="108.0234">Logging Middleware</text></g><g class="participant participant-tail" data-participant="LoggingMW"><rect fill="#FEFECE" height="30.4883" rx="2.5" ry="2.5" style="stroke:#000000;stroke-width:2;" width="151.04" x="542.2163" y="1001.627"/><text fill="#000000" font-family="sans-serif" font-size="14" lengthAdjust="spacing" textLength="137.04" x="549.2163" y="1022.1621">Logging Middleware</text></g><g class="participant participant-head" data-participant="Recovery"><rect fill="#FEFECE" height="30.4883" rx="2.5" ry="2.5" style="stroke:#000000;stroke-width:2;" width="156.5635" x="703.2563" y="87.4883"/><text fill="#000000" font-family="sans-serif" font-size="14" lengthAdjust="spacing" textLength="142.5635" x="710.2563" y="108.0234">Recovery Middleware</text></g><g class="participant participant-tail" data-participant="Recovery"><rect fill="#FEFECE" height="30.4883" rx="2.5" ry="2.5" style="stroke:#000000;stroke-width:2;" width="156.5635" x="703.2563" y="1001.627"/><text fill="#000000" font-family="sans-serif" font-size="14" lengthAdjust="spacing" textLength="142.5635" x="710.2563" y="1022.1621">Recovery Middleware</text></g><g class="participant participant-head" data-participant="Handler"><rect fill="#FEFECE" height="30.4883" rx="2.5" ry="2.5" style="stroke:#000000;stroke-width:2;" width="148.374" x="869.8198" y="87.4883"/><text fill="#000000" font-family="sans-serif" font-size="14" lengthAdjust="spacing" textLength="134.374" x="876.8198" y="108.0234">Application Handler</text></g><g class="participant participant-tail" data-participant="Handler"><rect fill="#FEFECE" height="30.4883" rx="2.5" ry="2.5" style="stroke:#000000;stroke-width:2;" width="148.374" x="869.8198" y="1001.627"/><text fill="#000000" font-family="sans-serif" font-size="14" lengthAdjust="spacing" textLength="134.374" x="876.8198" y="1022.1621">Application Handler</text></g><g class="participant participant-head" data-participant="Logger"><rect fill="#FEFECE" height="30.4883" rx="2.5" ry="2.5" style="stroke:#000000;stroke-width:2;" width="119.3145" x="1028.1938" y="87.4883"/><text fill="#000000" font-family="sans-serif" font-size="14" lengthAdjust="spacing" textLength="105.3145" x="1035.1938" y="108.0234">Context Logger</text></g><g class="participant participant-tail" data-participant="Logger"><rect fill="#FEFECE" height="30.4883" rx="2.5" ry="2.5" style="stroke:#000000;stroke-width:2;" width="119.3145" x="1028.1938" y="1001.627"/><text fill="#000000" font-family="sans-serif" font-size="14" lengthAdjust="spacing" textLength="105.3145" x="1035.1938" y="1022.1621">Context Logger</text></g><g class="participant participant-head" data-participant="ErrorHandler"><rect fill="#FEFECE" height="30.4883" rx="2.5" ry="2.5" style="stroke:#000000;stroke-width:2;" width="104.8975" x="1157.5083" y="87.4883"/><text fill="#000000" font-family="sans-serif" font-size="14" lengthAdjust="spacing" textLength="90.8975" x="1164.5083" y="108.0234">Error Handler</text></g><g class="participant participant-tail" data-participant="ErrorHandler"><rect fill="#FEFECE" height="30.4883" rx="2.5" ry="2.5" style="stroke:#000000;stroke-width:2;" width="104.8975" x="1157.5083" y="1001.627"/><text fill="#000000" font-family="sans-serif" font-size="14" lengthAdjust="spacing" textLength="90.8975" x="1164.5083" y="1022.1621">Error Handler</text></g><g class="participant participant-head" data-participant="DB"><rect fill="#FEFECE" height="30.4883" rx="2.5" ry="2.5" style="stroke:#000000;stroke-width:2;" width="76.665" x="1272.4058" y="87.4883"/><text fill="#000000" font-family="sans-serif" font-size="14" lengthAdjust="spacing" textLength="62.665" x="1279.4058" y="108.0234">Database</text></g><g class="participant participant-tail" data-participant="DB"><rect fill="#FEFECE" height="30.4883" rx="2.5" ry="2.5" style="stroke:#000000;stroke-width:2;" width="76.665" x="1272.4058" y="1001.627"/><text fill="#000000" font-family="sans-serif" font-size="14" lengthAdjust="spacing" textLength="62.665" x="1279.4058" y="1022.1621">Database</text></g><g><title>HTTP Server</title><rect fill="#FFFFFF" height="834.3398" style="stroke:#181818;stroke-width:1;" width="10" x="149.2397" y="150.2871"/></g><g><title>Middleware Chain</title><rect fill="#FFFFFF" height="775.7188" style="stroke:#181818;stroke-width:1;" width="10" x="280.4434" y="179.5977"/></g><g><title>Request ID Middleware</title><rect fill="#FFFFFF" height="113.9316" style="stroke:#181818;stroke-width:1;" width="10" x="442.5532" y="208.9082"/></g><g><title>Logging Middleware</title><rect fill="#FFFFFF" height="87.9316" style="stroke:#181818;stroke-width:1;" width="10" x="612.7363" y="352.1504"/></g><g><title>Logging Middleware</title><rect fill="#FFFFFF" height="87.9316" style="stroke:#181818;stroke-width:1;" width="10" x="612.7363" y="838.0742"/></g><g><title>Recovery Middleware</title><rect fill="#FFFFFF" height="339.3711" style="stroke:#181818;stroke-width:1;" width="10" x="776.5381" y="469.3926"/></g><g><title>Application Handler</title><rect fill="#FFFFFF" height="288.75" style="stroke:#181818;stroke-width:1;" width="10" x="939.0068" y="498.7031"/></g><g><title>Context Logger</title><rect fill="#FFFFFF" height="29.3105" style="stroke:#181818;stroke-width:1;" width="10" x="1082.8511" y="381.4609"/></g><g><title>Context Logger</title><rect fill="#FFFFFF" height="29.3105" style="stroke:#181818;stroke-width:1;" width="10" x="1082.8511" y="684.5215"/></g><g><title>Context Logger</title><rect fill="#FFFFFF" height="29.3105" style="stroke:#181818;stroke-width:1;" width="10" x="1082.8511" y="867.3848"/></g><g><title>Error Handler</title><rect fill="#FFFFFF" height="87.9316" style="stroke:#181818;stroke-width:1;" width="10" x="1204.957" y="655.2109"/></g><g><title>Database</title><rect fill="#FFFFFF" height="29.3105" style="stroke:#181818;stroke-width:1;" width="10" x="1305.7383" y="528.0137"/></g><g class="message" data-participant-1="Client" data-participant-2="Server"><polygon fill="#181818" points="137.2397,146.2871,147.2397,150.2871,137.2397,154.2871,141.2397,150.2871" style="stroke:#181818;stroke-width:1;"/><line style="stroke:#181818;stroke-width:2;" x1="27.7524" x2="143.2397" y1="150.2871" y2="150.2871"/><text fill="#000000" font-family="sans-serif" font-size="13" lengthAdjust="spacing" textLength="87.7373" x="34.7524" y="145.5449">HTTP Request</text></g><g class="message" data-participant-1="Server" data-participant-2="Middleware"><polygon fill="#181818" points="268.4434,175.5977,278.4434,179.5977,268.4434,183.5977,272.4434,179.5977" style="stroke:#181818;stroke-width:1;"/><line style="stroke:#181818;stroke-width:2;" x1="159.2397" x2="274.4434" y1="179.5977" y2="179.5977"/><text fill="#000000" font-family="sans-serif" font-size="13" lengthAdjust="spacing" textLength="102.2036" x="166.2397" y="174.8555">Process Request</text></g><g class="message" data-participant-1="Middleware" data-participant-2="RequestID"><polygon fill="#181818" points="430.5532,204.9082,440.5532,208.9082,430.5532,212.9082,434.5532,208.9082" style="stroke:#181818;stroke-width:1;"/><line style="stroke:#181818;stroke-width:2;" x1="290.4434" x2="436.5532" y1="208.9082" y2="208.9082"/><text fill="#000000" font-family="sans-serif" font-size="13" lengthAdjust="spacing" textLength="97.4873" x="297.4434" y="204.166">Add Request ID</text></g><g class="message" data-participant-1="RequestID" data-participant-2="RequestID"><line style="stroke:#181818;stroke-width:2;" x1="452.5532" x2="494.5532" y1="238.2188" y2="238.2188"/><line style="stroke:#181818;stroke-width:2;" x1="494.5532" x2="494.5532" y1="238.2188" y2="251.2188"/><line style="stroke:#181818;stroke-width:2;" x1="453.5532" x2="494.5532" y1="251.2188" y2="251.2188"/><polygon fill="#181818" points="463.5532,247.2188,453.5532,251.2188,463.5532,255.2188,459.5532,251.2188" style="stroke:#181818;stroke-width:1;"/><text fill="#000000" font-family="sans-serif" font-size="13" lengthAdjust="spacing" textLength="92.1616" x="459.5532" y="233.4766">Generate UUID</text></g><g class="message" data-participant-1="RequestID" data-participant-2="RequestID"><line style="stroke:#181818;stroke-width:2;" x1="452.5532" x2="494.5532" y1="280.5293" y2="280.5293"/><line style="stroke:#181818;stroke-width:2;" x1="494.5532" x2="494.5532" y1="280.5293" y2="293.5293"/><line style="stroke:#181818;stroke-width:2;" x1="453.5532" x2="494.5532" y1="293.5293" y2="293.5293"/><polygon fill="#181818" points="463.5532,289.5293,453.5532,293.5293,463.5532,297.5293,459.5532,293.5293" style="stroke:#181818;stroke-width:1;"/><text fill="#000000" font-family="sans-serif" font-size="13" lengthAdjust="spacing" textLength="96.3955" x="459.5532" y="275.7871">Add to Context</text></g><g class="message" data-participant-1="RequestID" data-participant-2="Middleware"><polygon fill="#181818" points="301.4434,318.8398,291.4434,322.8398,301.4434,326.8398,297.4434,322.8398" style="stroke:#181818;stroke-width:1;"/><line style="stroke:#181818;stroke-width:2;stroke-dasharray:2.0,2.0;" x1="295.4434" x2="446.5532" y1="322.8398" y2="322.8398"/><text fill="#000000" font-family="sans-serif" font-size="13" lengthAdjust="spacing" textLength="98.8584" x="307.4434" y="318.0977">Request with ID</text></g><g class="message" data-participant-1="Middleware" data-participant-2="LoggingMW"><polygon fill="#181818" points="600.7363,348.1504,610.7363,352.1504,600.7363,356.1504,604.7363,352.1504" style="stroke:#181818;stroke-width:1;"/><line style="stroke:#181818;stroke-width:2;" x1="290.4434" x2="606.7363" y1="352.1504" y2="352.1504"/><text fill="#000000" font-family="sans-serif" font-size="13" lengthAdjust="spacing" textLength="77.5811" x="297.4434" y="347.4082">Log Request</text></g><g class="message" data-participant-1="LoggingMW" data-participant-2="Logger"><polygon fill="#181818" points="1070.8511,377.4609,1080.8511,381.4609,1070.8511,385.4609,1074.8511,381.4609" style="stroke:#181818;stroke-width:1;"/><line style="stroke:#181818;stroke-width:2;" x1="622.7363" x2="1076.8511" y1="381.4609" y2="381.4609"/><text fill="#000000" font-family="sans-serif" font-size="13" lengthAdjust="spacing" textLength="124.8584" x="629.7363" y="376.7188">Log Request Details</text></g><g class="message" data-participant-1="Logger" data-participant-2="LoggingMW"><polygon fill="#181818" points="633.7363,406.7715,623.7363,410.7715,633.7363,414.7715,629.7363,410.7715" style="stroke:#181818;stroke-width:1;"/><line style="stroke:#181818;stroke-width:2;stroke-dasharray:2.0,2.0;" x1="627.7363" x2="1086.8511" y1="410.7715" y2="410.7715"/><text fill="#000000" font-family="sans-serif" font-size="13" lengthAdjust="spacing" textLength="46.5537" x="639.7363" y="406.0293">Logged</text></g><g class="message" data-participant-1="LoggingMW" data-participant-2="Middleware"><polygon fill="#181818" points="301.4434,436.082,291.4434,440.082,301.4434,444.082,297.4434,440.082" style="stroke:#181818;stroke-width:1;"/><line style="stroke:#181818;stroke-width:2;stroke-dasharray:2.0,2.0;" x1="295.4434" x2="616.7363" y1="440.082" y2="440.082"/><text fill="#000000" font-family="sans-serif" font-size="13" lengthAdjust="spacing" textLength="101.1118" x="307.4434" y="435.3398">Logged Request</text></g><g class="message" data-participant-1="Middleware" data-participant-2="Recovery"><polygon fill="#181818" points="764.5381,465.3926,774.5381,469.3926,764.5381,473.3926,768.5381,469.3926" style="stroke:#181818;stroke-width:1;"/><line style="stroke:#181818;stroke-width:2;" x1="290.4434" x2="770.5381" y1="469.3926" y2="469.3926"/><text fill="#000000" font-family="sans-serif" font-size="13" lengthAdjust="spacing" textLength="87.5723" x="297.4434" y="464.6504">Handle Panics</text></g><g class="message" data-participant-1="Recovery" data-participant-2="Handler"><polygon fill="#181818" points="927.0068,494.7031,937.0068,498.7031,927.0068,502.7031,931.0068,498.7031" style="stroke:#181818;stroke-width:1;"/><line style="stroke:#181818;stroke-width:2;" x1="786.5381" x2="933.0068" y1="498.7031" y2="498.7031"/><text fill="#000000" font-family="sans-serif" font-size="13" lengthAdjust="spacing" textLength="102.2036" x="793.5381" y="493.9609">Process Request</text></g><g class="message" data-participant-1="Handler" data-participant-2="DB"><polygon fill="#181818" points="1293.7383,524.0137,1303.7383,528.0137,1293.7383,532.0137,1297.7383,528.0137" style="stroke:#181818;stroke-width:1;"/><line style="stroke:#181818;stroke-width:2;" x1="949.0068" x2="1299.7383" y1="528.0137" y2="528.0137"/><text fill="#000000" font-family="sans-serif" font-size="13" lengthAdjust="spacing" textLength="70.5923" x="956.0068" y="523.2715">Query Data</text></g><g class="message" data-participant-1="DB" data-participant-2="Handler"><polygon fill="#181818" points="960.0068,553.3242,950.0068,557.3242,960.0068,561.3242,956.0068,557.3242" style="stroke:#181818;stroke-width:1;"/><line style="stroke:#181818;stroke-width:2;stroke-dasharray:2.0,2.0;" x1="954.0068" x2="1309.7383" y1="557.3242" y2="557.3242"/><text fill="#000000" font-family="sans-serif" font-size="13" lengthAdjust="spacing" textLength="74.8516" x="966.0068" y="552.582">Return Data</text></g><path d="M693.2563,572.3242 L755.395,572.3242 L755.395,579.6348 L745.395,589.6348 L693.2563,589.6348 L693.2563,572.3242" fill="#FEFECE" style="stroke:#000000;stroke-width:1.5;"/><rect fill="none" height="208.1289" style="stroke:#000000;stroke-width:2;" width="579.1494" x="693.2563" y="572.3242"/><text fill="#000000" font-family="sans-serif" font-size="13" font-weight="bold" lengthAdjust="spacing" textLength="17.1387" x="708.2563" y="585.8926">alt</text><text fill="#000000" font-family="sans-serif" font-size="11" font-weight="bold" lengthAdjust="spacing" textLength="52.2554" x="770.395" y="584.959">[Success]</text><g class="message" data-participant-1="Handler" data-participant-2="Recovery"><polygon fill="#181818" points="797.5381,606.9453,787.5381,610.9453,797.5381,614.9453,793.5381,610.9453" style="stroke:#181818;stroke-width:1;"/><line style="stroke:#181818;stroke-width:2;stroke-dasharray:2.0,2.0;" x1="791.5381" x2="938.0068" y1="610.9453" y2="610.9453"/><text fill="#000000" font-family="sans-serif" font-size="13" lengthAdjust="spacing" textLength="113.1914" x="803.5381" y="606.2031">Success Response</text></g><line style="stroke:#000000;stroke-width:1;stroke-dasharray:2.0,2.0;" x1="693.2563" x2="1272.4058" y1="619.9453" y2="619.9453"/><text fill="#000000" font-family="sans-serif" font-size="11" font-weight="bold" lengthAdjust="spacing" textLength="36.7866" x="698.2563" y="630.5801">[Error]</text><g class="message" data-participant-1="Handler" data-participant-2="ErrorHandler"><polygon fill="#181818" points="1192.957,651.2109,1202.957,655.2109,1192.957,659.2109,1196.957,655.2109" style="stroke:#181818;stroke-width:1;"/><line style="stroke:#181818;stroke-width:2;" x1="949.0068" x2="1198.957" y1="655.2109" y2="655.2109"/><text fill="#000000" font-family="sans-serif" font-size="13" lengthAdjust="spacing" textLength="79.0854" x="956.0068" y="650.4688">Handle Error</text></g><g class="message" data-participant-1="ErrorHandler" data-participant-2="Logger"><polygon fill="#181818" points="1103.8511,680.5215,1093.8511,684.5215,1103.8511,688.5215,1099.8511,684.5215" style="stroke:#181818;stroke-width:1;"/><line style="stroke:#181818;stroke-width:2;" x1="1097.8511" x2="1203.957" y1="684.5215" y2="684.5215"/><text fill="#000000" font-family="sans-serif" font-size="13" lengthAdjust="spacing" textLength="58.1255" x="1109.8511" y="679.7793">Log Error</text></g><g class="message" data-participant-1="Logger" data-participant-2="ErrorHandler"><polygon fill="#181818" points="1192.957,709.832,1202.957,713.832,1192.957,717.832,1196.957,713.832" style="stroke:#181818;stroke-width:1;"/><line style="stroke:#181818;stroke-width:2;stroke-dasharray:2.0,2.0;" x1="1087.8511" x2="1198.957" y1="713.832" y2="713.832"/><text fill="#000000" font-family="sans-serif" font-size="13" lengthAdjust="spacing" textLength="46.5537" x="1094.8511" y="709.0898">Logged</text></g><g class="message" data-participant-1="ErrorHandler" data-participant-2="Handler"><polygon fill="#181818" points="960.0068,739.1426,950.0068,743.1426,960.0068,747.1426,956.0068,743.1426" style="stroke:#181818;stroke-width:1;"/><line style="stroke:#181818;stroke-width:2;stroke-dasharray:2.0,2.0;" x1="954.0068" x2="1208.957" y1="743.1426" y2="743.1426"/><text fill="#000000" font-family="sans-serif" font-size="13" lengthAdjust="spacing" textLength="95.2974" x="966.0068" y="738.4004">Error Response</text></g><g class="message" data-participant-1="Handler" data-participant-2="Recovery"><polygon fill="#181818" points="797.5381,768.4531,787.5381,772.4531,797.5381,776.4531,793.5381,772.4531" style="stroke:#181818;stroke-width:1;"/><line style="stroke:#181818;stroke-width:2;stroke-dasharray:2.0,2.0;" x1="791.5381" x2="938.0068" y1="772.4531" y2="772.4531"/><text fill="#000000" font-family="sans-serif" font-size="13" lengthAdjust="spacing" textLength="95.2974" x="803.5381" y="767.7109">Error Response</text></g><g class="message" data-participant-1="Recovery" data-participant-2="Middleware"><polygon fill="#181818" points="301.4434,804.7637,291.4434,808.7637,301.4434,812.7637,297.4434,808.7637" style="stroke:#181818;stroke-width:1;"/><line style="stroke:#181818;stroke-width:2;stroke-dasharray:2.0,2.0;" x1="295.4434" x2="780.5381" y1="808.7637" y2="808.7637"/><text fill="#000000" font-family="sans-serif" font-size="13" lengthAdjust="spacing" textLength="60.1948" x="307.4434" y="804.0215">Response</text></g><g class="message" data-participant-1="Middleware" data-participant-2="LoggingMW"><polygon fill="#181818" points="600.7363,834.0742,610.7363,838.0742,600.7363,842.0742,604.7363,838.0742" style="stroke:#181818;stroke-width:1;"/><line style="stroke:#181818;stroke-width:2;" x1="290.4434" x2="606.7363" y1="838.0742" y2="838.0742"/><text fill="#000000" font-family="sans-serif" font-size="13" lengthAdjust="spacing" textLength="87.3311" x="297.4434" y="833.332">Log Response</text></g><g class="message" data-participant-1="LoggingMW" data-participant-2="Logger"><polygon fill="#181818" points="1070.8511,863.3848,1080.8511,867.3848,1070.8511,871.3848,1074.8511,867.3848" style="stroke:#181818;stroke-width:1;"/><line style="stroke:#181818;stroke-width:2;" x1="622.7363" x2="1076.8511" y1="867.3848" y2="867.3848"/><text fill="#000000" font-family="sans-serif" font-size="13" lengthAdjust="spacing" textLength="134.6084" x="629.7363" y="862.6426">Log Response Details</text></g><g class="message" data-participant-1="Logger" data-participant-2="LoggingMW"><polygon fill="#181818" points="633.7363,892.6953,623.7363,896.6953,633.7363,900.6953,629.7363,896.6953" style="stroke:#181818;stroke-width:1;"/><line style="stroke:#181818;stroke-width:2;stroke-dasharray:2.0,2.0;" x1="627.7363" x2="1086.8511" y1="896.6953" y2="896.6953"/><text fill="#000000" font-family="sans-serif" font-size="13" lengthAdjust="spacing" textLength="46.5537" x="639.7363" y="891.9531">Logged</text></g><g class="message" data-participant-1="LoggingMW" data-participant-2="Middleware"><polygon fill="#181818" points="301.4434,922.0059,291.4434,926.0059,301.4434,930.0059,297.4434,926.0059" style="stroke:#181818;stroke-width:1;"/><line style="stroke:#181818;stroke-width:2;stroke-dasharray:2.0,2.0;" x1="295.4434" x2="616.7363" y1="926.0059" y2="926.0059"/><text fill="#000000" font-family="sans-serif" font-size="13" lengthAdjust="spacing" textLength="110.8618" x="307.4434" y="921.2637">Logged Response</text></g><g class="message" data-participant-1="Middleware" data-participant-2="Server"><polygon fill="#181818" points="170.2397,951.3164,160.2397,955.3164,170.2397,959.3164,166.2397,955.3164" style="stroke:#181818;stroke-width:1;"/><line style="stroke:#181818;stroke-width:2;stroke-dasharray:2.0,2.0;" x1="164.2397" x2="284.4434" y1="955.3164" y2="955.3164"/><text fill="#000000" font-family="sans-serif" font-size="13" lengthAdjust="spacing" textLength="94.0405" x="176.2397" y="950.5742">Final Response</text></g><g class="message" data-participant-1="Server" data-participant-2="Client"><polygon fill="#181818" points="38.7524,980.627,28.7524,984.627,38.7524,988.627,34.7524,984.627" style="stroke:#181818;stroke-width:1;"/><line style="stroke:#181818;stroke-width:2;stroke-dasharray:2.0,2.0;" x1="32.7524" x2="153.2397" y1="984.627" y2="984.627"/><text fill="#000000" font-family="sans-serif" font-size="13" lengthAdjust="spacing" textLength="97.4873" x="44.7524" y="979.8848">HTTP Response</text></g><!--SRC=[lLInRjim4Dtv5OTqoDIbeuO0jcKd0Hh0ZHrqPgIhJ9WbLPAEcxylAL8KASbkkjIB2UgzktVtxdWB9VvW0i4S4BHvvwY9FZBHKaL_WiPV9nGLBfIIv_s1LKU1MiEN6SYzagTsALMDwiF0bUHImIkdrV4Yq7vhx47K7lnfizwiL-iP-9OgmohMKc4-8cC2loucXL-GH0mp7E5Xlz_2iwDf0ribAwk0YGPs8H8Xj3AMjk8CXI7j41XkEkuErHkg6w0w77FC4wjhZcUg45O7oaG772vpSA_ZiKmW7IDyUInpmbVPD4xj21skdxwFmrVI2doV1lVtENhHjfnLr30fu84AI_1LXdCENabXyBVfCWUSF-QmjPrCbKNhRcP3bjJGLwgzn799o6qs_Bq_tXZuV1VQNsIMElVO6pNOcqFylyCFNIXwvwUqn2gIU6dfqP825dKDWtS3UN0jdaRCUnIe7FJbvGhAnJSIGfDJsAYCNiIPcODJKkECbb4TSLWATvnsO1YcUEffhji9n_fZAECwvzgc-xzERPwjmJhLcC13db5zdX8rZgXUvSGcFzn563lOKi4gdPeKff_4_R2qC99N9gCVMX8EZbKk2_XsSY7Sz0vOExxbigicndr6SrB2uv8wtA1JRc1tgbnQ0lON4sJb18IzqQqK6WboZNwVSjPTjcIn3mCo9i-MqNr9ByQcp_23V-ukiJpF7bntcAdpqvnfo_ph4UiTXPY8ds_RA0YAcgJzZwuEmp3PiK3DbgkVeR_iLg3-st9vqd_Shcc15zOhUNKtJ50-oqsVqFxrjKJ_SCVdUieBB_OV]--></g></svg>