<svg xmlns="http://www.w3.org/2000/svg" xmlns:xlink="http://www.w3.org/1999/xlink" contentStyleType="text/css" data-diagram-type="CLASS" height="668px" preserveAspectRatio="none" style="width:1690px;height:668px;background:#FFFFFF;" version="1.1" viewBox="0 0 1690 668" width="1690px" zoomAndPan="magnify"><title>ServiceLib Package Diagram</title><defs/><g><g class="title" data-source-line="9"><text fill="#000000" font-family="sans-serif" font-size="14" font-weight="bold" lengthAdjust="spacing" textLength="202.3643" x="737.115" y="23.5352">ServiceLib Package Diagram</text></g><rect fill="#FEFECE" height="52.9766" rx="2.5" ry="2.5" style="stroke:#000000;stroke-width:0.5;" width="52.293" x="122.1" y="383.4183"/><text fill="#000000" font-family="sans-serif" font-size="14" font-weight="bold" lengthAdjust="spacing" textLength="32.293" x="132.1" y="398.9534">auth</text><rect fill="#FEFECE" height="52.9766" rx="2.5" ry="2.5" style="stroke:#000000;stroke-width:0.5;" width="60.5303" x="208.98" y="383.4183"/><text fill="#000000" font-family="sans-serif" font-size="14" font-weight="bold" lengthAdjust="spacing" textLength="40.5303" x="218.98" y="398.9534">cache</text><rect fill="#FEFECE" height="52.9766" rx="2.5" ry="2.5" style="stroke:#000000;stroke-width:0.5;" width="65.2402" x="304.63" y="383.4183"/><text fill="#000000" font-family="sans-serif" font-size="14" font-weight="bold" lengthAdjust="spacing" textLength="45.2402" x="314.63" y="398.9534">circuit</text><rect fill="#FEFECE" height="52.9766" rx="2.5" ry="2.5" style="stroke:#000000;stroke-width:0.5;" width="65.1787" x="576.66" y="44.4883"/><text fill="#000000" font-family="sans-serif" font-size="14" font-weight="bold" lengthAdjust="spacing" textLength="45.1787" x="586.66" y="60.0234">config</text><rect fill="#FEFECE" height="52.9766" rx="2.5" ry="2.5" style="stroke:#000000;stroke-width:0.5;" width="73.4092" x="676.54" y="44.4883"/><text fill="#000000" font-family="sans-serif" font-size="14" font-weight="bold" lengthAdjust="spacing" textLength="53.4092" x="686.54" y="60.0234">context</text><rect fill="#FEFECE" height="52.9766" rx="2.5" ry="2.5" style="stroke:#000000;stroke-width:0.5;" width="51.3838" x="784.56" y="44.4883"/><text fill="#000000" font-family="sans-serif" font-size="14" font-weight="bold" lengthAdjust="spacing" textLength="31.3838" x="794.56" y="60.0234">date</text><rect fill="#FEFECE" height="52.9766" rx="2.5" ry="2.5" style="stroke:#000000;stroke-width:0.5;" width="38.5527" x="473.97" y="270.4383"/><text fill="#000000" font-family="sans-serif" font-size="14" font-weight="bold" lengthAdjust="spacing" textLength="18.5527" x="483.97" y="285.9734">db</text><rect fill="#FEFECE" height="52.9766" rx="2.5" ry="2.5" style="stroke:#000000;stroke-width:0.5;" width="33.8291" x="871.33" y="44.4883"/><text fill="#000000" font-family="sans-serif" font-size="14" font-weight="bold" lengthAdjust="spacing" textLength="13.8291" x="881.33" y="60.0234">di</text><rect fill="#FEFECE" height="52.9766" rx="2.5" ry="2.5" style="stroke:#000000;stroke-width:0.5;" width="64.1533" x="497.17" y="496.3983"/><text fill="#000000" font-family="sans-serif" font-size="14" font-weight="bold" lengthAdjust="spacing" textLength="44.1533" x="507.17" y="511.9334">errors</text><rect fill="#FEFECE" height="52.9766" rx="2.5" ry="2.5" style="stroke:#000000;stroke-width:0.5;" width="76.1299" x="940.18" y="44.4883"/><text fill="#000000" font-family="sans-serif" font-size="14" font-weight="bold" lengthAdjust="spacing" textLength="56.1299" x="950.18" y="60.0234">graphql</text><rect fill="#FEFECE" height="52.9766" rx="2.5" ry="2.5" style="stroke:#000000;stroke-width:0.5;" width="65.0488" x="939.72" y="383.4183"/><text fill="#000000" font-family="sans-serif" font-size="14" font-weight="bold" lengthAdjust="spacing" textLength="45.0488" x="949.72" y="398.9534">health</text><rect fill="#FEFECE" height="52.9766" rx="2.5" ry="2.5" style="stroke:#000000;stroke-width:0.5;" width="74.9473" x="413.77" y="609.3683"/><text fill="#000000" font-family="sans-serif" font-size="14" font-weight="bold" lengthAdjust="spacing" textLength="54.9473" x="423.77" y="624.9034">logging</text><rect fill="#FEFECE" height="52.9766" rx="2.5" ry="2.5" style="stroke:#000000;stroke-width:0.5;" width="104.3145" x="808.09" y="270.4383"/><text fill="#000000" font-family="sans-serif" font-size="14" font-weight="bold" lengthAdjust="spacing" textLength="84.3145" x="818.09" y="285.9734">middleware</text><rect fill="#FEFECE" height="52.9766" rx="2.5" ry="2.5" style="stroke:#000000;stroke-width:0.5;" width="64.5498" x="1050.97" y="44.4883"/><text fill="#000000" font-family="sans-serif" font-size="14" font-weight="bold" lengthAdjust="spacing" textLength="44.5498" x="1060.97" y="60.0234">model</text><rect fill="#FEFECE" height="52.9766" rx="2.5" ry="2.5" style="stroke:#000000;stroke-width:0.5;" width="48.4717" x="1151.01" y="44.4883"/><text fill="#000000" font-family="sans-serif" font-size="14" font-weight="bold" lengthAdjust="spacing" textLength="28.4717" x="1161.01" y="60.0234">rate</text><rect fill="#FEFECE" height="52.9766" rx="2.5" ry="2.5" style="stroke:#000000;stroke-width:0.5;" width="94.3955" x="447.05" y="44.4883"/><text fill="#000000" font-family="sans-serif" font-size="14" font-weight="bold" lengthAdjust="spacing" textLength="74.3955" x="457.05" y="60.0234">repository</text><rect fill="#FEFECE" height="52.9766" rx="2.5" ry="2.5" style="stroke:#000000;stroke-width:0.5;" width="54.7676" x="1039.86" y="383.4183"/><text fill="#000000" font-family="sans-serif" font-size="14" font-weight="bold" lengthAdjust="spacing" textLength="34.7676" x="1049.86" y="398.9534">retry</text><rect fill="#FEFECE" height="52.9766" rx="2.5" ry="2.5" style="stroke:#000000;stroke-width:0.5;" width="91.4697" x="1234.51" y="44.4883"/><text fill="#000000" font-family="sans-serif" font-size="14" font-weight="bold" lengthAdjust="spacing" textLength="71.4697" x="1244.51" y="60.0234">shutdown</text><rect fill="#FEFECE" height="52.9766" rx="2.5" ry="2.5" style="stroke:#000000;stroke-width:0.5;" width="63.6816" x="1361.41" y="44.4883"/><text fill="#000000" font-family="sans-serif" font-size="14" font-weight="bold" lengthAdjust="spacing" textLength="43.6816" x="1371.41" y="60.0234">signal</text><rect fill="#FEFECE" height="52.9766" rx="2.5" ry="2.5" style="stroke:#000000;stroke-width:0.5;" width="86.9102" x="1459.79" y="44.4883"/><text fill="#000000" font-family="sans-serif" font-size="14" font-weight="bold" lengthAdjust="spacing" textLength="66.9102" x="1469.79" y="60.0234">stringutil</text><rect fill="#FEFECE" height="52.9766" rx="2.5" ry="2.5" style="stroke:#000000;stroke-width:0.5;" width="88.6123" x="815.94" y="383.4183"/><text fill="#000000" font-family="sans-serif" font-size="14" font-weight="bold" lengthAdjust="spacing" textLength="68.6123" x="825.94" y="398.9534">telemetry</text><rect fill="#FEFECE" height="52.9766" rx="2.5" ry="2.5" style="stroke:#000000;stroke-width:0.5;" width="101.4229" x="339.54" y="157.4683"/><text fill="#000000" font-family="sans-serif" font-size="14" font-weight="bold" lengthAdjust="spacing" textLength="81.4229" x="349.54" y="173.0034">transaction</text><rect fill="#FEFECE" height="52.9766" rx="2.5" ry="2.5" style="stroke:#000000;stroke-width:0.5;" width="91.5107" x="618.49" y="383.4183"/><text fill="#000000" font-family="sans-serif" font-size="14" font-weight="bold" lengthAdjust="spacing" textLength="71.5107" x="628.49" y="398.9534">validation</text><rect fill="#FEFECE" height="52.9766" rx="2.5" ry="2.5" style="stroke:#000000;stroke-width:0.5;" width="102.6943" x="1581.9" y="44.4883"/><text fill="#000000" font-family="sans-serif" font-size="14" font-weight="bold" lengthAdjust="spacing" textLength="82.6943" x="1591.9" y="60.0234">valueobject</text><!--link middleware to logging--><g class="link" data-entity-1="middleware" data-entity-2="logging" data-source-line="85" data-uid="lnk26" id="link_middleware_logging"><path codeLine="85" d="M912.86,305.0483 C1000.94,319.3083 1163.78,357.0683 1112.25,436.3983 C1041.67,545.0383 624.6024,610.9187 494.9424,629.0187" fill="none" id="middleware-to-logging" style="stroke:#000000;stroke-width:1;"/><polygon fill="#000000" points="489,629.8483,498.4666,632.5656,493.952,629.157,497.3605,624.6424,489,629.8483" style="stroke:#000000;stroke-width:1;"/></g><!--link middleware to errors--><g class="link" data-entity-1="middleware" data-entity-2="errors" data-source-line="86" data-uid="lnk27" id="link_middleware_errors"><path codeLine="86" d="M840.64,323.9083 C816.67,354.2283 773.53,404.2883 727.25,436.3983 C674.18,473.2083 608.447,497.4073 567.477,510.4573" fill="none" id="middleware-to-errors" style="stroke:#000000;stroke-width:1;"/><polygon fill="#000000" points="561.76,512.2783,571.5495,513.3581,566.5242,510.7608,569.1215,505.7354,561.76,512.2783" style="stroke:#000000;stroke-width:1;"/></g><!--link middleware to telemetry--><g class="link" data-entity-1="middleware" data-entity-2="telemetry" data-source-line="87" data-uid="lnk28" id="link_middleware_telemetry"><path codeLine="87" d="M860.25,323.6683 C860.25,341.4683 860.25,359.0683 860.25,376.9183" fill="none" id="middleware-to-telemetry" style="stroke:#000000;stroke-width:1;"/><polygon fill="#000000" points="860.25,382.9183,864.25,373.9183,860.25,377.9183,856.25,373.9183,860.25,382.9183" style="stroke:#000000;stroke-width:1;"/></g><!--link repository to db--><g class="link" data-entity-1="repository" data-entity-2="db" data-source-line="89" data-uid="lnk29" id="link_repository_db"><path codeLine="89" d="M494.13,97.6683 C493.94,140.7483 493.5764,221.0783 493.3864,264.1983" fill="none" id="repository-to-db" style="stroke:#000000;stroke-width:1;"/><polygon fill="#000000" points="493.36,270.1983,497.3996,261.216,493.382,265.1983,489.3997,261.1807,493.36,270.1983" style="stroke:#000000;stroke-width:1;"/></g><!--link repository to errors--><g class="link" data-entity-1="repository" data-entity-2="errors" data-source-line="90" data-uid="lnk30" id="link_repository_errors"><path codeLine="90" d="M503.63,97.8183 C509.35,114.5883 516.29,137.0583 520.25,157.4683 C543.92,279.3883 543.04,312.3283 537.25,436.3983 C536.31,456.4983 534.791,473.2037 532.941,490.1537" fill="none" id="repository-to-errors" style="stroke:#000000;stroke-width:1;"/><polygon fill="#000000" points="532.29,496.1183,537.2429,487.6054,532.8325,491.1478,529.2901,486.7374,532.29,496.1183" style="stroke:#000000;stroke-width:1;"/></g><!--link repository to transaction--><g class="link" data-entity-1="repository" data-entity-2="transaction" data-source-line="91" data-uid="lnk31" id="link_repository_transaction"><path codeLine="91" d="M470.13,97.7183 C453.44,115.5183 435.4331,134.7405 418.7031,152.5905" fill="none" id="repository-to-transaction" style="stroke:#000000;stroke-width:1;"/><polygon fill="#000000" points="414.6,156.9683,423.6731,153.137,418.0192,153.3201,417.8361,147.6663,414.6,156.9683" style="stroke:#000000;stroke-width:1;"/></g><!--link db to errors--><g class="link" data-entity-1="db" data-entity-2="errors" data-source-line="93" data-uid="lnk32" id="link_db_errors"><path codeLine="93" d="M497.38,323.6183 C504.3,366.7083 517.2277,447.1143 524.1577,490.2243" fill="none" id="db-to-errors" style="stroke:#000000;stroke-width:1;"/><polygon fill="#000000" points="525.11,496.1483,527.6309,486.6275,524.3164,491.2117,519.7323,487.8972,525.11,496.1483" style="stroke:#000000;stroke-width:1;"/></g><!--link db to logging--><g class="link" data-entity-1="db" data-entity-2="logging" data-source-line="94" data-uid="lnk33" id="link_db_logging"><path codeLine="94" d="M473.7,299.1083 C401.5,303.8983 151.59,324.5483 104.25,383.4183 C6,505.6083 298.8863,595.4961 407.5463,623.9961" fill="none" id="db-to-logging" style="stroke:#000000;stroke-width:1;"/><polygon fill="#000000" points="413.35,625.5183,405.6593,619.3658,408.5136,624.2498,403.6296,627.1041,413.35,625.5183" style="stroke:#000000;stroke-width:1;"/></g><!--link db to telemetry--><g class="link" data-entity-1="db" data-entity-2="telemetry" data-source-line="95" data-uid="lnk34" id="link_db_telemetry"><path codeLine="95" d="M512.98,303.8983 C569.85,321.0983 729.4267,369.352 809.7067,393.622" fill="none" id="db-to-telemetry" style="stroke:#000000;stroke-width:1;"/><polygon fill="#000000" points="815.45,395.3583,807.9926,388.925,810.6639,393.9114,805.6775,396.5827,815.45,395.3583" style="stroke:#000000;stroke-width:1;"/></g><!--link telemetry to logging--><g class="link" data-entity-1="telemetry" data-entity-2="logging" data-source-line="97" data-uid="lnk35" id="link_telemetry_logging"><path codeLine="97" d="M815.7,435.2983 C734.75,479.6283 570.1528,569.7568 494.3928,611.2368" fill="none" id="telemetry-to-logging" style="stroke:#000000;stroke-width:1;"/><polygon fill="#000000" points="489.13,614.1183,498.9452,613.3046,493.5157,611.717,495.1032,606.2875,489.13,614.1183" style="stroke:#000000;stroke-width:1;"/></g><!--link telemetry to errors--><g class="link" data-entity-1="telemetry" data-entity-2="errors" data-source-line="98" data-uid="lnk36" id="link_telemetry_errors"><path codeLine="98" d="M815.62,427.1383 C806.89,430.2483 797.79,433.4583 789.25,436.3983 C707.69,464.4383 616.8036,493.8567 567.4836,509.6667" fill="none" id="telemetry-to-errors" style="stroke:#000000;stroke-width:1;"/><polygon fill="#000000" points="561.77,511.4983,571.5615,512.56,566.5313,509.972,569.1194,504.9419,561.77,511.4983" style="stroke:#000000;stroke-width:1;"/></g><!--link errors to logging--><g class="link" data-entity-1="errors" data-entity-2="logging" data-source-line="100" data-uid="lnk37" id="link_errors_logging"><path codeLine="100" d="M511.16,549.6183 C498.65,567.4183 485.5096,586.1091 472.9596,603.9691" fill="none" id="errors-to-logging" style="stroke:#000000;stroke-width:1;"/><polygon fill="#000000" points="469.51,608.8783,477.9572,603.8143,472.3847,604.7873,471.4116,599.2148,469.51,608.8783" style="stroke:#000000;stroke-width:1;"/></g><!--link auth to errors--><g class="link" data-entity-1="auth" data-entity-2="errors" data-source-line="102" data-uid="lnk38" id="link_auth_errors"><path codeLine="102" d="M174.47,428.0483 C179.87,431.1183 185.63,434.0783 191.25,436.3983 C298.95,480.8483 429.8804,505.8094 491.1404,515.9394" fill="none" id="auth-to-errors" style="stroke:#000000;stroke-width:1;"/><polygon fill="#000000" points="497.06,516.9183,488.8332,511.5036,492.127,516.1026,487.528,519.3964,497.06,516.9183" style="stroke:#000000;stroke-width:1;"/></g><!--link auth to logging--><g class="link" data-entity-1="auth" data-entity-2="logging" data-source-line="103" data-uid="lnk39" id="link_auth_logging"><path codeLine="103" d="M174.89,434.1783 C207.74,462.4983 265.71,511.2683 318.25,549.3683 C349.47,572.0083 381.3692,592.4051 408.4092,609.0351" fill="none" id="auth-to-logging" style="stroke:#000000;stroke-width:1;"/><polygon fill="#000000" points="413.52,612.1783,407.9493,604.0563,409.261,609.5589,403.7583,610.8707,413.52,612.1783" style="stroke:#000000;stroke-width:1;"/></g><!--link health to logging--><g class="link" data-entity-1="health" data-entity-2="logging" data-source-line="105" data-uid="lnk40" id="link_health_logging"><path codeLine="105" d="M939.24,427.9183 C933.59,430.7783 927.76,433.6983 922.25,436.3983 C816.38,488.2783 790.96,503.7683 682.25,549.3683 C615.01,577.5783 540.54,604.166 494.51,620.096" fill="none" id="health-to-logging" style="stroke:#000000;stroke-width:1;"/><polygon fill="#000000" points="488.84,622.0583,498.6533,622.8949,493.565,620.423,496.0369,615.3348,488.84,622.0583" style="stroke:#000000;stroke-width:1;"/></g><!--link health to errors--><g class="link" data-entity-1="health" data-entity-2="errors" data-source-line="106" data-uid="lnk41" id="link_health_errors"><path codeLine="106" d="M939.43,429.1383 C933.8,431.8183 927.94,434.3683 922.25,436.3983 C792.7,482.6283 635.7539,507.5099 567.5539,516.8999" fill="none" id="health-to-errors" style="stroke:#000000;stroke-width:1;"/><polygon fill="#000000" points="561.61,517.7183,571.0715,520.4533,566.5633,517.0363,569.9803,512.5281,561.61,517.7183" style="stroke:#000000;stroke-width:1;"/></g><!--link retry to errors--><g class="link" data-entity-1="retry" data-entity-2="errors" data-source-line="108" data-uid="lnk42" id="link_retry_errors"><path codeLine="108" d="M1039.39,428.6283 C1033.87,431.5783 1028,434.3383 1022.25,436.3983 C855.6,496.0083 647.9173,514.4882 567.6373,519.7182" fill="none" id="retry-to-errors" style="stroke:#000000;stroke-width:1;"/><polygon fill="#000000" points="561.65,520.1083,570.891,523.5147,566.6394,519.7832,570.3709,515.5317,561.65,520.1083" style="stroke:#000000;stroke-width:1;"/></g><!--link retry to logging--><g class="link" data-entity-1="retry" data-entity-2="logging" data-source-line="109" data-uid="lnk43" id="link_retry_logging"><path codeLine="109" d="M1039.39,427.2483 C1033.77,430.3883 1027.86,433.5683 1022.25,436.3983 C911.52,492.1183 884.08,507.9583 767.25,549.3683 C668.68,584.3083 554.413,611.8682 494.643,625.3482" fill="none" id="retry-to-logging" style="stroke:#000000;stroke-width:1;"/><polygon fill="#000000" points="488.79,626.6683,498.4495,628.5902,493.6675,625.5683,496.6895,620.7862,488.79,626.6683" style="stroke:#000000;stroke-width:1;"/></g><!--link circuit to errors--><g class="link" data-entity-1="circuit" data-entity-2="errors" data-source-line="111" data-uid="lnk44" id="link_circuit_errors"><path codeLine="111" d="M370.25,429.9883 C405.64,450.4383 456.2659,479.6948 491.4759,500.0548" fill="none" id="circuit-to-errors" style="stroke:#000000;stroke-width:1;"/><polygon fill="#000000" points="496.67,503.0583,490.8811,495.0903,492.3416,500.5554,486.8765,502.0158,496.67,503.0583" style="stroke:#000000;stroke-width:1;"/></g><!--link circuit to logging--><g class="link" data-entity-1="circuit" data-entity-2="logging" data-source-line="112" data-uid="lnk45" id="link_circuit_logging"><path codeLine="112" d="M350.32,436.5983 C372.26,479.6783 413.4781,560.6612 435.4281,603.7812" fill="none" id="circuit-to-logging" style="stroke:#000000;stroke-width:1;"/><polygon fill="#000000" points="438.15,609.1283,437.6319,599.2931,435.8817,604.6724,430.5024,602.9223,438.15,609.1283" style="stroke:#000000;stroke-width:1;"/></g><!--link cache to errors--><g class="link" data-entity-1="cache" data-entity-2="errors" data-source-line="114" data-uid="lnk46" id="link_cache_errors"><path codeLine="114" d="M269.9,428.0483 C275.59,430.9883 281.55,433.8883 287.25,436.3983 C360.48,468.5583 444.2574,495.877 491.2174,510.387" fill="none" id="cache-to-errors" style="stroke:#000000;stroke-width:1;"/><polygon fill="#000000" points="496.95,512.1583,489.532,505.6796,492.1728,510.6822,487.1703,513.3231,496.95,512.1583" style="stroke:#000000;stroke-width:1;"/></g><!--link cache to logging--><g class="link" data-entity-1="cache" data-entity-2="logging" data-source-line="115" data-uid="lnk47" id="link_cache_logging"><path codeLine="115" d="M263.57,436.5983 C304.35,479.6783 381.9452,561.651 422.7652,604.771" fill="none" id="cache-to-logging" style="stroke:#000000;stroke-width:1;"/><polygon fill="#000000" points="426.89,609.1283,423.6076,599.8425,423.4526,605.4972,417.7979,605.3423,426.89,609.1283" style="stroke:#000000;stroke-width:1;"/></g><!--link transaction to db--><g class="link" data-entity-1="transaction" data-entity-2="db" data-source-line="117" data-uid="lnk48" id="link_transaction_db"><path codeLine="117" d="M414.14,210.6883 C432.2,230.1583 452.6295,252.1595 469.5495,270.3995" fill="none" id="transaction-to-db" style="stroke:#000000;stroke-width:1;"/><polygon fill="#000000" points="473.63,274.7983,470.4418,265.4797,470.2296,271.1326,464.5767,270.9204,473.63,274.7983" style="stroke:#000000;stroke-width:1;"/></g><!--link transaction to errors--><g class="link" data-entity-1="transaction" data-entity-2="errors" data-source-line="118" data-uid="lnk49" id="link_transaction_errors"><path codeLine="118" d="M400.92,210.8283 C426.8,273.5483 490.3319,427.5617 516.2419,490.3717" fill="none" id="transaction-to-errors" style="stroke:#000000;stroke-width:1;"/><polygon fill="#000000" points="518.53,495.9183,518.7957,486.073,516.6233,491.2961,511.4002,489.1237,518.53,495.9183" style="stroke:#000000;stroke-width:1;"/></g><!--link transaction to logging--><g class="link" data-entity-1="transaction" data-entity-2="logging" data-source-line="119" data-uid="lnk50" id="link_transaction_logging"><path codeLine="119" d="M339.08,199.9583 C265.48,224.6183 132.42,281.4683 76.25,383.4183 C64.89,404.0383 72.54,413.1483 76.25,436.3983 C84.57,488.5683 74.62,513.3183 113.25,549.3683 C157,590.2083 328.8975,618.1396 407.5675,629.1096" fill="none" id="transaction-to-logging" style="stroke:#000000;stroke-width:1;"/><polygon fill="#000000" points="413.51,629.9383,405.1487,624.7336,408.5579,629.2477,404.0438,632.657,413.51,629.9383" style="stroke:#000000;stroke-width:1;"/></g><!--link validation to errors--><g class="link" data-entity-1="validation" data-entity-2="errors" data-source-line="121" data-uid="lnk51" id="link_validation_errors"><path codeLine="121" d="M632.94,436.6483 C611.28,454.4483 587.2046,474.2377 565.4946,492.0877" fill="none" id="validation-to-errors" style="stroke:#000000;stroke-width:1;"/><polygon fill="#000000" points="560.86,495.8983,570.3523,493.2722,564.7222,492.7228,565.2715,487.0927,560.86,495.8983" style="stroke:#000000;stroke-width:1;"/></g><!--SRC=[VPDBSiCW38Rtd89f5rdb2ftf8rbrqPcS08Dggo7W2hbffjExbyJ4nf3fokRJZrv8A_a2x-X0SWSoyCb2466FhbUa3h9NUgzQs9sv9D2iN6iX4pHHq98Vd7dsrfCyTiYv_P787qTJOwCsCxsDlfyy6Q3_9KMG- -rcktdU2C78CQyTq1TgUCNcUa6-e6gZ0o5MUNcfcX2p3c2aTnUgD0_AIkqDdBb8Adcd1kxkv8_u5JFJIdTGGIGz85VOktTiRr26xqfi55T-JLCHB0d41bCeQIo-xpvjYJjGjgx9-hP5LoLwG6Ci71LLUHrYgohVTAC0Wju7P4-dsi8r3Dt0nXzTnR5rgWeOc6BM0sDbOR1mk1M0IRaGtnjz5UDBMOnlSDioW6y-ulGdqsAe2EpbMkYmpoVhrAEEOsMW1sV0QOoBDRTKhjSFCZM-nEEJbdGgIeYvhHUBQKgIF1Gqgru8q-JATBecb8vPoEbteLlIv4kCtuLGd7Sf5qtdIJ7Eve9bwEgRocXK9INIEkQg7CswyoulL1EOD5dFhhqkKRfSuid5F5cv_0y0]--></g></svg>