<svg xmlns="http://www.w3.org/2000/svg" xmlns:xlink="http://www.w3.org/1999/xlink" contentStyleType="text/css" data-diagram-type="CLASS" height="417px" preserveAspectRatio="none" style="width:1423px;height:417px;background:#FFFFFF;" version="1.1" viewBox="0 0 1423 417" width="1423px" zoomAndPan="magnify"><defs/><g><!--class BaseContainer--><g class="entity" data-entity="BaseContainer" data-source-line="9" data-uid="ent0002" id="entity_BaseContainer"><rect fill="#FFFFFF" height="245.8594" rx="2.5" ry="2.5" style="stroke:#000000;stroke-width:0.5;" width="428.4385" x="425.28" y="164.46"/><ellipse cx="580.6345" cy="180.46" fill="#ADD1B2" rx="11" ry="11" style="stroke:#181818;stroke-width:1;"/><path d="M583.1076,186.6031 Q582.5266,186.9019 581.8874,187.0513 Q581.2483,187.2007 580.5427,187.2007 Q578.0359,187.2007 576.716,185.5489 Q575.3962,183.897 575.3962,180.7759 Q575.3962,177.6465 576.716,175.9947 Q578.0359,174.3428 580.5427,174.3428 Q581.2483,174.3428 581.8957,174.4922 Q582.5432,174.6416 583.1076,174.9405 L583.1076,177.6631 Q582.4768,177.0821 581.8833,176.8123 Q581.2898,176.5425 580.6589,176.5425 Q579.3142,176.5425 578.6294,177.6092 Q577.9446,178.6758 577.9446,180.7759 Q577.9446,182.8677 578.6294,183.9344 Q579.3142,185.001 580.6589,185.001 Q581.2898,185.001 581.8833,184.7312 Q582.4768,184.4615 583.1076,183.8804 Z " fill="#000000"/><text fill="#000000" font-family="sans-serif" font-size="14" lengthAdjust="spacing" textLength="96.9268" x="601.1345" y="185.751">BaseContainer</text><rect fill="#FFFFFF" height="16.1328" style="stroke:#000000;stroke-width:1;stroke-dasharray:2.0,2.0;" width="10.3027" x="846.4157" y="161.46"/><text fill="#000000" font-family="sans-serif" font-size="12" font-style="italic" lengthAdjust="spacing" textLength="8.3027" x="847.4157" y="174.0616">C</text><line style="stroke:#000000;stroke-width:0.5;" x1="426.28" x2="852.7185" y1="196.46" y2="196.46"/><rect fill="none" height="6" style="stroke:#C82930;stroke-width:1;" width="6" x="433.28" y="207.2041"/><text fill="#000000" font-family="sans-serif" font-size="14" lengthAdjust="spacing" textLength="139.4326" x="445.28" y="213.9952">ctx: context.Context</text><rect fill="none" height="6" style="stroke:#C82930;stroke-width:1;" width="6" x="433.28" y="223.6924"/><text fill="#000000" font-family="sans-serif" font-size="14" lengthAdjust="spacing" textLength="135.29" x="445.28" y="230.4834">logger: *zap.Logger</text><rect fill="none" height="6" style="stroke:#C82930;stroke-width:1;" width="6" x="433.28" y="240.1807"/><text fill="#000000" font-family="sans-serif" font-size="14" lengthAdjust="spacing" textLength="270.8604" x="445.28" y="246.9717">contextLogger: *logging.ContextLogger</text><rect fill="none" height="6" style="stroke:#C82930;stroke-width:1;" width="6" x="433.28" y="256.669"/><text fill="#000000" font-family="sans-serif" font-size="14" lengthAdjust="spacing" textLength="192.9512" x="445.28" y="263.46">validator: *validator.Validate</text><rect fill="none" height="6" style="stroke:#C82930;stroke-width:1;" width="6" x="433.28" y="273.1573"/><text fill="#000000" font-family="sans-serif" font-size="14" lengthAdjust="spacing" textLength="60.9287" x="445.28" y="279.9483">config: C</text><line style="stroke:#000000;stroke-width:0.5;" x1="426.28" x2="852.7185" y1="286.9014" y2="286.9014"/><ellipse cx="436.28" cy="300.6455" fill="#84BE84" rx="3" ry="3" style="stroke:#038048;stroke-width:1;"/><text fill="#000000" font-family="sans-serif" font-size="14" lengthAdjust="spacing" textLength="402.4385" x="445.28" y="304.4366">NewBaseContainer(ctx, logger, cfg): (*BaseContainer, error)</text><ellipse cx="436.28" cy="317.1338" fill="#84BE84" rx="3" ry="3" style="stroke:#038048;stroke-width:1;"/><text fill="#000000" font-family="sans-serif" font-size="14" lengthAdjust="spacing" textLength="204.5313" x="445.28" y="320.9248">GetContext(): context.Context</text><ellipse cx="436.28" cy="333.6221" fill="#84BE84" rx="3" ry="3" style="stroke:#038048;stroke-width:1;"/><text fill="#000000" font-family="sans-serif" font-size="14" lengthAdjust="spacing" textLength="170.9668" x="445.28" y="337.4131">GetLogger(): *zap.Logger</text><ellipse cx="436.28" cy="350.1104" fill="#84BE84" rx="3" ry="3" style="stroke:#038048;stroke-width:1;"/><text fill="#000000" font-family="sans-serif" font-size="14" lengthAdjust="spacing" textLength="305.6348" x="445.28" y="353.9014">GetContextLogger(): *logging.ContextLogger</text><ellipse cx="436.28" cy="366.5987" fill="#84BE84" rx="3" ry="3" style="stroke:#038048;stroke-width:1;"/><text fill="#000000" font-family="sans-serif" font-size="14" lengthAdjust="spacing" textLength="227.1172" x="445.28" y="370.3897">GetValidator(): *validator.Validate</text><ellipse cx="436.28" cy="383.087" fill="#84BE84" rx="3" ry="3" style="stroke:#038048;stroke-width:1;"/><text fill="#000000" font-family="sans-serif" font-size="14" lengthAdjust="spacing" textLength="95.7031" x="445.28" y="386.878">GetConfig(): C</text><ellipse cx="436.28" cy="399.5752" fill="#84BE84" rx="3" ry="3" style="stroke:#038048;stroke-width:1;"/><text fill="#000000" font-family="sans-serif" font-size="14" lengthAdjust="spacing" textLength="88.8193" x="445.28" y="403.3663">Close(): error</text></g><!--class Container--><g class="entity" data-entity="Container" data-source-line="24" data-uid="ent0003" id="entity_Container"><rect fill="#FFFFFF" height="97.4648" rx="2.5" ry="2.5" style="stroke:#000000;stroke-width:0.5;" width="366.9971" x="7" y="7"/><ellipse cx="153.1455" cy="23" fill="#ADD1B2" rx="11" ry="11" style="stroke:#181818;stroke-width:1;"/><path d="M155.6187,29.1431 Q155.0376,29.4419 154.3984,29.5913 Q153.7593,29.7407 153.0537,29.7407 Q150.5469,29.7407 149.2271,28.0889 Q147.9072,26.437 147.9072,23.3159 Q147.9072,20.1865 149.2271,18.5347 Q150.5469,16.8828 153.0537,16.8828 Q153.7593,16.8828 154.4067,17.0322 Q155.0542,17.1816 155.6187,17.4805 L155.6187,20.2031 Q154.9878,19.6221 154.3943,19.3523 Q153.8008,19.0825 153.1699,19.0825 Q151.8252,19.0825 151.1404,20.1492 Q150.4556,21.2158 150.4556,23.3159 Q150.4556,25.4077 151.1404,26.4744 Q151.8252,27.541 153.1699,27.541 Q153.8008,27.541 154.3943,27.2712 Q154.9878,27.0015 155.6187,26.4204 Z " fill="#000000"/><text fill="#000000" font-family="sans-serif" font-size="14" lengthAdjust="spacing" textLength="66.2061" x="173.6455" y="28.291">Container</text><line style="stroke:#000000;stroke-width:0.5;" x1="8" x2="372.9971" y1="39" y2="39"/><rect fill="none" height="6" style="stroke:#C82930;stroke-width:1;" width="6" x="15" y="49.7441"/><text fill="#000000" font-family="sans-serif" font-size="14" lengthAdjust="spacing" textLength="187.6396" x="27" y="56.5352">BaseContainer&lt;interface{}&gt;</text><line style="stroke:#000000;stroke-width:0.5;" x1="8" x2="372.9971" y1="63.4883" y2="63.4883"/><ellipse cx="18" cy="77.2324" fill="#84BE84" rx="3" ry="3" style="stroke:#038048;stroke-width:1;"/><text fill="#000000" font-family="sans-serif" font-size="14" lengthAdjust="spacing" textLength="340.9971" x="27" y="81.0234">NewContainer(ctx, logger, cfg): (*Container, error)</text><ellipse cx="18" cy="93.7207" fill="#84BE84" rx="3" ry="3" style="stroke:#038048;stroke-width:1;"/><text fill="#000000" font-family="sans-serif" font-size="14" lengthAdjust="spacing" textLength="230.9863" x="27" y="97.5117">GetRepositoryFactory(): interface{}</text></g><!--class ServiceContainer--><g class="entity" data-entity="ServiceContainer" data-source-line="30" data-uid="ent0004" id="entity_ServiceContainer"><rect fill="#FFFFFF" height="97.4648" rx="2.5" ry="2.5" style="stroke:#000000;stroke-width:0.5;" width="461.6611" x="408.67" y="7"/><ellipse cx="578.4815" cy="23" fill="#ADD1B2" rx="11" ry="11" style="stroke:#181818;stroke-width:1;"/><path d="M580.9547,29.1431 Q580.3736,29.4419 579.7345,29.5913 Q579.0953,29.7407 578.3897,29.7407 Q575.8829,29.7407 574.5631,28.0889 Q573.2432,26.437 573.2432,23.3159 Q573.2432,20.1865 574.5631,18.5347 Q575.8829,16.8828 578.3897,16.8828 Q579.0953,16.8828 579.7428,17.0322 Q580.3902,17.1816 580.9547,17.4805 L580.9547,20.2031 Q580.3238,19.6221 579.7303,19.3523 Q579.1368,19.0825 578.5059,19.0825 Q577.1612,19.0825 576.4764,20.1492 Q575.7916,21.2158 575.7916,23.3159 Q575.7916,25.4077 576.4764,26.4744 Q577.1612,27.541 578.5059,27.541 Q579.1368,27.541 579.7303,27.2712 Q580.3238,27.0015 580.9547,26.4204 Z " fill="#000000"/><text fill="#000000" font-family="sans-serif" font-size="14" lengthAdjust="spacing" textLength="113.5381" x="598.9815" y="28.291">ServiceContainer</text><line style="stroke:#000000;stroke-width:0.5;" x1="409.67" x2="869.3311" y1="39" y2="39"/><rect fill="none" height="6" style="stroke:#C82930;stroke-width:1;" width="6" x="416.67" y="49.7441"/><text fill="#000000" font-family="sans-serif" font-size="14" lengthAdjust="spacing" textLength="164.083" x="428.67" y="56.5352">BaseContainer&lt;Config&gt;</text><line style="stroke:#000000;stroke-width:0.5;" x1="409.67" x2="869.3311" y1="63.4883" y2="63.4883"/><ellipse cx="419.67" cy="77.2324" fill="#84BE84" rx="3" ry="3" style="stroke:#038048;stroke-width:1;"/><text fill="#000000" font-family="sans-serif" font-size="14" lengthAdjust="spacing" textLength="435.6611" x="428.67" y="81.0234">NewServiceContainer(ctx, logger, cfg): (*ServiceContainer, error)</text><ellipse cx="419.67" cy="93.7207" fill="#84BE84" rx="3" ry="3" style="stroke:#038048;stroke-width:1;"/><text fill="#000000" font-family="sans-serif" font-size="14" lengthAdjust="spacing" textLength="135.7822" x="428.67" y="97.5117">GetService(): Service</text></g><!--class RepositoryContainer--><g class="entity" data-entity="RepositoryContainer" data-source-line="36" data-uid="ent0005" id="entity_RepositoryContainer"><rect fill="#FFFFFF" height="97.4648" rx="2.5" ry="2.5" style="stroke:#000000;stroke-width:0.5;" width="511.249" x="904.87" y="7"/><ellipse cx="1087.0785" cy="23" fill="#ADD1B2" rx="11" ry="11" style="stroke:#181818;stroke-width:1;"/><path d="M1089.5516,29.1431 Q1088.9706,29.4419 1088.3314,29.5913 Q1087.6923,29.7407 1086.9867,29.7407 Q1084.4799,29.7407 1083.16,28.0889 Q1081.8402,26.437 1081.8402,23.3159 Q1081.8402,20.1865 1083.16,18.5347 Q1084.4799,16.8828 1086.9867,16.8828 Q1087.6923,16.8828 1088.3397,17.0322 Q1088.9872,17.1816 1089.5516,17.4805 L1089.5516,20.2031 Q1088.9208,19.6221 1088.3273,19.3523 Q1087.7338,19.0825 1087.1029,19.0825 Q1085.7582,19.0825 1085.0734,20.1492 Q1084.3886,21.2158 1084.3886,23.3159 Q1084.3886,25.4077 1085.0734,26.4744 Q1085.7582,27.541 1087.1029,27.541 Q1087.7338,27.541 1088.3273,27.2712 Q1088.9208,27.0015 1089.5516,26.4204 Z " fill="#000000"/><text fill="#000000" font-family="sans-serif" font-size="14" lengthAdjust="spacing" textLength="138.332" x="1107.5785" y="28.291">RepositoryContainer</text><line style="stroke:#000000;stroke-width:0.5;" x1="905.87" x2="1415.119" y1="39" y2="39"/><rect fill="none" height="6" style="stroke:#C82930;stroke-width:1;" width="6" x="912.87" y="49.7441"/><text fill="#000000" font-family="sans-serif" font-size="14" lengthAdjust="spacing" textLength="164.083" x="924.87" y="56.5352">BaseContainer&lt;Config&gt;</text><line style="stroke:#000000;stroke-width:0.5;" x1="905.87" x2="1415.119" y1="63.4883" y2="63.4883"/><ellipse cx="915.87" cy="77.2324" fill="#84BE84" rx="3" ry="3" style="stroke:#038048;stroke-width:1;"/><text fill="#000000" font-family="sans-serif" font-size="14" lengthAdjust="spacing" textLength="485.249" x="924.87" y="81.0234">NewRepositoryContainer(ctx, logger, cfg): (*RepositoryContainer, error)</text><ellipse cx="915.87" cy="93.7207" fill="#84BE84" rx="3" ry="3" style="stroke:#038048;stroke-width:1;"/><text fill="#000000" font-family="sans-serif" font-size="14" lengthAdjust="spacing" textLength="185.3701" x="924.87" y="97.5117">GetRepository(): Repository</text></g><!--link Container to BaseContainer--><g class="link" data-entity-1="Container" data-entity-2="BaseContainer" data-source-line="42" data-uid="lnk6" id="link_Container_BaseContainer"><path codeLine="42" d="M284.62,104.87 C325.64,125.85 359.5145,143.1835 408.7845,168.3835" fill="none" id="Container-to-BaseContainer" style="stroke:#000000;stroke-width:1;"/><polygon fill="none" points="424.81,176.58,411.5167,163.0416,406.0523,173.7253,424.81,176.58" style="stroke:#000000;stroke-width:1;"/></g><!--link ServiceContainer to BaseContainer--><g class="link" data-entity-1="ServiceContainer" data-entity-2="BaseContainer" data-source-line="43" data-uid="lnk7" id="link_ServiceContainer_BaseContainer"><path codeLine="43" d="M639.5,104.87 C639.5,122.37 639.5,125.02 639.5,146.01" fill="none" id="ServiceContainer-to-BaseContainer" style="stroke:#000000;stroke-width:1;"/><polygon fill="none" points="639.5,164.01,645.5,146.01,633.5,146.01,639.5,164.01" style="stroke:#000000;stroke-width:1;"/></g><!--link RepositoryContainer to BaseContainer--><g class="link" data-entity-1="RepositoryContainer" data-entity-2="BaseContainer" data-source-line="44" data-uid="lnk8" id="link_RepositoryContainer_BaseContainer"><path codeLine="44" d="M1051.28,104.87 C994.06,130.09 938.4208,154.6196 870.5908,184.5196" fill="none" id="RepositoryContainer-to-BaseContainer" style="stroke:#000000;stroke-width:1;"/><polygon fill="none" points="854.12,191.78,873.0109,190.0098,868.1706,179.0293,854.12,191.78" style="stroke:#000000;stroke-width:1;"/></g><!--SRC=[bP4zRy8m48Rt_8eJ4r1Ww1XLI2LIkw0EHQAp5OvWOUp8Db-b_FVw8y59QbfrYdr-pddUizfINX99Tf2BNIauShtGPuQmtx77H8LJHfI2Im8m8_csa6BFLvbWGiB7XcgqTI5NA7rjnWnaQizIYcEpT4qIVrDlHXHcWcj2ESgdRDe3eg1LT7yRGwvFgP7Z6azwalclEs2YA52cCFmavMJkDhx1C_Fws7AK5tLlWpmGHbT42qlTrfEbNs5zsPeMAMHczm1lU6mfzetSg18PGRuk1YdqXora16Y680Uk_nLrPT4Vn48vmWjQe9sisTvWxiLp-B9EvT1enlfQ4zD2FcZ6X4AxTVBXsRgFqtv5QWpackHukKxhUVqngxjpUiTIA6fSpoyajnzhq_X1S5gWFD0SVrVp0MzMtPwuN9VgEbRdrgnQ1glW_o-nI5lSBGBU7w4r33ih6QJ6uwzfsodvCT484yiNmRu1]--></g></svg>