<svg xmlns="http://www.w3.org/2000/svg" xmlns:xlink="http://www.w3.org/1999/xlink" contentStyleType="text/css" data-diagram-type="CLASS" height="269px" preserveAspectRatio="none" style="width:513px;height:269px;background:#FFFFFF;" version="1.1" viewBox="0 0 513 269" width="513px" zoomAndPan="magnify"><defs/><g><!--class HealthStatus--><g class="entity" data-entity="HealthStatus" data-source-line="9" data-uid="ent0002" id="entity_HealthStatus"><rect fill="#FFFFFF" height="113.9531" rx="2.5" ry="2.5" style="stroke:#000000;stroke-width:0.5;" width="207.1797" x="7" y="148.49"/><ellipse cx="63.6597" cy="164.49" fill="#ADD1B2" rx="11" ry="11" style="stroke:#181818;stroke-width:1;"/><path d="M66.1328,170.6331 Q65.5518,170.9319 64.9126,171.0813 Q64.2734,171.2307 63.5679,171.2307 Q61.061,171.2307 59.7412,169.5789 Q58.4214,167.927 58.4214,164.8059 Q58.4214,161.6765 59.7412,160.0247 Q61.061,158.3728 63.5679,158.3728 Q64.2734,158.3728 64.9209,158.5222 Q65.5684,158.6716 66.1328,158.9705 L66.1328,161.6931 Q65.502,161.1121 64.9084,160.8423 Q64.3149,160.5725 63.6841,160.5725 Q62.3394,160.5725 61.6545,161.6392 Q60.9697,162.7058 60.9697,164.8059 Q60.9697,166.8977 61.6545,167.9644 Q62.3394,169.031 63.6841,169.031 Q64.3149,169.031 64.9084,168.7612 Q65.502,168.4915 66.1328,167.9104 Z " fill="#000000"/><text fill="#000000" font-family="sans-serif" font-size="14" lengthAdjust="spacing" textLength="85.3604" x="84.1597" y="169.781">HealthStatus</text><line style="stroke:#000000;stroke-width:0.5;" x1="8" x2="213.1797" y1="180.49" y2="180.49"/><rect fill="none" height="6" style="stroke:#C82930;stroke-width:1;" width="6" x="15" y="191.2341"/><text fill="#000000" font-family="sans-serif" font-size="14" lengthAdjust="spacing" textLength="89.9951" x="27" y="198.0252">Status: string</text><rect fill="none" height="6" style="stroke:#C82930;stroke-width:1;" width="6" x="15" y="207.7224"/><text fill="#000000" font-family="sans-serif" font-size="14" lengthAdjust="spacing" textLength="124.1816" x="27" y="214.5134">Timestamp: string</text><rect fill="none" height="6" style="stroke:#C82930;stroke-width:1;" width="6" x="15" y="224.2107"/><text fill="#000000" font-family="sans-serif" font-size="14" lengthAdjust="spacing" textLength="99.5791" x="27" y="231.0017">Version: string</text><rect fill="none" height="6" style="stroke:#C82930;stroke-width:1;" width="6" x="15" y="240.699"/><text fill="#000000" font-family="sans-serif" font-size="14" lengthAdjust="spacing" textLength="181.1797" x="27" y="247.49">Services: map[string]string</text><line style="stroke:#000000;stroke-width:0.5;" x1="8" x2="213.1797" y1="254.4431" y2="254.4431"/></g><!--class HealthHandler--><g class="entity" data-entity="HealthHandler" data-source-line="16" data-uid="ent0003" id="entity_HealthHandler"><rect fill="#FFFFFF" height="64.4883" rx="2.5" ry="2.5" style="stroke:#000000;stroke-width:0.5;" width="382.7129" x="52.23" y="7"/><ellipse cx="190.8936" cy="23" fill="#ADD1B2" rx="11" ry="11" style="stroke:#181818;stroke-width:1;"/><path d="M193.3667,29.1431 Q192.7857,29.4419 192.1465,29.5913 Q191.5073,29.7407 190.8018,29.7407 Q188.2949,29.7407 186.9751,28.0889 Q185.6553,26.437 185.6553,23.3159 Q185.6553,20.1865 186.9751,18.5347 Q188.2949,16.8828 190.8018,16.8828 Q191.5073,16.8828 192.1548,17.0322 Q192.8023,17.1816 193.3667,17.4805 L193.3667,20.2031 Q192.7359,19.6221 192.1424,19.3523 Q191.5488,19.0825 190.918,19.0825 Q189.5733,19.0825 188.8884,20.1492 Q188.2036,21.2158 188.2036,23.3159 Q188.2036,25.4077 188.8884,26.4744 Q189.5733,27.541 190.918,27.541 Q191.5488,27.541 192.1424,27.2712 Q192.7359,27.0015 193.3667,26.4204 Z " fill="#000000"/><text fill="#000000" font-family="sans-serif" font-size="14" lengthAdjust="spacing" textLength="96.8857" x="211.3936" y="28.291">HealthHandler</text><line style="stroke:#000000;stroke-width:0.5;" x1="53.23" x2="433.9429" y1="39" y2="39"/><line style="stroke:#000000;stroke-width:0.5;" x1="53.23" x2="433.9429" y1="47" y2="47"/><ellipse cx="63.23" cy="60.7441" fill="#84BE84" rx="3" ry="3" style="stroke:#038048;stroke-width:1;"/><text fill="#000000" font-family="sans-serif" font-size="14" lengthAdjust="spacing" textLength="356.7129" x="72.23" y="64.5352">NewHandler(provider, logger, cfg): http.HandlerFunc</text></g><!--class HealthCheckProvider--><g class="entity" data-entity="HealthCheckProvider" data-source-line="20" data-uid="ent0004" id="entity_HealthCheckProvider"><rect fill="#FFFFFF" height="64.4883" rx="2.5" ry="2.5" style="stroke:#000000;stroke-width:0.5;" width="256.9863" x="249.1" y="173.22"/><ellipse cx="302.8339" cy="189.22" fill="#B4A7E5" rx="11" ry="11" style="stroke:#181818;stroke-width:1;"/><path d="M299.2616,185.4851 L299.2616,183.3269 L306.641,183.3269 L306.641,185.4851 L304.1757,185.4851 L304.1757,193.5618 L306.641,193.5618 L306.641,195.72 L299.2616,195.72 L299.2616,193.5618 L301.727,193.5618 L301.727,185.4851 Z " fill="#000000"/><text fill="#000000" font-family="sans-serif" font-size="14" font-style="italic" lengthAdjust="spacing" textLength="141.0186" x="323.3339" y="194.511">HealthCheckProvider</text><line style="stroke:#000000;stroke-width:0.5;" x1="250.1" x2="505.0863" y1="205.22" y2="205.22"/><line style="stroke:#000000;stroke-width:0.5;" x1="250.1" x2="505.0863" y1="213.22" y2="213.22"/><ellipse cx="260.1" cy="226.9641" fill="#84BE84" rx="3" ry="3" style="stroke:#038048;stroke-width:1;"/><text fill="#000000" font-family="sans-serif" font-size="14" lengthAdjust="spacing" textLength="230.9863" x="269.1" y="230.7552">GetRepositoryFactory(): interface{}</text></g><!--link HealthHandler to HealthStatus--><g class="link" data-entity-1="HealthHandler" data-entity-2="HealthStatus" data-source-line="24" data-uid="lnk5" id="link_HealthHandler_HealthStatus"><path codeLine="24" d="M217.95,71.91 C200.43,93.53 180.5264,118.1075 159.8564,143.6275" fill="none" id="HealthHandler-to-HealthStatus" style="stroke:#000000;stroke-width:1;stroke-dasharray:7.0,7.0;"/><polygon fill="#000000" points="156.08,148.29,164.8529,143.8139,159.227,144.4046,158.6363,138.7787,156.08,148.29" style="stroke:#000000;stroke-width:1;"/><text fill="#000000" font-family="sans-serif" font-size="13" lengthAdjust="spacing" textLength="45.1318" x="193.91" y="115.0584">creates</text></g><!--link HealthHandler to HealthCheckProvider--><g class="link" data-entity-1="HealthHandler" data-entity-2="HealthCheckProvider" data-source-line="25" data-uid="lnk6" id="link_HealthHandler_HealthCheckProvider"><path codeLine="25" d="M269.43,71.91 C293.15,100.99 324.3371,139.2009 348.0371,168.2509" fill="none" id="HealthHandler-to-HealthCheckProvider" style="stroke:#000000;stroke-width:1;stroke-dasharray:7.0,7.0;"/><polygon fill="#000000" points="351.83,172.9,349.2401,163.3978,348.6693,169.0258,343.0413,168.455,351.83,172.9" style="stroke:#000000;stroke-width:1;"/><text fill="#000000" font-family="sans-serif" font-size="13" lengthAdjust="spacing" textLength="28.5645" x="307.57" y="115.0584">uses</text></g><!--SRC=[TP2nJiCm48RtFCMfKn6GWJ434gtKTaA881WGmycv9bOSspfVMbLLtnsdSKipC9tytU_xpWwjjXuPEr2kyywIbL8EXg3lp5CM_he6Gu1Z1h10rTRiUbijdN4CNuqM6hZZYdXa2nD3aRqmk_qjEcNPE6b3QAGf1QKVnpx2U2WW26jRdz67xYW8Tdv2Fuc3TdR2IkATLXIlT-Y_nyPFwb-biz6wGLiPuXdWPOz4pelSmolj4vXxTZiTd_K0njNrKDMslYkW4V5v2grwgmQ7jaAyHKKNpx8XrRwb2JUs2K_EDSaxUHUqE3wiK0rb7aNNeSVJu9Ykc-VFquyiG36XKFWtE7KNq8SO_WK0]--></g></svg>