<svg xmlns="http://www.w3.org/2000/svg" xmlns:xlink="http://www.w3.org/1999/xlink" contentStyleType="text/css" data-diagram-type="CLASS" height="350px" preserveAspectRatio="none" style="width:2196px;height:350px;background:#FFFFFF;" version="1.1" viewBox="0 0 2196 350" width="2196px" zoomAndPan="magnify"><defs/><g><!--cluster auth--><g class="cluster" data-entity="auth" data-source-line="9" data-uid="ent0002" id="cluster_auth"><path d="M8.5,6 L41.793,6 A3.75,3.75 0 0 1 44.293,8.5 L51.293,28.4883 L197.5,28.4883 A2.5,2.5 0 0 1 200,30.9883 L200,236.45 A2.5,2.5 0 0 1 197.5,238.95 L8.5,238.95 A2.5,2.5 0 0 1 6,236.45 L6,8.5 A2.5,2.5 0 0 1 8.5,6" fill="none" style="stroke:#000000;stroke-width:1.5;"/><line style="stroke:#000000;stroke-width:1.5;" x1="6" x2="51.293" y1="28.4883" y2="28.4883"/><text fill="#000000" font-family="sans-serif" font-size="14" font-weight="bold" lengthAdjust="spacing" textLength="32.293" x="10" y="21.5352">auth</text></g><!--cluster logging--><g class="cluster" data-entity="logging" data-source-line="23" data-uid="ent0008" id="cluster_logging"><path d="M350.5,14 L406.4473,14 A3.75,3.75 0 0 1 408.9473,16.5 L415.9473,36.4883 L469.5,36.4883 A2.5,2.5 0 0 1 472,38.9883 L472,228.45 A2.5,2.5 0 0 1 469.5,230.95 L350.5,230.95 A2.5,2.5 0 0 1 348,228.45 L348,16.5 A2.5,2.5 0 0 1 350.5,14" fill="none" style="stroke:#000000;stroke-width:1.5;"/><line style="stroke:#000000;stroke-width:1.5;" x1="348" x2="415.9473" y1="36.4883" y2="36.4883"/><text fill="#000000" font-family="sans-serif" font-size="14" font-weight="bold" lengthAdjust="spacing" textLength="54.9473" x="352" y="29.5352">logging</text></g><!--cluster telemetry--><g class="cluster" data-entity="telemetry" data-source-line="33" data-uid="ent0012" id="cluster_telemetry"><path d="M1039.5,6 L1109.1123,6 A3.75,3.75 0 0 1 1111.6123,8.5 L1118.6123,28.4883 L1366.5,28.4883 A2.5,2.5 0 0 1 1369,30.9883 L1369,236.45 A2.5,2.5 0 0 1 1366.5,238.95 L1039.5,238.95 A2.5,2.5 0 0 1 1037,236.45 L1037,8.5 A2.5,2.5 0 0 1 1039.5,6" fill="none" style="stroke:#000000;stroke-width:1.5;"/><line style="stroke:#000000;stroke-width:1.5;" x1="1037" x2="1118.6123" y1="28.4883" y2="28.4883"/><text fill="#000000" font-family="sans-serif" font-size="14" font-weight="bold" lengthAdjust="spacing" textLength="68.6123" x="1041" y="21.5352">telemetry</text></g><!--cluster context--><g class="cluster" data-entity="context" data-source-line="50" data-uid="ent0019" id="cluster_context"><path d="M883.5,126.98 L937.9092,126.98 A3.75,3.75 0 0 1 940.4092,129.48 L947.4092,149.4683 L1002.5,149.4683 A2.5,2.5 0 0 1 1005,151.9683 L1005,341.43 A2.5,2.5 0 0 1 1002.5,343.93 L883.5,343.93 A2.5,2.5 0 0 1 881,341.43 L881,129.48 A2.5,2.5 0 0 1 883.5,126.98" fill="none" style="stroke:#000000;stroke-width:1.5;"/><line style="stroke:#000000;stroke-width:1.5;" x1="881" x2="947.4092" y1="149.4683" y2="149.4683"/><text fill="#000000" font-family="sans-serif" font-size="14" font-weight="bold" lengthAdjust="spacing" textLength="53.4092" x="885" y="142.5152">context</text></g><!--cluster health--><g class="cluster" data-entity="health" data-source-line="60" data-uid="ent0023" id="cluster_health"><path d="M1412.5,6 L1458.5488,6 A3.75,3.75 0 0 1 1461.0488,8.5 L1468.0488,28.4883 L1555.5,28.4883 A2.5,2.5 0 0 1 1558,30.9883 L1558,236.45 A2.5,2.5 0 0 1 1555.5,238.95 L1412.5,238.95 A2.5,2.5 0 0 1 1410,236.45 L1410,8.5 A2.5,2.5 0 0 1 1412.5,6" fill="none" style="stroke:#000000;stroke-width:1.5;"/><line style="stroke:#000000;stroke-width:1.5;" x1="1410" x2="1468.0488" y1="28.4883" y2="28.4883"/><text fill="#000000" font-family="sans-serif" font-size="14" font-weight="bold" lengthAdjust="spacing" textLength="45.0488" x="1414" y="21.5352">health</text></g><!--cluster errors--><g class="cluster" data-entity="errors" data-source-line="70" data-uid="ent0027" id="cluster_errors"><path d="M498.5,14 L543.6533,14 A3.75,3.75 0 0 1 546.1533,16.5 L553.1533,36.4883 L854.5,36.4883 A2.5,2.5 0 0 1 857,38.9883 L857,228.45 A2.5,2.5 0 0 1 854.5,230.95 L498.5,230.95 A2.5,2.5 0 0 1 496,228.45 L496,16.5 A2.5,2.5 0 0 1 498.5,14" fill="none" style="stroke:#000000;stroke-width:1.5;"/><line style="stroke:#000000;stroke-width:1.5;" x1="496" x2="553.1533" y1="36.4883" y2="36.4883"/><text fill="#000000" font-family="sans-serif" font-size="14" font-weight="bold" lengthAdjust="spacing" textLength="44.1533" x="500" y="29.5352">errors</text></g><!--cluster config--><g class="cluster" data-entity="config" data-source-line="92" data-uid="ent0037" id="cluster_config"><path d="M1855.5,6 L1901.6787,6 A3.75,3.75 0 0 1 1904.1787,8.5 L1911.1787,28.4883 L1998.5,28.4883 A2.5,2.5 0 0 1 2001,30.9883 L2001,236.45 A2.5,2.5 0 0 1 1998.5,238.95 L1855.5,238.95 A2.5,2.5 0 0 1 1853,236.45 L1853,8.5 A2.5,2.5 0 0 1 1855.5,6" fill="none" style="stroke:#000000;stroke-width:1.5;"/><line style="stroke:#000000;stroke-width:1.5;" x1="1853" x2="1911.1787" y1="28.4883" y2="28.4883"/><text fill="#000000" font-family="sans-serif" font-size="14" font-weight="bold" lengthAdjust="spacing" textLength="45.1787" x="1857" y="21.5352">config</text></g><!--cluster db--><g class="cluster" data-entity="db" data-source-line="102" data-uid="ent0041" id="cluster_db"><path d="M1600.5,6 L1620.0527,6 A3.75,3.75 0 0 1 1622.5527,8.5 L1629.5527,28.4883 L1809.5,28.4883 A2.5,2.5 0 0 1 1812,30.9883 L1812,236.45 A2.5,2.5 0 0 1 1809.5,238.95 L1600.5,238.95 A2.5,2.5 0 0 1 1598,236.45 L1598,8.5 A2.5,2.5 0 0 1 1600.5,6" fill="none" style="stroke:#000000;stroke-width:1.5;"/><line style="stroke:#000000;stroke-width:1.5;" x1="1598" x2="1629.5527" y1="28.4883" y2="28.4883"/><text fill="#000000" font-family="sans-serif" font-size="14" font-weight="bold" lengthAdjust="spacing" textLength="18.5527" x="1602" y="21.5352">db</text></g><!--cluster di--><g class="cluster" data-entity="di" data-source-line="116" data-uid="ent0047" id="cluster_di"><path d="M2043.5,6 L2058.3291,6 A3.75,3.75 0 0 1 2060.8291,8.5 L2067.8291,28.4883 L2186.5,28.4883 A2.5,2.5 0 0 1 2189,30.9883 L2189,236.45 A2.5,2.5 0 0 1 2186.5,238.95 L2043.5,238.95 A2.5,2.5 0 0 1 2041,236.45 L2041,8.5 A2.5,2.5 0 0 1 2043.5,6" fill="none" style="stroke:#000000;stroke-width:1.5;"/><line style="stroke:#000000;stroke-width:1.5;" x1="2041" x2="2067.8291" y1="28.4883" y2="28.4883"/><text fill="#000000" font-family="sans-serif" font-size="14" font-weight="bold" lengthAdjust="spacing" textLength="13.8291" x="2045" y="21.5352">di</text></g><path d="M67.7,161.98 L140.2928,161.98 A3.75,3.75 0 0 1 142.7928,164.48 L149.7928,184.4683 L154.2928,184.4683 A2.5,2.5 0 0 1 156.7928,186.9683 L156.7928,212.4566 A2.5,2.5 0 0 1 154.2928,214.9566 L67.7,214.9566 A2.5,2.5 0 0 1 65.2,212.4566 L65.2,164.48 A2.5,2.5 0 0 1 67.7,161.98" fill="#F1F1F1" style="stroke:#181818;stroke-width:0.5;"/><line style="stroke:#181818;stroke-width:0.5;" x1="65.2" x2="149.7928" y1="184.4683" y2="184.4683"/><text fill="#000000" font-family="sans-serif" font-size="14" font-weight="bold" lengthAdjust="spacing" textLength="71.5928" x="69.2" y="177.5152">interfaces</text><path d="M32.29,49 L55.705,49 A3.75,3.75 0 0 1 58.205,51.5 L65.205,71.4883 L69.705,71.4883 A2.5,2.5 0 0 1 72.205,73.9883 L72.205,99.4766 A2.5,2.5 0 0 1 69.705,101.9766 L32.29,101.9766 A2.5,2.5 0 0 1 29.79,99.4766 L29.79,51.5 A2.5,2.5 0 0 1 32.29,49" fill="#F1F1F1" style="stroke:#181818;stroke-width:0.5;"/><line style="stroke:#181818;stroke-width:0.5;" x1="29.79" x2="65.205" y1="71.4883" y2="71.4883"/><text fill="#000000" font-family="sans-serif" font-size="14" font-weight="bold" lengthAdjust="spacing" textLength="22.415" x="33.79" y="64.5352">jwt</text><path d="M109.39,49 L140.6117,49 A3.75,3.75 0 0 1 143.1117,51.5 L150.1117,71.4883 L154.6117,71.4883 A2.5,2.5 0 0 1 157.1117,73.9883 L157.1117,99.4766 A2.5,2.5 0 0 1 154.6117,101.9766 L109.39,101.9766 A2.5,2.5 0 0 1 106.89,99.4766 L106.89,51.5 A2.5,2.5 0 0 1 109.39,49" fill="#F1F1F1" style="stroke:#181818;stroke-width:0.5;"/><line style="stroke:#181818;stroke-width:0.5;" x1="106.89" x2="150.1117" y1="71.4883" y2="71.4883"/><text fill="#000000" font-family="sans-serif" font-size="14" font-weight="bold" lengthAdjust="spacing" textLength="30.2217" x="110.89" y="64.5352">oidc</text><path d="M366.7,161.98 L439.2928,161.98 A3.75,3.75 0 0 1 441.7928,164.48 L448.7928,184.4683 L453.2928,184.4683 A2.5,2.5 0 0 1 455.7928,186.9683 L455.7928,212.4566 A2.5,2.5 0 0 1 453.2928,214.9566 L366.7,214.9566 A2.5,2.5 0 0 1 364.2,212.4566 L364.2,164.48 A2.5,2.5 0 0 1 366.7,161.98" fill="#F1F1F1" style="stroke:#181818;stroke-width:0.5;"/><line style="stroke:#181818;stroke-width:0.5;" x1="364.2" x2="448.7928" y1="184.4683" y2="184.4683"/><text fill="#000000" font-family="sans-serif" font-size="14" font-weight="bold" lengthAdjust="spacing" textLength="71.5928" x="368.2" y="177.5152">interfaces</text><path d="M389.61,49 L416.3883,49 A3.75,3.75 0 0 1 418.8883,51.5 L425.8883,71.4883 L430.3883,71.4883 A2.5,2.5 0 0 1 432.8883,73.9883 L432.8883,99.4766 A2.5,2.5 0 0 1 430.3883,101.9766 L389.61,101.9766 A2.5,2.5 0 0 1 387.11,99.4766 L387.11,51.5 A2.5,2.5 0 0 1 389.61,49" fill="#F1F1F1" style="stroke:#181818;stroke-width:0.5;"/><line style="stroke:#181818;stroke-width:0.5;" x1="387.11" x2="425.8883" y1="71.4883" y2="71.4883"/><text fill="#000000" font-family="sans-serif" font-size="14" font-weight="bold" lengthAdjust="spacing" textLength="25.7783" x="391.11" y="64.5352">zap</text><path d="M1145.7,161.98 L1218.2928,161.98 A3.75,3.75 0 0 1 1220.7928,164.48 L1227.7928,184.4683 L1232.2928,184.4683 A2.5,2.5 0 0 1 1234.7928,186.9683 L1234.7928,212.4566 A2.5,2.5 0 0 1 1232.2928,214.9566 L1145.7,214.9566 A2.5,2.5 0 0 1 1143.2,212.4566 L1143.2,164.48 A2.5,2.5 0 0 1 1145.7,161.98" fill="#F1F1F1" style="stroke:#181818;stroke-width:0.5;"/><line style="stroke:#181818;stroke-width:0.5;" x1="1143.2" x2="1227.7928" y1="184.4683" y2="184.4683"/><text fill="#000000" font-family="sans-serif" font-size="14" font-weight="bold" lengthAdjust="spacing" textLength="71.5928" x="1147.2" y="177.5152">interfaces</text><path d="M1063.23,49 L1150.773,49 A3.75,3.75 0 0 1 1153.273,51.5 L1160.273,71.4883 L1164.773,71.4883 A2.5,2.5 0 0 1 1167.273,73.9883 L1167.273,99.4766 A2.5,2.5 0 0 1 1164.773,101.9766 L1063.23,101.9766 A2.5,2.5 0 0 1 1060.73,99.4766 L1060.73,51.5 A2.5,2.5 0 0 1 1063.23,49" fill="#F1F1F1" style="stroke:#181818;stroke-width:0.5;"/><line style="stroke:#181818;stroke-width:0.5;" x1="1060.73" x2="1160.273" y1="71.4883" y2="71.4883"/><text fill="#000000" font-family="sans-serif" font-size="14" font-weight="bold" lengthAdjust="spacing" textLength="86.543" x="1064.73" y="64.5352">prometheus</text><path d="M1204.39,49 L1309.6175,49 A3.75,3.75 0 0 1 1312.1175,51.5 L1319.1175,71.4883 L1323.6175,71.4883 A2.5,2.5 0 0 1 1326.1175,73.9883 L1326.1175,99.4766 A2.5,2.5 0 0 1 1323.6175,101.9766 L1204.39,101.9766 A2.5,2.5 0 0 1 1201.89,99.4766 L1201.89,51.5 A2.5,2.5 0 0 1 1204.39,49" fill="#F1F1F1" style="stroke:#181818;stroke-width:0.5;"/><line style="stroke:#181818;stroke-width:0.5;" x1="1201.89" x2="1319.1175" y1="71.4883" y2="71.4883"/><text fill="#000000" font-family="sans-serif" font-size="14" font-weight="bold" lengthAdjust="spacing" textLength="104.2275" x="1205.89" y="64.5352">opentelemetry</text><path d="M230.34,49 L315.6545,49 A3.75,3.75 0 0 1 318.1545,51.5 L325.1545,71.4883 L329.6545,71.4883 A2.5,2.5 0 0 1 332.1545,73.9883 L332.1545,99.4766 A2.5,2.5 0 0 1 329.6545,101.9766 L230.34,101.9766 A2.5,2.5 0 0 1 227.84,99.4766 L227.84,51.5 A2.5,2.5 0 0 1 230.34,49" fill="#F1F1F1" style="stroke:#181818;stroke-width:0.5;"/><line style="stroke:#181818;stroke-width:0.5;" x1="227.84" x2="325.1545" y1="71.4883" y2="71.4883"/><text fill="#000000" font-family="sans-serif" font-size="14" font-weight="bold" lengthAdjust="spacing" textLength="84.3145" x="231.84" y="64.5352">middleware</text><path d="M899.7,274.95 L972.2928,274.95 A3.75,3.75 0 0 1 974.7928,277.45 L981.7928,297.4383 L986.2928,297.4383 A2.5,2.5 0 0 1 988.7928,299.9383 L988.7928,325.4266 A2.5,2.5 0 0 1 986.2928,327.9266 L899.7,327.9266 A2.5,2.5 0 0 1 897.2,325.4266 L897.2,277.45 A2.5,2.5 0 0 1 899.7,274.95" fill="#F1F1F1" style="stroke:#181818;stroke-width:0.5;"/><line style="stroke:#181818;stroke-width:0.5;" x1="897.2" x2="981.7928" y1="297.4383" y2="297.4383"/><text fill="#000000" font-family="sans-serif" font-size="14" font-weight="bold" lengthAdjust="spacing" textLength="71.5928" x="901.2" y="290.4852">interfaces</text><path d="M919.52,161.98 L952.478,161.98 A3.75,3.75 0 0 1 954.978,164.48 L961.978,184.4683 L966.478,184.4683 A2.5,2.5 0 0 1 968.978,186.9683 L968.978,212.4566 A2.5,2.5 0 0 1 966.478,214.9566 L919.52,214.9566 A2.5,2.5 0 0 1 917.02,212.4566 L917.02,164.48 A2.5,2.5 0 0 1 919.52,161.98" fill="#F1F1F1" style="stroke:#181818;stroke-width:0.5;"/><line style="stroke:#181818;stroke-width:0.5;" x1="917.02" x2="961.978" y1="184.4683" y2="184.4683"/><text fill="#000000" font-family="sans-serif" font-size="14" font-weight="bold" lengthAdjust="spacing" textLength="31.958" x="921.02" y="177.5152">impl</text><path d="M1436.7,161.98 L1509.2928,161.98 A3.75,3.75 0 0 1 1511.7928,164.48 L1518.7928,184.4683 L1523.2928,184.4683 A2.5,2.5 0 0 1 1525.7928,186.9683 L1525.7928,212.4566 A2.5,2.5 0 0 1 1523.2928,214.9566 L1436.7,214.9566 A2.5,2.5 0 0 1 1434.2,212.4566 L1434.2,164.48 A2.5,2.5 0 0 1 1436.7,161.98" fill="#F1F1F1" style="stroke:#181818;stroke-width:0.5;"/><line style="stroke:#181818;stroke-width:0.5;" x1="1434.2" x2="1518.7928" y1="184.4683" y2="184.4683"/><text fill="#000000" font-family="sans-serif" font-size="14" font-weight="bold" lengthAdjust="spacing" textLength="71.5928" x="1438.2" y="177.5152">interfaces</text><path d="M1456.52,49 L1489.478,49 A3.75,3.75 0 0 1 1491.978,51.5 L1498.978,71.4883 L1503.478,71.4883 A2.5,2.5 0 0 1 1505.978,73.9883 L1505.978,99.4766 A2.5,2.5 0 0 1 1503.478,101.9766 L1456.52,101.9766 A2.5,2.5 0 0 1 1454.02,99.4766 L1454.02,51.5 A2.5,2.5 0 0 1 1456.52,49" fill="#F1F1F1" style="stroke:#181818;stroke-width:0.5;"/><line style="stroke:#181818;stroke-width:0.5;" x1="1454.02" x2="1498.978" y1="71.4883" y2="71.4883"/><text fill="#000000" font-family="sans-serif" font-size="14" font-weight="bold" lengthAdjust="spacing" textLength="31.958" x="1458.02" y="64.5352">impl</text><path d="M718.7,161.98 L791.2928,161.98 A3.75,3.75 0 0 1 793.7928,164.48 L800.7928,184.4683 L805.2928,184.4683 A2.5,2.5 0 0 1 807.7928,186.9683 L807.7928,212.4566 A2.5,2.5 0 0 1 805.2928,214.9566 L718.7,214.9566 A2.5,2.5 0 0 1 716.2,212.4566 L716.2,164.48 A2.5,2.5 0 0 1 718.7,161.98" fill="#F1F1F1" style="stroke:#181818;stroke-width:0.5;"/><line style="stroke:#181818;stroke-width:0.5;" x1="716.2" x2="800.7928" y1="184.4683" y2="184.4683"/><text fill="#000000" font-family="sans-serif" font-size="14" font-weight="bold" lengthAdjust="spacing" textLength="71.5928" x="720.2" y="177.5152">interfaces</text><path d="M514.02,49 L545.98,49 A3.75,3.75 0 0 1 548.48,51.5 L555.48,71.4883 L559.98,71.4883 A2.5,2.5 0 0 1 562.48,73.9883 L562.48,99.4766 A2.5,2.5 0 0 1 559.98,101.9766 L514.02,101.9766 A2.5,2.5 0 0 1 511.52,99.4766 L511.52,51.5 A2.5,2.5 0 0 1 514.02,49" fill="#F1F1F1" style="stroke:#181818;stroke-width:0.5;"/><line style="stroke:#181818;stroke-width:0.5;" x1="511.52" x2="555.48" y1="71.4883" y2="71.4883"/><text fill="#000000" font-family="sans-serif" font-size="14" font-weight="bold" lengthAdjust="spacing" textLength="30.96" x="515.52" y="64.5352">core</text><path d="M599.61,49 L654.3815,49 A3.75,3.75 0 0 1 656.8815,51.5 L663.8815,71.4883 L668.3815,71.4883 A2.5,2.5 0 0 1 670.8815,73.9883 L670.8815,99.4766 A2.5,2.5 0 0 1 668.3815,101.9766 L599.61,101.9766 A2.5,2.5 0 0 1 597.11,99.4766 L597.11,51.5 A2.5,2.5 0 0 1 599.61,49" fill="#F1F1F1" style="stroke:#181818;stroke-width:0.5;"/><line style="stroke:#181818;stroke-width:0.5;" x1="597.11" x2="663.8815" y1="71.4883" y2="71.4883"/><text fill="#000000" font-family="sans-serif" font-size="14" font-weight="bold" lengthAdjust="spacing" textLength="53.7715" x="601.11" y="64.5352">domain</text><path d="M708.11,49 L735.8932,49 A3.75,3.75 0 0 1 738.3932,51.5 L745.3932,71.4883 L749.8932,71.4883 A2.5,2.5 0 0 1 752.3932,73.9883 L752.3932,99.4766 A2.5,2.5 0 0 1 749.8932,101.9766 L708.11,101.9766 A2.5,2.5 0 0 1 705.61,99.4766 L705.61,51.5 A2.5,2.5 0 0 1 708.11,49" fill="#F1F1F1" style="stroke:#181818;stroke-width:0.5;"/><line style="stroke:#181818;stroke-width:0.5;" x1="705.61" x2="745.3932" y1="71.4883" y2="71.4883"/><text fill="#000000" font-family="sans-serif" font-size="14" font-weight="bold" lengthAdjust="spacing" textLength="26.7832" x="709.61" y="64.5352">app</text><path d="M789.43,49 L824.5755,49 A3.75,3.75 0 0 1 827.0755,51.5 L834.0755,71.4883 L838.5755,71.4883 A2.5,2.5 0 0 1 841.0755,73.9883 L841.0755,99.4766 A2.5,2.5 0 0 1 838.5755,101.9766 L789.43,101.9766 A2.5,2.5 0 0 1 786.93,99.4766 L786.93,51.5 A2.5,2.5 0 0 1 789.43,49" fill="#F1F1F1" style="stroke:#181818;stroke-width:0.5;"/><line style="stroke:#181818;stroke-width:0.5;" x1="786.93" x2="834.0755" y1="71.4883" y2="71.4883"/><text fill="#000000" font-family="sans-serif" font-size="14" font-weight="bold" lengthAdjust="spacing" textLength="34.1455" x="790.93" y="64.5352">infra</text><path d="M1887.7,161.98 L1960.2928,161.98 A3.75,3.75 0 0 1 1962.7928,164.48 L1969.7928,184.4683 L1974.2928,184.4683 A2.5,2.5 0 0 1 1976.7928,186.9683 L1976.7928,212.4566 A2.5,2.5 0 0 1 1974.2928,214.9566 L1887.7,214.9566 A2.5,2.5 0 0 1 1885.2,212.4566 L1885.2,164.48 A2.5,2.5 0 0 1 1887.7,161.98" fill="#F1F1F1" style="stroke:#181818;stroke-width:0.5;"/><line style="stroke:#181818;stroke-width:0.5;" x1="1885.2" x2="1969.7928" y1="184.4683" y2="184.4683"/><text fill="#000000" font-family="sans-serif" font-size="14" font-weight="bold" lengthAdjust="spacing" textLength="71.5928" x="1889.2" y="177.5152">interfaces</text><path d="M1907.52,49 L1940.478,49 A3.75,3.75 0 0 1 1942.978,51.5 L1949.978,71.4883 L1954.478,71.4883 A2.5,2.5 0 0 1 1956.978,73.9883 L1956.978,99.4766 A2.5,2.5 0 0 1 1954.478,101.9766 L1907.52,101.9766 A2.5,2.5 0 0 1 1905.02,99.4766 L1905.02,51.5 A2.5,2.5 0 0 1 1907.52,49" fill="#F1F1F1" style="stroke:#181818;stroke-width:0.5;"/><line style="stroke:#181818;stroke-width:0.5;" x1="1905.02" x2="1949.978" y1="71.4883" y2="71.4883"/><text fill="#000000" font-family="sans-serif" font-size="14" font-weight="bold" lengthAdjust="spacing" textLength="31.958" x="1909.02" y="64.5352">impl</text><path d="M1624.7,161.98 L1697.2928,161.98 A3.75,3.75 0 0 1 1699.7928,164.48 L1706.7928,184.4683 L1711.2928,184.4683 A2.5,2.5 0 0 1 1713.7928,186.9683 L1713.7928,212.4566 A2.5,2.5 0 0 1 1711.2928,214.9566 L1624.7,214.9566 A2.5,2.5 0 0 1 1622.2,212.4566 L1622.2,164.48 A2.5,2.5 0 0 1 1624.7,161.98" fill="#F1F1F1" style="stroke:#181818;stroke-width:0.5;"/><line style="stroke:#181818;stroke-width:0.5;" x1="1622.2" x2="1706.7928" y1="184.4683" y2="184.4683"/><text fill="#000000" font-family="sans-serif" font-size="14" font-weight="bold" lengthAdjust="spacing" textLength="71.5928" x="1626.2" y="177.5152">interfaces</text><path d="M1624.63,49 L1647.3751,49 A3.75,3.75 0 0 1 1649.8751,51.5 L1656.8751,71.4883 L1661.3751,71.4883 A2.5,2.5 0 0 1 1663.8751,73.9883 L1663.8751,99.4766 A2.5,2.5 0 0 1 1661.3751,101.9766 L1624.63,101.9766 A2.5,2.5 0 0 1 1622.13,99.4766 L1622.13,51.5 A2.5,2.5 0 0 1 1624.63,49" fill="#F1F1F1" style="stroke:#181818;stroke-width:0.5;"/><line style="stroke:#181818;stroke-width:0.5;" x1="1622.13" x2="1656.8751" y1="71.4883" y2="71.4883"/><text fill="#000000" font-family="sans-serif" font-size="14" font-weight="bold" lengthAdjust="spacing" textLength="21.7451" x="1626.13" y="64.5352">sql</text><path d="M1701.56,49 L1752.4487,49 A3.75,3.75 0 0 1 1754.9487,51.5 L1761.9487,71.4883 L1766.4487,71.4883 A2.5,2.5 0 0 1 1768.9487,73.9883 L1768.9487,99.4766 A2.5,2.5 0 0 1 1766.4487,101.9766 L1701.56,101.9766 A2.5,2.5 0 0 1 1699.06,99.4766 L1699.06,51.5 A2.5,2.5 0 0 1 1701.56,49" fill="#F1F1F1" style="stroke:#181818;stroke-width:0.5;"/><line style="stroke:#181818;stroke-width:0.5;" x1="1699.06" x2="1761.9487" y1="71.4883" y2="71.4883"/><text fill="#000000" font-family="sans-serif" font-size="14" font-weight="bold" lengthAdjust="spacing" textLength="49.8887" x="1703.06" y="64.5352">mongo</text><path d="M2075.7,161.98 L2148.2928,161.98 A3.75,3.75 0 0 1 2150.7928,164.48 L2157.7928,184.4683 L2162.2928,184.4683 A2.5,2.5 0 0 1 2164.7928,186.9683 L2164.7928,212.4566 A2.5,2.5 0 0 1 2162.2928,214.9566 L2075.7,214.9566 A2.5,2.5 0 0 1 2073.2,212.4566 L2073.2,164.48 A2.5,2.5 0 0 1 2075.7,161.98" fill="#F1F1F1" style="stroke:#181818;stroke-width:0.5;"/><line style="stroke:#181818;stroke-width:0.5;" x1="2073.2" x2="2157.7928" y1="184.4683" y2="184.4683"/><text fill="#000000" font-family="sans-serif" font-size="14" font-weight="bold" lengthAdjust="spacing" textLength="71.5928" x="2077.2" y="177.5152">interfaces</text><path d="M2095.52,49 L2128.478,49 A3.75,3.75 0 0 1 2130.978,51.5 L2137.978,71.4883 L2142.478,71.4883 A2.5,2.5 0 0 1 2144.978,73.9883 L2144.978,99.4766 A2.5,2.5 0 0 1 2142.478,101.9766 L2095.52,101.9766 A2.5,2.5 0 0 1 2093.02,99.4766 L2093.02,51.5 A2.5,2.5 0 0 1 2095.52,49" fill="#F1F1F1" style="stroke:#181818;stroke-width:0.5;"/><line style="stroke:#181818;stroke-width:0.5;" x1="2093.02" x2="2137.978" y1="71.4883" y2="71.4883"/><text fill="#000000" font-family="sans-serif" font-size="14" font-weight="bold" lengthAdjust="spacing" textLength="31.958" x="2097.02" y="64.5352">impl</text><path d="M878.12,49 L913.8876,49 A3.75,3.75 0 0 1 916.3876,51.5 L923.3876,71.4883 L927.8876,71.4883 A2.5,2.5 0 0 1 930.3876,73.9883 L930.3876,99.4766 A2.5,2.5 0 0 1 927.8876,101.9766 L878.12,101.9766 A2.5,2.5 0 0 1 875.62,99.4766 L875.62,51.5 A2.5,2.5 0 0 1 878.12,49" fill="#F1F1F1" style="stroke:#181818;stroke-width:0.5;"/><line style="stroke:#181818;stroke-width:0.5;" x1="875.62" x2="923.3876" y1="71.4883" y2="71.4883"/><text fill="#000000" font-family="sans-serif" font-size="14" font-weight="bold" lengthAdjust="spacing" textLength="34.7676" x="879.62" y="64.5352">retry</text><!--link auth_jwt to auth_interfaces--><g class="link" data-entity-1="auth_jwt" data-entity-2="auth_interfaces" data-source-line="19" data-uid="lnk6" id="link_auth_jwt_auth_interfaces"><path codeLine="19" d="M64.92,102.23 C74.54,120.03 84.4466,138.3519 94.0966,156.2019" fill="none" id="auth_jwt-to-auth_interfaces" style="stroke:#000000;stroke-width:1;"/><polygon fill="#000000" points="96.95,161.48,96.1886,151.6606,94.5722,157.0816,89.1512,155.4652,96.95,161.48" style="stroke:#000000;stroke-width:1;"/></g><!--link auth_oidc to auth_interfaces--><g class="link" data-entity-1="auth_oidc" data-entity-2="auth_interfaces" data-source-line="20" data-uid="lnk7" id="link_auth_oidc_auth_interfaces"><path codeLine="20" d="M127.13,102.23 C123.76,120.03 120.4163,137.7348 117.0363,155.5848" fill="none" id="auth_oidc-to-auth_interfaces" style="stroke:#000000;stroke-width:1;"/><polygon fill="#000000" points="115.92,161.48,121.5246,153.3813,116.8502,156.5673,113.6643,151.8929,115.92,161.48" style="stroke:#000000;stroke-width:1;"/></g><!--link logging_zap to logging_interfaces--><g class="link" data-entity-1="logging_zap" data-entity-2="logging_interfaces" data-source-line="30" data-uid="lnk11" id="link_logging_zap_logging_interfaces"><path codeLine="30" d="M410,102.23 C410,120.03 410,137.63 410,155.48" fill="none" id="logging_zap-to-logging_interfaces" style="stroke:#000000;stroke-width:1;"/><polygon fill="#000000" points="410,161.48,414,152.48,410,156.48,406,152.48,410,161.48" style="stroke:#000000;stroke-width:1;"/></g><!--link telemetry_prometheus to telemetry_interfaces--><g class="link" data-entity-1="telemetry_prometheus" data-entity-2="telemetry_interfaces" data-source-line="43" data-uid="lnk16" id="link_telemetry_prometheus_telemetry_interfaces"><path codeLine="43" d="M1131.4,102.23 C1143.42,120.03 1156.0091,138.6597 1168.0791,156.5097" fill="none" id="telemetry_prometheus-to-telemetry_interfaces" style="stroke:#000000;stroke-width:1;"/><polygon fill="#000000" points="1171.44,161.48,1169.7122,151.7839,1168.6392,157.338,1163.0851,156.2651,1171.44,161.48" style="stroke:#000000;stroke-width:1;"/></g><!--link telemetry_opentelemetry to telemetry_interfaces--><g class="link" data-entity-1="telemetry_opentelemetry" data-entity-2="telemetry_interfaces" data-source-line="44" data-uid="lnk17" id="link_telemetry_opentelemetry_telemetry_interfaces"><path codeLine="44" d="M1246.6,102.23 C1234.58,120.03 1221.9909,138.6597 1209.9209,156.5097" fill="none" id="telemetry_opentelemetry-to-telemetry_interfaces" style="stroke:#000000;stroke-width:1;"/><polygon fill="#000000" points="1206.56,161.48,1214.9149,156.2651,1209.3608,157.338,1208.2878,151.7839,1206.56,161.48" style="stroke:#000000;stroke-width:1;"/></g><!--link context_impl to context_interfaces--><g class="link" data-entity-1="context_impl" data-entity-2="context_interfaces" data-source-line="57" data-uid="lnk22" id="link_context_impl_context_interfaces"><path codeLine="57" d="M943,215.2 C943,233 943,250.6 943,268.46" fill="none" id="context_impl-to-context_interfaces" style="stroke:#000000;stroke-width:1;"/><polygon fill="#000000" points="943,274.46,947,265.46,943,269.46,939,265.46,943,274.46" style="stroke:#000000;stroke-width:1;"/></g><!--link health_impl to health_interfaces--><g class="link" data-entity-1="health_impl" data-entity-2="health_interfaces" data-source-line="67" data-uid="lnk26" id="link_health_impl_health_interfaces"><path codeLine="67" d="M1480,102.23 C1480,120.03 1480,137.63 1480,155.48" fill="none" id="health_impl-to-health_interfaces" style="stroke:#000000;stroke-width:1;"/><polygon fill="#000000" points="1480,161.48,1484,152.48,1480,156.48,1476,152.48,1480,161.48" style="stroke:#000000;stroke-width:1;"/></g><!--link errors_core to errors_interfaces--><g class="link" data-entity-1="errors_core" data-entity-2="errors_interfaces" data-source-line="86" data-uid="lnk33" id="link_errors_core_errors_interfaces"><path codeLine="86" d="M562.69,92.26 C568.34,95.57 574.33,98.97 580,101.98 C625.35,126 673.1526,148.171 710.3026,164.781" fill="none" id="errors_core-to-errors_interfaces" style="stroke:#000000;stroke-width:1;"/><polygon fill="#000000" points="715.78,167.23,709.1965,159.9049,711.2155,165.1892,705.9312,167.2081,715.78,167.23" style="stroke:#000000;stroke-width:1;"/></g><!--link errors_domain to errors_interfaces--><g class="link" data-entity-1="errors_domain" data-entity-2="errors_interfaces" data-source-line="87" data-uid="lnk34" id="link_errors_domain_errors_interfaces"><path codeLine="87" d="M663.69,102.23 C684.22,120.03 706.9064,139.6997 727.4964,157.5497" fill="none" id="errors_domain-to-errors_interfaces" style="stroke:#000000;stroke-width:1;"/><polygon fill="#000000" points="732.03,161.48,727.8498,152.5623,728.252,158.2048,722.6095,158.607,732.03,161.48" style="stroke:#000000;stroke-width:1;"/></g><!--link errors_app to errors_interfaces--><g class="link" data-entity-1="errors_app" data-entity-2="errors_interfaces" data-source-line="88" data-uid="lnk35" id="link_errors_app_errors_interfaces"><path codeLine="88" d="M736.65,102.23 C741.95,120.03 747.2492,137.8791 752.5592,155.7291" fill="none" id="errors_app-to-errors_interfaces" style="stroke:#000000;stroke-width:1;"/><polygon fill="#000000" points="754.27,161.48,755.5378,151.7131,752.8443,156.6876,747.8699,153.9941,754.27,161.48" style="stroke:#000000;stroke-width:1;"/></g><!--link errors_infra to errors_interfaces--><g class="link" data-entity-1="errors_infra" data-entity-2="errors_interfaces" data-source-line="89" data-uid="lnk36" id="link_errors_infra_errors_interfaces"><path codeLine="89" d="M801.94,102.23 C793.6,120.03 785.0848,138.1964 776.7248,156.0464" fill="none" id="errors_infra-to-errors_interfaces" style="stroke:#000000;stroke-width:1;"/><polygon fill="#000000" points="774.18,161.48,781.6196,155.0261,776.3007,156.952,774.3748,151.6331,774.18,161.48" style="stroke:#000000;stroke-width:1;"/></g><!--link config_impl to config_interfaces--><g class="link" data-entity-1="config_impl" data-entity-2="config_interfaces" data-source-line="99" data-uid="lnk40" id="link_config_impl_config_interfaces"><path codeLine="99" d="M1931,102.23 C1931,120.03 1931,137.63 1931,155.48" fill="none" id="config_impl-to-config_interfaces" style="stroke:#000000;stroke-width:1;"/><polygon fill="#000000" points="1931,161.48,1935,152.48,1931,156.48,1927,152.48,1931,161.48" style="stroke:#000000;stroke-width:1;"/></g><!--link db_sql to db_interfaces--><g class="link" data-entity-1="db_sql" data-entity-2="db_interfaces" data-source-line="112" data-uid="lnk45" id="link_db_sql_db_interfaces"><path codeLine="112" d="M1648.8,102.23 C1652.81,120.03 1656.7986,137.7773 1660.8286,155.6273" fill="none" id="db_sql-to-db_interfaces" style="stroke:#000000;stroke-width:1;"/><polygon fill="#000000" points="1662.15,161.48,1664.0697,151.8201,1661.0489,156.6028,1656.2662,153.5819,1662.15,161.48" style="stroke:#000000;stroke-width:1;"/></g><!--link db_mongo to db_interfaces--><g class="link" data-entity-1="db_mongo" data-entity-2="db_interfaces" data-source-line="113" data-uid="lnk46" id="link_db_mongo_db_interfaces"><path codeLine="113" d="M1718.69,102.23 C1708.11,120.03 1697.1378,138.4736 1686.5178,156.3236" fill="none" id="db_mongo-to-db_interfaces" style="stroke:#000000;stroke-width:1;"/><polygon fill="#000000" points="1683.45,161.48,1691.4893,155.7906,1686.0065,157.183,1684.6142,151.7002,1683.45,161.48" style="stroke:#000000;stroke-width:1;"/></g><!--link di_impl to di_interfaces--><g class="link" data-entity-1="di_impl" data-entity-2="di_interfaces" data-source-line="123" data-uid="lnk50" id="link_di_impl_di_interfaces"><path codeLine="123" d="M2119,102.23 C2119,120.03 2119,137.63 2119,155.48" fill="none" id="di_impl-to-di_interfaces" style="stroke:#000000;stroke-width:1;"/><polygon fill="#000000" points="2119,161.48,2123,152.48,2119,156.48,2115,152.48,2119,161.48" style="stroke:#000000;stroke-width:1;"/></g><!--link auth to logging_interfaces--><g class="link" data-entity-1="auth" data-entity-2="logging_interfaces" data-source-line="129" data-uid="lnk52" id="link_auth_logging_interfaces"><path codeLine="129" d="M200.008,90.7348 C200.067,90.8204 200.1262,90.906 200.1856,90.9917 C200.3046,91.163 200.4247,91.3344 200.5458,91.5059 C200.7882,91.8488 201.0349,92.192 201.2859,92.5347 C201.7879,93.22 202.307,93.9034 202.8425,94.5794 C204.9844,97.2831 207.3875,99.8675 210,101.98 C256.1,139.25 315.1257,161.2607 358.3357,174.0207" fill="none" id="auth-to-logging_interfaces" style="stroke:#000000;stroke-width:1;"/><polygon fill="#000000" points="364.09,175.72,356.5913,169.3349,359.2947,174.3039,354.3256,177.0073,364.09,175.72" style="stroke:#000000;stroke-width:1;"/></g><!--link auth to middleware--><g class="link" data-entity-1="auth" data-entity-2="middleware" data-source-line="130" data-uid="lnk53" id="link_auth_middleware"><path codeLine="130" d="M200.0255,75.49 C200.1161,75.49 200.2067,75.49 200.2973,75.49 C200.6596,75.49 201.0219,75.49 201.3842,75.49 C204.2828,75.49 207.1819,75.49 210.0813,75.49 C215.88,75.49 215.68,75.49 221.48,75.49" fill="none" id="auth-to-middleware" style="stroke:#000000;stroke-width:1;"/><polygon fill="#000000" points="227.48,75.49,218.48,71.49,222.48,75.49,218.48,79.49,227.48,75.49" style="stroke:#000000;stroke-width:1;"/></g><!--link auth to errors_interfaces--><g class="link" data-entity-1="auth" data-entity-2="errors_interfaces" data-source-line="131" data-uid="lnk54" id="link_auth_errors_interfaces"><path codeLine="131" d="M200.0543,92.4973 C200.0848,92.5401 200.1154,92.5829 200.146,92.6256 C200.2073,92.7111 200.2689,92.7966 200.3309,92.8818 C200.4549,93.0524 200.5803,93.2225 200.707,93.3919 C201.2141,94.0697 201.7436,94.7378 202.2955,95.3894 C204.5031,97.9956 207.07,100.3375 210,101.98 C260.91,130.48 414.3,110.35 472,118.98 C559.23,132.01 653.1329,156.4499 709.9729,172.3899" fill="none" id="auth-to-errors_interfaces" style="stroke:#000000;stroke-width:1;"/><polygon fill="#000000" points="715.75,174.01,708.1644,167.7284,710.9357,172.6599,706.0042,175.4312,715.75,174.01" style="stroke:#000000;stroke-width:1;"/></g><!--link telemetry to logging_interfaces--><g class="link" data-entity-1="telemetry" data-entity-2="logging_interfaces" data-source-line="133" data-uid="lnk55" id="link_telemetry_logging_interfaces"><path codeLine="133" d="M1035.2865,117.385 C1032.4164,117.3292 1029.5389,117.2719 1026.6545,117.2132 C1015.1169,116.9784 1003.4694,116.7206 991.7477,116.4458 C968.3043,115.8962 944.5644,115.2783 920.815,114.6388 C730.82,109.5225 540.22,103.02 496,118.98 C471.94,127.66 453.8063,141.8317 437.8863,157.3517" fill="none" id="telemetry-to-logging_interfaces" style="stroke:#000000;stroke-width:1;"/><polygon fill="#000000" points="433.59,161.54,442.8266,158.1217,437.1702,158.0497,437.2422,152.3933,433.59,161.54" style="stroke:#000000;stroke-width:1;"/></g><!--link telemetry to context_interfaces--><g class="link" data-entity-1="telemetry" data-entity-2="context_interfaces" data-source-line="134" data-uid="lnk56" id="link_telemetry_context_interfaces"><path codeLine="134" d="M1369.0747,113.2789 C1369.1132,113.5189 1369.1517,113.7596 1369.19,114.0012 C1369.4966,115.9338 1369.7946,117.9191 1370.0803,119.9516 C1371.223,128.0814 1372.1681,136.9663 1372.6725,146.2575 C1374.69,183.4225 1369.655,227.09 1342,254.95 C1317.5,279.63 1094.8627,293.1749 995.1427,298.0849" fill="none" id="telemetry-to-context_interfaces" style="stroke:#000000;stroke-width:1;"/><polygon fill="#000000" points="989.15,298.38,998.3358,301.9326,994.144,298.1341,997.9424,293.9422,989.15,298.38" style="stroke:#000000;stroke-width:1;"/></g><!--link middleware to logging_interfaces--><g class="link" data-entity-1="middleware" data-entity-2="logging_interfaces" data-source-line="136" data-uid="lnk57" id="link_middleware_logging_interfaces"><path codeLine="136" d="M310.15,102.23 C331,120.03 354.0866,139.7344 374.9966,157.5844" fill="none" id="middleware-to-logging_interfaces" style="stroke:#000000;stroke-width:1;"/><polygon fill="#000000" points="379.56,161.48,375.312,152.5944,375.7572,158.2337,370.1179,158.6789,379.56,161.48" style="stroke:#000000;stroke-width:1;"/></g><!--link middleware to context_interfaces--><g class="link" data-entity-1="middleware" data-entity-2="context_interfaces" data-source-line="137" data-uid="lnk58" id="link_middleware_context_interfaces"><path codeLine="137" d="M281.51,102.23 C285.38,142.22 299.12,218.45 348,254.95 C391.63,287.54 758.931,297.1691 890.961,299.6091" fill="none" id="middleware-to-context_interfaces" style="stroke:#000000;stroke-width:1;"/><polygon fill="#000000" points="896.96,299.72,888.0354,295.5544,891.9609,299.6276,887.8876,303.553,896.96,299.72" style="stroke:#000000;stroke-width:1;"/></g><!--link middleware to errors_interfaces--><g class="link" data-entity-1="middleware" data-entity-2="errors_interfaces" data-source-line="138" data-uid="lnk59" id="link_middleware_errors_interfaces"><path codeLine="138" d="M332.35,97.43 C337.59,99.12 342.87,100.68 348,101.98 C401.93,115.6 417.31,108.79 472,118.98 C558.84,135.15 653.0454,158.6911 710.0254,173.6011" fill="none" id="middleware-to-errors_interfaces" style="stroke:#000000;stroke-width:1;"/><polygon fill="#000000" points="715.83,175.12,708.1357,168.972,710.9929,173.8543,706.1106,176.7114,715.83,175.12" style="stroke:#000000;stroke-width:1;"/></g><!--link middleware to auth_interfaces--><g class="link" data-entity-1="middleware" data-entity-2="auth_interfaces" data-source-line="139" data-uid="lnk60" id="link_middleware_auth_interfaces"><path codeLine="139" d="M240.8,102.23 C213.7,120.03 182.7757,140.3372 155.5857,158.1872" fill="none" id="middleware-to-auth_interfaces" style="stroke:#000000;stroke-width:1;"/><polygon fill="#000000" points="150.57,161.48,160.2888,159.8846,154.7498,158.736,155.8984,153.197,150.57,161.48" style="stroke:#000000;stroke-width:1;"/></g><!--link health to logging_interfaces--><g class="link" data-entity-1="health" data-entity-2="logging_interfaces" data-source-line="141" data-uid="lnk61" id="link_health_logging_interfaces"><path codeLine="141" d="M1409.4243,115.562 C1406.7218,115.6407 1403.9876,115.7166 1401.2224,115.7899 C1390.1617,116.0829 1378.6058,116.3331 1366.6094,116.5444 C1270.6381,118.2344 1146.4725,117.4325 1022.0525,116.1575 C773.2125,113.6075 523.355,109.165 496,118.98 C471.93,127.61 453.7823,141.7776 437.8723,157.3176" fill="none" id="health-to-logging_interfaces" style="stroke:#000000;stroke-width:1;"/><polygon fill="#000000" points="433.58,161.51,442.8133,158.0828,437.1569,158.0163,437.2234,152.3598,433.58,161.51" style="stroke:#000000;stroke-width:1;"/></g><!--link health to config_interfaces--><g class="link" data-entity-1="health" data-entity-2="config_interfaces" data-source-line="142" data-uid="lnk62" id="link_health_config_interfaces"><path codeLine="142" d="M1558.1418,81.2429 C1558.2011,81.2762 1558.2607,81.3096 1558.3206,81.3431 C1558.4403,81.4101 1558.5612,81.4777 1558.6831,81.5457 C1559.6582,82.0899 1560.7017,82.6651 1561.8063,83.2649 C1564.0155,84.4643 1566.4691,85.7616 1569.1087,87.1037 C1579.6675,92.4725 1593.205,98.56 1606,101.98 C1683.21,122.59 1707.91,97.92 1785,118.98 C1820.52,128.68 1852.7784,143.6517 1880.8984,158.6817" fill="none" id="health-to-config_interfaces" style="stroke:#000000;stroke-width:1;"/><polygon fill="#000000" points="1886.19,161.51,1880.1382,153.7398,1881.7804,159.1531,1876.3671,160.7952,1886.19,161.51" style="stroke:#000000;stroke-width:1;"/></g><!--link health to db_interfaces--><g class="link" data-entity-1="health" data-entity-2="db_interfaces" data-source-line="143" data-uid="lnk63" id="link_health_db_interfaces"><path codeLine="143" d="M1558.0765,84.0833 C1558.1595,84.1614 1558.2431,84.24 1558.3272,84.3191 C1559.0002,84.9521 1559.7083,85.6181 1560.4492,86.315 C1566.3766,91.89 1574.4069,99.4425 1583.4263,107.925 C1601.465,124.89 1619.0892,141.4645 1636.1292,157.4895" fill="none" id="health-to-db_interfaces" style="stroke:#000000;stroke-width:1;"/><polygon fill="#000000" points="1640.5,161.6,1636.6841,152.5204,1636.8577,158.1746,1631.2035,158.3482,1640.5,161.6" style="stroke:#000000;stroke-width:1;"/></g><!--link errors_interfaces to context_interfaces--><g class="link" data-entity-1="errors_interfaces" data-entity-2="context_interfaces" data-source-line="145" data-uid="lnk64" id="link_errors_interfaces_context_interfaces"><path codeLine="145" d="M803.98,215.2 C833.01,233 866.3854,253.4631 895.5054,271.3231" fill="none" id="errors_interfaces-to-context_interfaces" style="stroke:#000000;stroke-width:1;"/><polygon fill="#000000" points="900.62,274.46,895.0393,266.3448,896.3578,271.8459,890.8567,273.1644,900.62,274.46" style="stroke:#000000;stroke-width:1;"/></g><!--link db to config_interfaces--><g class="link" data-entity-1="db" data-entity-2="config_interfaces" data-source-line="147" data-uid="lnk65" id="link_db_config_interfaces"><path codeLine="147" d="M1812.1599,83.621 C1812.2468,83.697 1812.3344,83.7735 1812.4226,83.8506 C1812.599,84.0047 1812.7778,84.1609 1812.9589,84.3191 C1813.6834,84.9521 1814.4457,85.6181 1815.2433,86.315 C1821.6241,91.89 1830.2681,99.4425 1839.9763,107.925 C1859.3925,124.89 1878.5473,141.6265 1896.8823,157.6515" fill="none" id="db-to-config_interfaces" style="stroke:#000000;stroke-width:1;"/><polygon fill="#000000" points="1901.4,161.6,1897.2558,152.6655,1897.6353,158.3096,1891.9912,158.689,1901.4,161.6" style="stroke:#000000;stroke-width:1;"/></g><!--link db to errors_interfaces--><g class="link" data-entity-1="db" data-entity-2="errors_interfaces" data-source-line="148" data-uid="lnk66" id="link_db_errors_interfaces"><path codeLine="148" d="M1595.307,113.0292 C1593.9111,113.0484 1592.5101,113.0673 1591.1041,113.0859 C1588.2922,113.1231 1585.4605,113.159 1582.6097,113.1936 C1576.9082,113.263 1571.1304,113.3275 1565.2822,113.3873 C1541.8892,113.6268 1517.3693,113.7927 1492.0957,113.9032 C1441.5484,114.1244 1387.9863,114.1244 1334.395,114.05 C1120.03,113.7525 905.2,112.265 881,118.98 C850.11,127.54 823.7767,142.6143 801.0367,158.2243" fill="none" id="db-to-errors_interfaces" style="stroke:#000000;stroke-width:1;"/><polygon fill="#000000" points="796.09,161.62,805.7738,159.8243,800.2122,158.7903,801.2462,153.2287,796.09,161.62" style="stroke:#000000;stroke-width:1;"/></g><!--link db to context_interfaces--><g class="link" data-entity-1="db" data-entity-2="context_interfaces" data-source-line="149" data-uid="lnk67" id="link_db_context_interfaces"><path codeLine="149" d="M1812.1024,111.527 C1812.268,112.475 1812.4319,113.4369 1812.5937,114.4119 C1812.9173,116.3619 1813.2323,118.3644 1813.5347,120.4139 C1814.7441,128.6117 1815.7522,137.5606 1816.3063,146.9025 C1818.5225,184.27 1813.475,227.925 1785,254.95 C1755.95,282.53 1167.0788,296.0817 995.1488,299.4717" fill="none" id="db-to-context_interfaces" style="stroke:#000000;stroke-width:1;"/><polygon fill="#000000" points="989.15,299.59,998.2271,303.4118,994.149,299.4914,998.0694,295.4134,989.15,299.59" style="stroke:#000000;stroke-width:1;"/></g><!--link di to config_interfaces--><g class="link" data-entity-1="di" data-entity-2="config_interfaces" data-source-line="151" data-uid="lnk68" id="link_di_config_interfaces"><path codeLine="151" d="M2040.9235,84.0833 C2040.8405,84.1614 2040.7569,84.24 2040.6728,84.3191 C2039.9998,84.9521 2039.2917,85.6181 2038.5508,86.315 C2032.6234,91.89 2024.5931,99.4425 2015.5737,107.925 C1997.535,124.89 1979.9108,141.4645 1962.8708,157.4895" fill="none" id="di-to-config_interfaces" style="stroke:#000000;stroke-width:1;"/><polygon fill="#000000" points="1958.5,161.6,1967.7965,158.3482,1962.1423,158.1746,1962.3159,152.5204,1958.5,161.6" style="stroke:#000000;stroke-width:1;"/></g><!--link di to logging_interfaces--><g class="link" data-entity-1="di" data-entity-2="logging_interfaces" data-source-line="152" data-uid="lnk69" id="link_di_logging_interfaces"><path codeLine="152" d="M2040.9217,81.4788 C2040.8627,81.5134 2040.8034,81.5482 2040.7439,81.5832 C2040.6248,81.653 2040.5047,81.7234 2040.3834,81.7942 C2039.4136,82.361 2038.3755,82.9589 2037.2761,83.5804 C2035.0773,84.8234 2032.6334,86.1613 2030.0012,87.535 C2019.4725,93.03 2005.93,99.1 1993,101.98 C1911.82,120.07 574.36,91.09 496,118.98 C471.72,127.62 453.4228,141.9879 437.4928,157.6179" fill="none" id="di-to-logging_interfaces" style="stroke:#000000;stroke-width:1;"/><polygon fill="#000000" points="433.21,161.82,442.4356,158.372,436.779,158.3182,436.8328,152.6616,433.21,161.82" style="stroke:#000000;stroke-width:1;"/></g><!--link config to errors_interfaces--><g class="link" data-entity-1="config" data-entity-2="errors_interfaces" data-source-line="154" data-uid="lnk70" id="link_config_errors_interfaces"><path codeLine="154" d="M1852.9973,83.3108 C1852.9006,83.3874 1852.8033,83.4644 1852.7052,83.5417 C1851.1357,84.7795 1849.3841,86.1125 1847.4863,87.4825 C1839.895,92.9625 1829.965,99.035 1820,101.98 C1719.92,131.53 981.57,91.13 881,118.98 C850.1,127.53 823.766,142.6033 801.036,158.2133" fill="none" id="config-to-errors_interfaces" style="stroke:#000000;stroke-width:1;"/><polygon fill="#000000" points="796.09,161.61,805.7734,159.8123,800.2116,158.7794,801.2445,153.2177,796.09,161.61" style="stroke:#000000;stroke-width:1;"/></g><!--link retry to errors_interfaces--><g class="link" data-entity-1="retry" data-entity-2="errors_interfaces" data-source-line="156" data-uid="lnk71" id="link_retry_errors_interfaces"><path codeLine="156" d="M875.14,98.41 C852.11,116.54 824.0653,138.6197 799.7153,157.7797" fill="none" id="retry-to-errors_interfaces" style="stroke:#000000;stroke-width:1;"/><polygon fill="#000000" points="795,161.49,804.5464,159.0681,798.9294,158.3981,799.5994,152.7811,795,161.49" style="stroke:#000000;stroke-width:1;"/></g><!--SRC=[ZPNDSjmW3CVlVWeczrpw09rfyWWzz9XX3UkbmK2nTpPf9-zUyM501hDxMf1-4d-1LbxUXJBKqfcCUZPQSRN-N3yb9zTPVXkMsal-3OIyqF5zilggsAkMsf9V5x5oPzUMSHjiBn8WiFsmLjzAqzSm6FYb4oTFzBfUdWXTY5lurCabrChjcOvyIS1RjdaMCXK1lszh9c7JGBHWOsRSBaCfxFdv-_wqpUqZMlwo9gcdIQZ9dnFNtSeYqo_kBpK8XdscIgDJLsT40bSk-SnN- -apfbrNPABwCetLG5tuTH-L7QrdCT1ORL5lo9TZcvbTxIsXYCS93qFA2vi5OvBVgELUNDw2df8RDSH_X2wCw-wbHgP_fM8s4jDWo1ookchgf4ZZXLCP_tDXsLKOa0S5RZ3ILngTl2eZKiTXMDXmT5XsrGMahsxKyTKYxFODZEcP2bM2mT90gJ4b1zlMfQYpfLWa639Ogd7NKfMIcIZa3kLat462X3QqQ-EpcBQUW-Mz9WRayHxsyBw5ap5sCCw8rB6JpyHENLNir5Uq_94R1yi6C6irwGtncmp58ASLdHDS0QwTg0WHKej-4UB1QtKWkjBDu5M88nKspLiRfoju_PVuu2kIV7a4PblTL0EUius466YChg4OjWSvTaGZoOweXUw0_TTzY9FoG43XhLktSE9s6EhfTNG7qEljvD5H5vGZwcJYA9auAd28O-3WbMrwmDhv7m00]--></g></svg>