<svg xmlns="http://www.w3.org/2000/svg" xmlns:xlink="http://www.w3.org/1999/xlink" contentStyleType="text/css" data-diagram-type="DESCRIPTION" height="653px" preserveAspectRatio="none" style="width:619px;height:653px;background:#FFFFFF;" version="1.1" viewBox="0 0 619 653" width="619px" zoomAndPan="magnify"><defs/><g><!--cluster application--><g class="cluster" data-entity="application" data-source-line="9" data-uid="ent0002" id="cluster_application"><path d="M66.5,6 L193.2266,6 A3.75,3.75 0 0 1 195.7266,8.5 L202.7266,28.4883 L345.5,28.4883 A2.5,2.5 0 0 1 348,30.9883 L348,116.99 A2.5,2.5 0 0 1 345.5,119.49 L66.5,119.49 A2.5,2.5 0 0 1 64,116.99 L64,8.5 A2.5,2.5 0 0 1 66.5,6" fill="none" style="stroke:#000000;stroke-width:1.5;"/><line style="stroke:#000000;stroke-width:1.5;" x1="64" x2="202.7266" y1="28.4883" y2="28.4883"/><text fill="#000000" font-family="sans-serif" font-size="14" font-weight="bold" lengthAdjust="spacing" textLength="125.7266" x="68" y="21.5352">Application Layer</text></g><!--cluster service--><g class="cluster" data-entity="service" data-source-line="14" data-uid="ent0005" id="cluster_service"><path d="M334.5,159.49 L430.2939,159.49 A3.75,3.75 0 0 1 432.7939,161.99 L439.7939,181.9783 L583.5,181.9783 A2.5,2.5 0 0 1 586,184.4783 L586,383.96 A2.5,2.5 0 0 1 583.5,386.46 L334.5,386.46 A2.5,2.5 0 0 1 332,383.96 L332,161.99 A2.5,2.5 0 0 1 334.5,159.49" fill="none" style="stroke:#000000;stroke-width:1.5;"/><line style="stroke:#000000;stroke-width:1.5;" x1="332" x2="439.7939" y1="181.9783" y2="181.9783"/><text fill="#000000" font-family="sans-serif" font-size="14" font-weight="bold" lengthAdjust="spacing" textLength="94.7939" x="336" y="175.0252">Service Layer</text></g><!--cluster infrastructure--><g class="cluster" data-entity="infrastructure" data-source-line="20" data-uid="ent0009" id="cluster_infrastructure"><path d="M8.5,272.98 L153.4854,272.98 A3.75,3.75 0 0 1 155.9854,275.48 L162.9854,295.4683 L289.5,295.4683 A2.5,2.5 0 0 1 292,297.9683 L292,537.45 A2.5,2.5 0 0 1 289.5,539.95 L8.5,539.95 A2.5,2.5 0 0 1 6,537.45 L6,275.48 A2.5,2.5 0 0 1 8.5,272.98" fill="none" style="stroke:#000000;stroke-width:1.5;"/><line style="stroke:#000000;stroke-width:1.5;" x1="6" x2="162.9854" y1="295.4683" y2="295.4683"/><text fill="#000000" font-family="sans-serif" font-size="14" font-weight="bold" lengthAdjust="spacing" textLength="143.9854" x="10" y="288.5152">Infrastructure Layer</text></g><!--cluster core--><g class="cluster" data-entity="core" data-source-line="27" data-uid="ent0014" id="cluster_core"><path d="M340.5,426.46 L418.6982,426.46 A3.75,3.75 0 0 1 421.1982,428.96 L428.1982,448.9483 L609.5,448.9483 A2.5,2.5 0 0 1 612,451.4483 L612,643.94 A2.5,2.5 0 0 1 609.5,646.44 L340.5,646.44 A2.5,2.5 0 0 1 338,643.94 L338,428.96 A2.5,2.5 0 0 1 340.5,426.46" fill="none" style="stroke:#000000;stroke-width:1.5;"/><line style="stroke:#000000;stroke-width:1.5;" x1="338" x2="428.1982" y1="448.9483" y2="448.9483"/><text fill="#000000" font-family="sans-serif" font-size="14" font-weight="bold" lengthAdjust="spacing" textLength="77.1982" x="342" y="441.9952">Core Layer</text></g><!--entity validation--><g class="entity" data-entity="validation" data-source-line="10" data-uid="ent0003" id="entity_validation"><rect fill="#FFFFFF" height="46.4883" rx="2.5" ry="2.5" style="stroke:#000000;stroke-width:0.5;" width="106.1855" x="87.91" y="49"/><rect fill="#FFFFFF" height="10" style="stroke:#000000;stroke-width:0.5;" width="15" x="174.0955" y="54"/><rect fill="#FFFFFF" height="2" style="stroke:#000000;stroke-width:0.5;" width="4" x="172.0955" y="56"/><rect fill="#FFFFFF" height="2" style="stroke:#000000;stroke-width:0.5;" width="4" x="172.0955" y="60"/><text fill="#000000" font-family="sans-serif" font-size="14" lengthAdjust="spacing" textLength="66.1855" x="102.91" y="82.5352">validation</text></g><!--entity other--><g class="entity" data-entity="other" data-source-line="11" data-uid="ent0004" id="entity_other"><rect fill="#FFFFFF" height="46.4883" rx="2.5" ry="2.5" style="stroke:#000000;stroke-width:0.5;" width="76.0527" x="228.97" y="49"/><rect fill="#FFFFFF" height="10" style="stroke:#000000;stroke-width:0.5;" width="15" x="285.0227" y="54"/><rect fill="#FFFFFF" height="2" style="stroke:#000000;stroke-width:0.5;" width="4" x="283.0227" y="56"/><rect fill="#FFFFFF" height="2" style="stroke:#000000;stroke-width:0.5;" width="4" x="283.0227" y="60"/><text fill="#000000" font-family="sans-serif" font-size="14" lengthAdjust="spacing" textLength="36.0527" x="243.97" y="82.5352">other</text></g><!--entity auth--><g class="entity" data-entity="auth" data-source-line="15" data-uid="ent0006" id="entity_auth"><rect fill="#FFFFFF" height="46.4883" rx="2.5" ry="2.5" style="stroke:#000000;stroke-width:0.5;" width="70.3447" x="491.83" y="202.49"/><rect fill="#FFFFFF" height="10" style="stroke:#000000;stroke-width:0.5;" width="15" x="542.1747" y="207.49"/><rect fill="#FFFFFF" height="2" style="stroke:#000000;stroke-width:0.5;" width="4" x="540.1747" y="209.49"/><rect fill="#FFFFFF" height="2" style="stroke:#000000;stroke-width:0.5;" width="4" x="540.1747" y="213.49"/><text fill="#000000" font-family="sans-serif" font-size="14" lengthAdjust="spacing" textLength="30.3447" x="506.83" y="236.0252">auth</text></g><!--entity health--><g class="entity" data-entity="health" data-source-line="16" data-uid="ent0007" id="entity_health"><rect fill="#FFFFFF" height="46.4883" rx="2.5" ry="2.5" style="stroke:#000000;stroke-width:0.5;" width="82.1914" x="374.9" y="202.49"/><rect fill="#FFFFFF" height="10" style="stroke:#000000;stroke-width:0.5;" width="15" x="437.0914" y="207.49"/><rect fill="#FFFFFF" height="2" style="stroke:#000000;stroke-width:0.5;" width="4" x="435.0914" y="209.49"/><rect fill="#FFFFFF" height="2" style="stroke:#000000;stroke-width:0.5;" width="4" x="435.0914" y="213.49"/><text fill="#000000" font-family="sans-serif" font-size="14" lengthAdjust="spacing" textLength="42.1914" x="389.9" y="236.0252">health</text></g><!--entity middleware--><g class="entity" data-entity="middleware" data-source-line="17" data-uid="ent0008" id="entity_middleware"><rect fill="#FFFFFF" height="46.4883" rx="2.5" ry="2.5" style="stroke:#000000;stroke-width:0.5;" width="118.6338" x="408.68" y="315.98"/><rect fill="#FFFFFF" height="10" style="stroke:#000000;stroke-width:0.5;" width="15" x="507.3138" y="320.98"/><rect fill="#FFFFFF" height="2" style="stroke:#000000;stroke-width:0.5;" width="4" x="505.3138" y="322.98"/><rect fill="#FFFFFF" height="2" style="stroke:#000000;stroke-width:0.5;" width="4" x="505.3138" y="326.98"/><text fill="#000000" font-family="sans-serif" font-size="14" lengthAdjust="spacing" textLength="78.6338" x="423.68" y="349.5152">middleware</text></g><!--entity db--><g class="entity" data-entity="db" data-source-line="21" data-uid="ent0010" id="entity_db"><rect fill="#FFFFFF" height="46.4883" rx="2.5" ry="2.5" style="stroke:#000000;stroke-width:0.5;" width="100.9902" x="29.5" y="315.98"/><rect fill="#FFFFFF" height="10" style="stroke:#000000;stroke-width:0.5;" width="15" x="110.4902" y="320.98"/><rect fill="#FFFFFF" height="2" style="stroke:#000000;stroke-width:0.5;" width="4" x="108.4902" y="322.98"/><rect fill="#FFFFFF" height="2" style="stroke:#000000;stroke-width:0.5;" width="4" x="108.4902" y="326.98"/><text fill="#000000" font-family="sans-serif" font-size="14" lengthAdjust="spacing" textLength="60.9902" x="44.5" y="349.5152">database</text></g><!--entity config--><g class="entity" data-entity="config" data-source-line="22" data-uid="ent0011" id="entity_config"><rect fill="#FFFFFF" height="46.4883" rx="2.5" ry="2.5" style="stroke:#000000;stroke-width:0.5;" width="82.3828" x="165.81" y="315.98"/><rect fill="#FFFFFF" height="10" style="stroke:#000000;stroke-width:0.5;" width="15" x="228.1928" y="320.98"/><rect fill="#FFFFFF" height="2" style="stroke:#000000;stroke-width:0.5;" width="4" x="226.1928" y="322.98"/><rect fill="#FFFFFF" height="2" style="stroke:#000000;stroke-width:0.5;" width="4" x="226.1928" y="326.98"/><text fill="#000000" font-family="sans-serif" font-size="14" lengthAdjust="spacing" textLength="42.3828" x="180.81" y="349.5152">config</text></g><!--entity telemetry--><g class="entity" data-entity="telemetry" data-source-line="23" data-uid="ent0012" id="entity_telemetry"><rect fill="#FFFFFF" height="46.4883" rx="2.5" ry="2.5" style="stroke:#000000;stroke-width:0.5;" width="104.0322" x="29.98" y="469.46"/><rect fill="#FFFFFF" height="10" style="stroke:#000000;stroke-width:0.5;" width="15" x="114.0122" y="474.46"/><rect fill="#FFFFFF" height="2" style="stroke:#000000;stroke-width:0.5;" width="4" x="112.0122" y="476.46"/><rect fill="#FFFFFF" height="2" style="stroke:#000000;stroke-width:0.5;" width="4" x="112.0122" y="480.46"/><text fill="#000000" font-family="sans-serif" font-size="14" lengthAdjust="spacing" textLength="64.0322" x="44.98" y="502.9952">telemetry</text></g><!--entity di--><g class="entity" data-entity="di" data-source-line="24" data-uid="ent0013" id="entity_di"><rect fill="#FFFFFF" height="46.4883" rx="2.5" ry="2.5" style="stroke:#000000;stroke-width:0.5;" width="52.8584" x="168.57" y="469.46"/><rect fill="#FFFFFF" height="10" style="stroke:#000000;stroke-width:0.5;" width="15" x="201.4284" y="474.46"/><rect fill="#FFFFFF" height="2" style="stroke:#000000;stroke-width:0.5;" width="4" x="199.4284" y="476.46"/><rect fill="#FFFFFF" height="2" style="stroke:#000000;stroke-width:0.5;" width="4" x="199.4284" y="480.46"/><text fill="#000000" font-family="sans-serif" font-size="14" lengthAdjust="spacing" textLength="12.8584" x="183.57" y="502.9952">di</text></g><!--entity context--><g class="entity" data-entity="context" data-source-line="28" data-uid="ent0015" id="entity_context"><rect fill="#FFFFFF" height="46.4883" rx="2.5" ry="2.5" style="stroke:#000000;stroke-width:0.5;" width="91.3174" x="381.34" y="469.46"/><rect fill="#FFFFFF" height="10" style="stroke:#000000;stroke-width:0.5;" width="15" x="452.6574" y="474.46"/><rect fill="#FFFFFF" height="2" style="stroke:#000000;stroke-width:0.5;" width="4" x="450.6574" y="476.46"/><rect fill="#FFFFFF" height="2" style="stroke:#000000;stroke-width:0.5;" width="4" x="450.6574" y="480.46"/><text fill="#000000" font-family="sans-serif" font-size="14" lengthAdjust="spacing" textLength="51.3174" x="396.34" y="502.9952">context</text></g><!--entity errors--><g class="entity" data-entity="errors" data-source-line="29" data-uid="ent0016" id="entity_errors"><rect fill="#FFFFFF" height="46.4883" rx="2.5" ry="2.5" style="stroke:#000000;stroke-width:0.5;" width="80.7217" x="507.64" y="469.46"/><rect fill="#FFFFFF" height="10" style="stroke:#000000;stroke-width:0.5;" width="15" x="568.3617" y="474.46"/><rect fill="#FFFFFF" height="2" style="stroke:#000000;stroke-width:0.5;" width="4" x="566.3617" y="476.46"/><rect fill="#FFFFFF" height="2" style="stroke:#000000;stroke-width:0.5;" width="4" x="566.3617" y="480.46"/><text fill="#000000" font-family="sans-serif" font-size="14" lengthAdjust="spacing" textLength="40.7217" x="522.64" y="502.9952">errors</text></g><!--entity logging--><g class="entity" data-entity="logging" data-source-line="30" data-uid="ent0017" id="entity_logging"><rect fill="#FFFFFF" height="46.4883" rx="2.5" ry="2.5" style="stroke:#000000;stroke-width:0.5;" width="91.5703" x="381.21" y="575.95"/><rect fill="#FFFFFF" height="10" style="stroke:#000000;stroke-width:0.5;" width="15" x="452.7803" y="580.95"/><rect fill="#FFFFFF" height="2" style="stroke:#000000;stroke-width:0.5;" width="4" x="450.7803" y="582.95"/><rect fill="#FFFFFF" height="2" style="stroke:#000000;stroke-width:0.5;" width="4" x="450.7803" y="586.95"/><text fill="#000000" font-family="sans-serif" font-size="14" lengthAdjust="spacing" textLength="51.5703" x="396.21" y="609.4852">logging</text></g><!--link application to service--><g class="link" data-entity-1="application" data-entity-2="service" data-source-line="33" data-uid="lnk18" id="link_application_service"><path d="M340,119.6138 C340,119.8804 340,120.1476 340,120.4154 C340,120.9508 340,121.4886 340,122.0284 C340,130.6656 340,139.8406 340,149.015 C340,151.3086 340,153.6021 340,155.8873 C340,157.0298 340,152.1702 340,153.3075" fill="none" id="application-to-service" style="stroke:#000000;stroke-width:1;stroke-dasharray:7.0,7.0;"/><polygon fill="#000000" points="340,159.3075,344,150.3075,340,154.3075,336,150.3075,340,159.3075" style="stroke:#000000;stroke-width:1;"/></g><!--link service to infrastructure--><g class="link" data-entity-1="service" data-entity-2="infrastructure" data-source-line="34" data-uid="lnk19" id="link_service_infrastructure"><path d="M331.9357,242.7828 C331.8586,242.9363 331.7811,243.0906 331.7032,243.2457 C331.3915,243.8663 331.0731,244.5 330.7486,245.1461 C325.5559,255.4834 318.7719,268.9894 311.9888,282.4938 C305.2056,295.9981 298.4234,309.5009 293.2345,319.832 C292.9102,320.4777 292.5921,321.111 292.2807,321.7312 C292.2028,321.8862 294.8183,316.6787 294.7413,316.8321" fill="none" id="service-to-infrastructure" style="stroke:#000000;stroke-width:1;stroke-dasharray:7.0,7.0;"/><polygon fill="#000000" points="292.0483,322.1938,299.6622,315.9465,294.2924,317.7257,292.5133,312.3559,292.0483,322.1938" style="stroke:#000000;stroke-width:1;"/></g><!--link infrastructure to core--><g class="link" data-entity-1="infrastructure" data-entity-2="core" data-source-line="35" data-uid="lnk20" id="link_infrastructure_core"><path d="M292.1695,360.1872 C292.8297,361.8 293.5208,363.4885 294.2395,365.2442 C299.9891,379.2903 307.5006,397.6419 315.0113,415.9913 C322.5219,434.3406 330.0316,452.6878 335.7773,466.7252 C336.4956,468.4798 337.1862,470.1672 337.8459,471.7787 C337.8871,471.8794 335.6553,466.427 335.6963,466.5272" fill="none" id="infrastructure-to-core" style="stroke:#000000;stroke-width:1;stroke-dasharray:7.0,7.0;"/><polygon fill="#000000" points="337.9692,472.08,338.2617,462.2355,336.0751,467.4526,330.858,465.266,337.9692,472.08" style="stroke:#000000;stroke-width:1;"/></g><!--SRC=[PLAxRiCm3Dpr5O8_84C_e42IgK2t39qPcR65oA91oKc3elzUFPpQT2OVxmwyiwHmjNu4Xa4R6aRowECfFXpgQN1lAhog-aTfVG1pxPWctnx94UkltaRCF76BNBc3IwR4xPdflgP-bHhJ5phKpNuSdJKGBNdz2G_aHaFGi69pt1BUtC3PjYZ5kOpIHh6VTnKaCa_8DsjmbHTcPfC5K-nhdmIar2EuMQnGoeDjMuTtO2oMPHH5Flo58KIUJ9nutSTAOLCh_I-S8TJLxLcAXlp5TaMgKCeH7GuO-L4S_zCcmDRLLhGzakXewBLPIepu7P_f6Ki3fhV0eUWLIjbHrrbVsyyuLrW_Xztk_NbTwdbjcPD7fZOdc1sviFe3]--></g></svg>