<svg xmlns="http://www.w3.org/2000/svg" xmlns:xlink="http://www.w3.org/1999/xlink" contentStyleType="text/css" data-diagram-type="CLASS" height="517px" preserveAspectRatio="none" style="width:695px;height:517px;background:#FFFFFF;" version="1.1" viewBox="0 0 695 517" width="695px" zoomAndPan="magnify"><defs/><g><path d="M370.66,118.97 L403.953,118.97 A3.75,3.75 0 0 1 406.453,121.47 L413.453,141.4583 L417.953,141.4583 A2.5,2.5 0 0 1 420.453,143.9583 L420.453,169.4466 A2.5,2.5 0 0 1 417.953,171.9466 L370.66,171.9466 A2.5,2.5 0 0 1 368.16,169.4466 L368.16,121.47 A2.5,2.5 0 0 1 370.66,118.97" fill="#F1F1F1" style="stroke:#181818;stroke-width:0.5;"/><line style="stroke:#181818;stroke-width:0.5;" x1="368.16" x2="413.453" y1="141.4583" y2="141.4583"/><text fill="#000000" font-family="sans-serif" font-size="14" font-weight="bold" lengthAdjust="spacing" textLength="32.293" x="372.16" y="134.5052">auth</text><path d="M183.33,344.93 L239.2773,344.93 A3.75,3.75 0 0 1 241.7773,347.43 L248.7773,367.4183 L253.2773,367.4183 A2.5,2.5 0 0 1 255.7773,369.9183 L255.7773,395.4066 A2.5,2.5 0 0 1 253.2773,397.9066 L183.33,397.9066 A2.5,2.5 0 0 1 180.83,395.4066 L180.83,347.43 A2.5,2.5 0 0 1 183.33,344.93" fill="#F1F1F1" style="stroke:#181818;stroke-width:0.5;"/><line style="stroke:#181818;stroke-width:0.5;" x1="180.83" x2="248.7773" y1="367.4183" y2="367.4183"/><text fill="#000000" font-family="sans-serif" font-size="14" font-weight="bold" lengthAdjust="spacing" textLength="54.9473" x="184.83" y="360.4652">logging</text><path d="M8.5,231.95 L78.1123,231.95 A3.75,3.75 0 0 1 80.6123,234.45 L87.6123,254.4383 L92.1123,254.4383 A2.5,2.5 0 0 1 94.6123,256.9383 L94.6123,282.4266 A2.5,2.5 0 0 1 92.1123,284.9266 L8.5,284.9266 A2.5,2.5 0 0 1 6,282.4266 L6,234.45 A2.5,2.5 0 0 1 8.5,231.95" fill="#F1F1F1" style="stroke:#181818;stroke-width:0.5;"/><line style="stroke:#181818;stroke-width:0.5;" x1="6" x2="87.6123" y1="254.4383" y2="254.4383"/><text fill="#000000" font-family="sans-serif" font-size="14" font-weight="bold" lengthAdjust="spacing" textLength="68.6123" x="10" y="247.4852">telemetry</text><path d="M344.65,231.95 L429.9645,231.95 A3.75,3.75 0 0 1 432.4645,234.45 L439.4645,254.4383 L443.9645,254.4383 A2.5,2.5 0 0 1 446.4645,256.9383 L446.4645,282.4266 A2.5,2.5 0 0 1 443.9645,284.9266 L344.65,284.9266 A2.5,2.5 0 0 1 342.15,282.4266 L342.15,234.45 A2.5,2.5 0 0 1 344.65,231.95" fill="#F1F1F1" style="stroke:#181818;stroke-width:0.5;"/><line style="stroke:#181818;stroke-width:0.5;" x1="342.15" x2="439.4645" y1="254.4383" y2="254.4383"/><text fill="#000000" font-family="sans-serif" font-size="14" font-weight="bold" lengthAdjust="spacing" textLength="84.3145" x="346.15" y="247.4852">middleware</text><path d="M422.1,457.9 L476.5092,457.9 A3.75,3.75 0 0 1 479.0092,460.4 L486.0092,480.3883 L490.5092,480.3883 A2.5,2.5 0 0 1 493.0092,482.8883 L493.0092,508.3766 A2.5,2.5 0 0 1 490.5092,510.8766 L422.1,510.8766 A2.5,2.5 0 0 1 419.6,508.3766 L419.6,460.4 A2.5,2.5 0 0 1 422.1,457.9" fill="#F1F1F1" style="stroke:#181818;stroke-width:0.5;"/><line style="stroke:#181818;stroke-width:0.5;" x1="419.6" x2="486.0092" y1="480.3883" y2="480.3883"/><text fill="#000000" font-family="sans-serif" font-size="14" font-weight="bold" lengthAdjust="spacing" textLength="53.4092" x="423.6" y="473.4352">context</text><path d="M555.28,6 L601.3288,6 A3.75,3.75 0 0 1 603.8288,8.5 L610.8288,28.4883 L615.3288,28.4883 A2.5,2.5 0 0 1 617.8288,30.9883 L617.8288,56.4766 A2.5,2.5 0 0 1 615.3288,58.9766 L555.28,58.9766 A2.5,2.5 0 0 1 552.78,56.4766 L552.78,8.5 A2.5,2.5 0 0 1 555.28,6" fill="#F1F1F1" style="stroke:#181818;stroke-width:0.5;"/><line style="stroke:#181818;stroke-width:0.5;" x1="552.78" x2="610.8288" y1="28.4883" y2="28.4883"/><text fill="#000000" font-family="sans-serif" font-size="14" font-weight="bold" lengthAdjust="spacing" textLength="45.0488" x="556.78" y="21.5352">health</text><path d="M469.73,344.93 L514.8833,344.93 A3.75,3.75 0 0 1 517.3833,347.43 L524.3833,367.4183 L528.8833,367.4183 A2.5,2.5 0 0 1 531.3833,369.9183 L531.3833,395.4066 A2.5,2.5 0 0 1 528.8833,397.9066 L469.73,397.9066 A2.5,2.5 0 0 1 467.23,395.4066 L467.23,347.43 A2.5,2.5 0 0 1 469.73,344.93" fill="#F1F1F1" style="stroke:#181818;stroke-width:0.5;"/><line style="stroke:#181818;stroke-width:0.5;" x1="467.23" x2="524.3833" y1="367.4183" y2="367.4183"/><text fill="#000000" font-family="sans-serif" font-size="14" font-weight="bold" lengthAdjust="spacing" textLength="44.1533" x="471.23" y="360.4652">errors</text><path d="M555.22,231.95 L601.3987,231.95 A3.75,3.75 0 0 1 603.8987,234.45 L610.8987,254.4383 L615.3987,254.4383 A2.5,2.5 0 0 1 617.8987,256.9383 L617.8987,282.4266 A2.5,2.5 0 0 1 615.3987,284.9266 L555.22,284.9266 A2.5,2.5 0 0 1 552.72,282.4266 L552.72,234.45 A2.5,2.5 0 0 1 555.22,231.95" fill="#F1F1F1" style="stroke:#181818;stroke-width:0.5;"/><line style="stroke:#181818;stroke-width:0.5;" x1="552.72" x2="610.8987" y1="254.4383" y2="254.4383"/><text fill="#000000" font-family="sans-serif" font-size="14" font-weight="bold" lengthAdjust="spacing" textLength="45.1787" x="556.72" y="247.4852">config</text><path d="M647.53,118.97 L667.0827,118.97 A3.75,3.75 0 0 1 669.5827,121.47 L676.5827,141.4583 L681.0827,141.4583 A2.5,2.5 0 0 1 683.5827,143.9583 L683.5827,169.4466 A2.5,2.5 0 0 1 681.0827,171.9466 L647.53,171.9466 A2.5,2.5 0 0 1 645.03,169.4466 L645.03,121.47 A2.5,2.5 0 0 1 647.53,118.97" fill="#F1F1F1" style="stroke:#181818;stroke-width:0.5;"/><line style="stroke:#181818;stroke-width:0.5;" x1="645.03" x2="676.5827" y1="141.4583" y2="141.4583"/><text fill="#000000" font-family="sans-serif" font-size="14" font-weight="bold" lengthAdjust="spacing" textLength="18.5527" x="649.03" y="134.5052">db</text><path d="M479.89,118.97 L494.7191,118.97 A3.75,3.75 0 0 1 497.2191,121.47 L504.2191,141.4583 L508.7191,141.4583 A2.5,2.5 0 0 1 511.2191,143.9583 L511.2191,169.4466 A2.5,2.5 0 0 1 508.7191,171.9466 L479.89,171.9466 A2.5,2.5 0 0 1 477.39,169.4466 L477.39,121.47 A2.5,2.5 0 0 1 479.89,118.97" fill="#F1F1F1" style="stroke:#181818;stroke-width:0.5;"/><line style="stroke:#181818;stroke-width:0.5;" x1="477.39" x2="504.2191" y1="141.4583" y2="141.4583"/><text fill="#000000" font-family="sans-serif" font-size="14" font-weight="bold" lengthAdjust="spacing" textLength="13.8291" x="481.39" y="134.5052">di</text><!--link auth to logging--><g class="link" data-entity-1="auth" data-entity-2="logging" data-source-line="39" data-uid="lnk12" id="link_auth_logging"><path codeLine="39" d="M367.81,157.22 C338.22,170.53 290.88,195.94 263.31,231.95 C237.49,265.67 227.1215,308.8343 222.3915,338.6043" fill="none" id="auth-to-logging" style="stroke:#000000;stroke-width:1;"/><polygon fill="#000000" points="221.45,344.53,226.8127,336.2692,222.2346,339.5919,218.9118,335.0138,221.45,344.53" style="stroke:#000000;stroke-width:1;"/></g><!--link auth to middleware--><g class="link" data-entity-1="auth" data-entity-2="middleware" data-source-line="40" data-uid="lnk13" id="link_auth_middleware"><path codeLine="40" d="M394.31,172.2 C394.31,190 394.31,207.6 394.31,225.45" fill="none" id="auth-to-middleware" style="stroke:#000000;stroke-width:1;"/><polygon fill="#000000" points="394.31,231.45,398.31,222.45,394.31,226.45,390.31,222.45,394.31,231.45" style="stroke:#000000;stroke-width:1;"/></g><!--link auth to errors--><g class="link" data-entity-1="auth" data-entity-2="errors" data-source-line="41" data-uid="lnk14" id="link_auth_errors"><path codeLine="41" d="M420.67,172.39 C435.48,188.32 453.17,209.85 464.31,231.95 C482.78,268.59 491.1207,309.7933 495.3307,338.5433" fill="none" id="auth-to-errors" style="stroke:#000000;stroke-width:1;"/><polygon fill="#000000" points="496.2,344.48,498.8538,334.9954,495.4756,339.5328,490.9382,336.1545,496.2,344.48" style="stroke:#000000;stroke-width:1;"/></g><!--link telemetry to logging--><g class="link" data-entity-1="telemetry" data-entity-2="logging" data-source-line="43" data-uid="lnk15" id="link_telemetry_logging"><path codeLine="43" d="M89.27,285.18 C116.7,303.3 148.2236,324.1231 175.4136,342.0831" fill="none" id="telemetry-to-logging" style="stroke:#000000;stroke-width:1;"/><polygon fill="#000000" points="180.42,345.39,175.115,337.092,176.248,342.6342,170.7058,343.7672,180.42,345.39" style="stroke:#000000;stroke-width:1;"/></g><!--link telemetry to context--><g class="link" data-entity-1="telemetry" data-entity-2="context" data-source-line="44" data-uid="lnk16" id="link_telemetry_context"><path codeLine="44" d="M64.78,285.41 C83.51,316.66 119.07,368.6 163.31,397.9 C244.81,451.9 355.0658,471.7298 413.6258,479.0098" fill="none" id="telemetry-to-context" style="stroke:#000000;stroke-width:1;"/><polygon fill="#000000" points="419.58,479.75,411.1422,474.6703,414.6182,479.1332,410.1553,482.6091,419.58,479.75" style="stroke:#000000;stroke-width:1;"/></g><!--link middleware to logging--><g class="link" data-entity-1="middleware" data-entity-2="logging" data-source-line="46" data-uid="lnk17" id="link_middleware_logging"><path codeLine="46" d="M353.49,285.18 C324.14,303.68 289.9249,325.2492 261.2749,343.3192" fill="none" id="middleware-to-logging" style="stroke:#000000;stroke-width:1;"/><polygon fill="#000000" points="256.2,346.52,265.9462,345.102,260.4291,343.8526,261.6785,338.3355,256.2,346.52" style="stroke:#000000;stroke-width:1;"/></g><!--link middleware to context--><g class="link" data-entity-1="middleware" data-entity-2="context" data-source-line="47" data-uid="lnk18" id="link_middleware_context"><path codeLine="47" d="M401.42,285.13 C413.35,328.21 435.6501,408.7572 447.5801,451.8772" fill="none" id="middleware-to-context" style="stroke:#000000;stroke-width:1;"/><polygon fill="#000000" points="449.18,457.66,450.6353,447.9193,447.8467,452.841,442.925,450.0525,449.18,457.66" style="stroke:#000000;stroke-width:1;"/></g><!--link middleware to errors--><g class="link" data-entity-1="middleware" data-entity-2="errors" data-source-line="48" data-uid="lnk19" id="link_middleware_errors"><path codeLine="48" d="M418.66,285.18 C435.5,302.98 453.7062,322.2218 470.5962,340.0718" fill="none" id="middleware-to-errors" style="stroke:#000000;stroke-width:1;"/><polygon fill="#000000" points="474.72,344.43,471.4397,335.1435,471.2835,340.7982,465.6288,340.6419,474.72,344.43" style="stroke:#000000;stroke-width:1;"/></g><!--link health to logging--><g class="link" data-entity-1="health" data-entity-2="logging" data-source-line="50" data-uid="lnk20" id="link_health_logging"><path codeLine="50" d="M552.35,39.07 C476.29,54.03 290.27,103 228.31,231.95 C210.98,268.01 211.3424,309.5579 214.1424,338.5079" fill="none" id="health-to-logging" style="stroke:#000000;stroke-width:1;"/><polygon fill="#000000" points="214.72,344.48,217.835,335.1367,214.2387,339.5032,209.8722,335.9069,214.72,344.48" style="stroke:#000000;stroke-width:1;"/></g><!--link health to config--><g class="link" data-entity-1="health" data-entity-2="config" data-source-line="51" data-uid="lnk21" id="link_health_config"><path codeLine="51" d="M585.31,59.18 C585.31,102.26 585.31,182.59 585.31,225.7" fill="none" id="health-to-config" style="stroke:#000000;stroke-width:1;"/><polygon fill="#000000" points="585.31,231.7,589.31,222.7,585.31,226.7,581.31,222.7,585.31,231.7" style="stroke:#000000;stroke-width:1;"/></g><!--link health to db--><g class="link" data-entity-1="health" data-entity-2="db" data-source-line="52" data-uid="lnk22" id="link_health_db"><path codeLine="52" d="M603.63,59.22 C616.3,77.03 629.6211,95.7315 642.3311,113.5915" fill="none" id="health-to-db" style="stroke:#000000;stroke-width:1;"/><polygon fill="#000000" points="645.81,118.48,643.8507,108.828,642.9109,114.4063,637.3327,113.4665,645.81,118.48" style="stroke:#000000;stroke-width:1;"/></g><!--link errors to context--><g class="link" data-entity-1="errors" data-entity-2="context" data-source-line="54" data-uid="lnk23" id="link_errors_context"><path codeLine="54" d="M489.33,398.15 C482.44,415.95 475.4577,433.9553 468.5377,451.8153" fill="none" id="errors-to-context" style="stroke:#000000;stroke-width:1;"/><polygon fill="#000000" points="466.37,457.41,473.3514,450.4631,468.1764,452.7477,465.8918,447.5728,466.37,457.41" style="stroke:#000000;stroke-width:1;"/></g><!--link db to config--><g class="link" data-entity-1="db" data-entity-2="config" data-source-line="56" data-uid="lnk24" id="link_db_config"><path codeLine="56" d="M645.98,172.2 C633.31,190 619.9902,208.7124 607.2802,226.5624" fill="none" id="db-to-config" style="stroke:#000000;stroke-width:1;"/><polygon fill="#000000" points="603.8,231.45,612.2786,226.4388,606.7001,227.377,605.7619,221.7985,603.8,231.45" style="stroke:#000000;stroke-width:1;"/></g><!--link db to errors--><g class="link" data-entity-1="db" data-entity-2="errors" data-source-line="57" data-uid="lnk25" id="link_db_errors"><path codeLine="57" d="M664.74,172.29 C664,202.01 658.88,251.06 635.31,284.93 C609.9,321.44 568.9026,343.3423 537.4226,356.3923" fill="none" id="db-to-errors" style="stroke:#000000;stroke-width:1;"/><polygon fill="#000000" points="531.88,358.69,541.7257,358.9385,536.4988,356.7753,538.6621,351.5484,531.88,358.69" style="stroke:#000000;stroke-width:1;"/></g><!--link db to context--><g class="link" data-entity-1="db" data-entity-2="context" data-source-line="58" data-uid="lnk26" id="link_db_context"><path codeLine="58" d="M672.54,172.2 C680.24,200.97 688.38,248.33 672.31,284.93 C635.65,368.39 549.7968,429.0861 498.3768,459.8961" fill="none" id="db-to-context" style="stroke:#000000;stroke-width:1;"/><polygon fill="#000000" points="493.23,462.98,503.0061,461.7854,497.519,460.4101,498.8943,454.923,493.23,462.98" style="stroke:#000000;stroke-width:1;"/></g><!--link di to config--><g class="link" data-entity-1="di" data-entity-2="config" data-source-line="60" data-uid="lnk27" id="link_di_config"><path codeLine="60" d="M511.64,167.6 C526.59,185.83 544.4351,207.6007 560.3951,227.0607" fill="none" id="di-to-config" style="stroke:#000000;stroke-width:1;"/><polygon fill="#000000" points="564.2,231.7,561.5855,222.2045,561.0293,227.8339,555.3998,227.2777,564.2,231.7" style="stroke:#000000;stroke-width:1;"/></g><!--link di to logging--><g class="link" data-entity-1="di" data-entity-2="logging" data-source-line="61" data-uid="lnk28" id="link_di_logging"><path codeLine="61" d="M477.12,154.56 C436.55,173.77 337.22,221.26 324.31,231.95 C284.9,264.58 254.4402,309.3491 236.1702,339.4891" fill="none" id="di-to-logging" style="stroke:#000000;stroke-width:1;"/><polygon fill="#000000" points="233.06,344.62,241.146,338.9971,235.6519,340.3442,234.3047,334.8501,233.06,344.62" style="stroke:#000000;stroke-width:1;"/></g><!--link config to errors--><g class="link" data-entity-1="config" data-entity-2="errors" data-source-line="63" data-uid="lnk29" id="link_config_errors"><path codeLine="63" d="M565.36,285.18 C551.57,302.98 536.9565,321.8383 523.1165,339.6883" fill="none" id="config-to-errors" style="stroke:#000000;stroke-width:1;"/><polygon fill="#000000" points="519.44,344.43,528.1158,339.7684,522.5037,340.4786,521.7936,334.8665,519.44,344.43" style="stroke:#000000;stroke-width:1;"/></g><!--SRC=[PP11RiGW34NtFWMQ_MnwW4gT7g6Bhabm2He2aKCq7LMzUnbmYiEiiD__nl3NgmkB9ZshCSvB31ZIHxfxLDliNs1zLjKFA7NHuzLIt89vZpwI-fnSmWUFP90gk_XiokoDADua-WLOygajgfFUqdHIUbMF8byjDH-jTS4McUlEaT3ZZ8dknVFVTQxP6UFnfWcBhRMTRumXuNSg9guxnuJQytjhsUcOlqfhqMlvlE7BsNr1BZlT34KpGyzTvQxoajNv_Bgdqa3xMsFr9G0j7ZbwfFnj016IT7TujtTutyWPoGi4gWb8OWO0pktmc9o76E2EbpIDlUxWTOVjmAcB-Jy0]--></g></svg>