<svg xmlns="http://www.w3.org/2000/svg" xmlns:xlink="http://www.w3.org/1999/xlink" contentStyleType="text/css" data-diagram-type="CLASS" height="517px" preserveAspectRatio="none" style="width:780px;height:517px;background:#FFFFFF;" version="1.1" viewBox="0 0 780 517" width="780px" zoomAndPan="magnify"><defs/><g><path d="M361.63,118.97 L394.923,118.97 A3.75,3.75 0 0 1 397.423,121.47 L404.423,141.4583 L408.923,141.4583 A2.5,2.5 0 0 1 411.423,143.9583 L411.423,169.4466 A2.5,2.5 0 0 1 408.923,171.9466 L361.63,171.9466 A2.5,2.5 0 0 1 359.13,169.4466 L359.13,121.47 A2.5,2.5 0 0 1 361.63,118.97" fill="#F1F1F1" style="stroke:#181818;stroke-width:0.5;"/><line style="stroke:#181818;stroke-width:0.5;" x1="359.13" x2="404.423" y1="141.4583" y2="141.4583"/><text fill="#000000" font-family="sans-serif" font-size="14" font-weight="bold" lengthAdjust="spacing" textLength="32.293" x="363.13" y="134.5052">auth</text><path d="M526.3,344.93 L582.2473,344.93 A3.75,3.75 0 0 1 584.7473,347.43 L591.7473,367.4183 L596.2473,367.4183 A2.5,2.5 0 0 1 598.7473,369.9183 L598.7473,395.4066 A2.5,2.5 0 0 1 596.2473,397.9066 L526.3,397.9066 A2.5,2.5 0 0 1 523.8,395.4066 L523.8,347.43 A2.5,2.5 0 0 1 526.3,344.93" fill="#F1F1F1" style="stroke:#181818;stroke-width:0.5;"/><line style="stroke:#181818;stroke-width:0.5;" x1="523.8" x2="591.7473" y1="367.4183" y2="367.4183"/><text fill="#000000" font-family="sans-serif" font-size="14" font-weight="bold" lengthAdjust="spacing" textLength="54.9473" x="527.8" y="360.4652">logging</text><path d="M687.47,231.95 L757.0823,231.95 A3.75,3.75 0 0 1 759.5823,234.45 L766.5823,254.4383 L771.0823,254.4383 A2.5,2.5 0 0 1 773.5823,256.9383 L773.5823,282.4266 A2.5,2.5 0 0 1 771.0823,284.9266 L687.47,284.9266 A2.5,2.5 0 0 1 684.97,282.4266 L684.97,234.45 A2.5,2.5 0 0 1 687.47,231.95" fill="#F1F1F1" style="stroke:#181818;stroke-width:0.5;"/><line style="stroke:#181818;stroke-width:0.5;" x1="684.97" x2="766.5823" y1="254.4383" y2="254.4383"/><text fill="#000000" font-family="sans-serif" font-size="14" font-weight="bold" lengthAdjust="spacing" textLength="68.6123" x="688.97" y="247.4852">telemetry</text><path d="M335.62,231.95 L420.9345,231.95 A3.75,3.75 0 0 1 423.4345,234.45 L430.4345,254.4383 L434.9345,254.4383 A2.5,2.5 0 0 1 437.4345,256.9383 L437.4345,282.4266 A2.5,2.5 0 0 1 434.9345,284.9266 L335.62,284.9266 A2.5,2.5 0 0 1 333.12,282.4266 L333.12,234.45 A2.5,2.5 0 0 1 335.62,231.95" fill="#F1F1F1" style="stroke:#181818;stroke-width:0.5;"/><line style="stroke:#181818;stroke-width:0.5;" x1="333.12" x2="430.4345" y1="254.4383" y2="254.4383"/><text fill="#000000" font-family="sans-serif" font-size="14" font-weight="bold" lengthAdjust="spacing" textLength="84.3145" x="337.12" y="247.4852">middleware</text><path d="M277.07,457.9 L331.4792,457.9 A3.75,3.75 0 0 1 333.9792,460.4 L340.9792,480.3883 L345.4792,480.3883 A2.5,2.5 0 0 1 347.9792,482.8883 L347.9792,508.3766 A2.5,2.5 0 0 1 345.4792,510.8766 L277.07,510.8766 A2.5,2.5 0 0 1 274.57,508.3766 L274.57,460.4 A2.5,2.5 0 0 1 277.07,457.9" fill="#F1F1F1" style="stroke:#181818;stroke-width:0.5;"/><line style="stroke:#181818;stroke-width:0.5;" x1="274.57" x2="340.9792" y1="480.3883" y2="480.3883"/><text fill="#000000" font-family="sans-serif" font-size="14" font-weight="bold" lengthAdjust="spacing" textLength="53.4092" x="278.57" y="473.4352">context</text><path d="M74.25,6 L120.2988,6 A3.75,3.75 0 0 1 122.7988,8.5 L129.7988,28.4883 L134.2988,28.4883 A2.5,2.5 0 0 1 136.7988,30.9883 L136.7988,56.4766 A2.5,2.5 0 0 1 134.2988,58.9766 L74.25,58.9766 A2.5,2.5 0 0 1 71.75,56.4766 L71.75,8.5 A2.5,2.5 0 0 1 74.25,6" fill="#F1F1F1" style="stroke:#181818;stroke-width:0.5;"/><line style="stroke:#181818;stroke-width:0.5;" x1="71.75" x2="129.7988" y1="28.4883" y2="28.4883"/><text fill="#000000" font-family="sans-serif" font-size="14" font-weight="bold" lengthAdjust="spacing" textLength="45.0488" x="75.75" y="21.5352">health</text><path d="M184.7,344.93 L229.8533,344.93 A3.75,3.75 0 0 1 232.3533,347.43 L239.3533,367.4183 L243.8533,367.4183 A2.5,2.5 0 0 1 246.3533,369.9183 L246.3533,395.4066 A2.5,2.5 0 0 1 243.8533,397.9066 L184.7,397.9066 A2.5,2.5 0 0 1 182.2,395.4066 L182.2,347.43 A2.5,2.5 0 0 1 184.7,344.93" fill="#F1F1F1" style="stroke:#181818;stroke-width:0.5;"/><line style="stroke:#181818;stroke-width:0.5;" x1="182.2" x2="239.3533" y1="367.4183" y2="367.4183"/><text fill="#000000" font-family="sans-serif" font-size="14" font-weight="bold" lengthAdjust="spacing" textLength="44.1533" x="186.2" y="360.4652">errors</text><path d="M74.19,231.95 L120.3687,231.95 A3.75,3.75 0 0 1 122.8687,234.45 L129.8687,254.4383 L134.3687,254.4383 A2.5,2.5 0 0 1 136.8687,256.9383 L136.8687,282.4266 A2.5,2.5 0 0 1 134.3687,284.9266 L74.19,284.9266 A2.5,2.5 0 0 1 71.69,282.4266 L71.69,234.45 A2.5,2.5 0 0 1 74.19,231.95" fill="#F1F1F1" style="stroke:#181818;stroke-width:0.5;"/><line style="stroke:#181818;stroke-width:0.5;" x1="71.69" x2="129.8687" y1="254.4383" y2="254.4383"/><text fill="#000000" font-family="sans-serif" font-size="14" font-weight="bold" lengthAdjust="spacing" textLength="45.1787" x="75.69" y="247.4852">config</text><path d="M8.5,118.97 L28.0527,118.97 A3.75,3.75 0 0 1 30.5527,121.47 L37.5527,141.4583 L42.0527,141.4583 A2.5,2.5 0 0 1 44.5527,143.9583 L44.5527,169.4466 A2.5,2.5 0 0 1 42.0527,171.9466 L8.5,171.9466 A2.5,2.5 0 0 1 6,169.4466 L6,121.47 A2.5,2.5 0 0 1 8.5,118.97" fill="#F1F1F1" style="stroke:#181818;stroke-width:0.5;"/><line style="stroke:#181818;stroke-width:0.5;" x1="6" x2="37.5527" y1="141.4583" y2="141.4583"/><text fill="#000000" font-family="sans-serif" font-size="14" font-weight="bold" lengthAdjust="spacing" textLength="18.5527" x="10" y="134.5052">db</text><path d="M226.86,118.97 L241.6891,118.97 A3.75,3.75 0 0 1 244.1891,121.47 L251.1891,141.4583 L255.6891,141.4583 A2.5,2.5 0 0 1 258.1891,143.9583 L258.1891,169.4466 A2.5,2.5 0 0 1 255.6891,171.9466 L226.86,171.9466 A2.5,2.5 0 0 1 224.36,169.4466 L224.36,121.47 A2.5,2.5 0 0 1 226.86,118.97" fill="#F1F1F1" style="stroke:#181818;stroke-width:0.5;"/><line style="stroke:#181818;stroke-width:0.5;" x1="224.36" x2="251.1891" y1="141.4583" y2="141.4583"/><text fill="#000000" font-family="sans-serif" font-size="14" font-weight="bold" lengthAdjust="spacing" textLength="13.8291" x="228.36" y="134.5052">di</text><path d="M245.39,231.95 L281.1576,231.95 A3.75,3.75 0 0 1 283.6576,234.45 L290.6576,254.4383 L295.1576,254.4383 A2.5,2.5 0 0 1 297.6576,256.9383 L297.6576,282.4266 A2.5,2.5 0 0 1 295.1576,284.9266 L245.39,284.9266 A2.5,2.5 0 0 1 242.89,282.4266 L242.89,234.45 A2.5,2.5 0 0 1 245.39,231.95" fill="#F1F1F1" style="stroke:#181818;stroke-width:0.5;"/><line style="stroke:#181818;stroke-width:0.5;" x1="242.89" x2="290.6576" y1="254.4383" y2="254.4383"/><text fill="#000000" font-family="sans-serif" font-size="14" font-weight="bold" lengthAdjust="spacing" textLength="34.7676" x="246.89" y="247.4852">retry</text><!--link auth to logging--><g class="link" data-entity-1="auth" data-entity-2="logging" data-source-line="42" data-uid="lnk13" id="link_auth_logging"><path codeLine="42" d="M411.77,157.22 C441.36,170.53 488.71,195.94 516.28,231.95 C542.09,265.67 552.4585,308.8343 557.1885,338.6043" fill="none" id="auth-to-logging" style="stroke:#000000;stroke-width:1;"/><polygon fill="#000000" points="558.13,344.53,560.6682,335.0138,557.3454,339.5919,552.7673,336.2692,558.13,344.53" style="stroke:#000000;stroke-width:1;"/></g><!--link auth to middleware--><g class="link" data-entity-1="auth" data-entity-2="middleware" data-source-line="43" data-uid="lnk14" id="link_auth_middleware"><path codeLine="43" d="M385.28,172.2 C385.28,190 385.28,207.6 385.28,225.45" fill="none" id="auth-to-middleware" style="stroke:#000000;stroke-width:1;"/><polygon fill="#000000" points="385.28,231.45,389.28,222.45,385.28,226.45,381.28,222.45,385.28,231.45" style="stroke:#000000;stroke-width:1;"/></g><!--link auth to errors--><g class="link" data-entity-1="auth" data-entity-2="errors" data-source-line="44" data-uid="lnk15" id="link_auth_errors"><path codeLine="44" d="M358.63,152.29 C321.71,161.91 256.07,184.92 225.28,231.95 C203.09,265.84 204.4519,308.9374 208.5919,338.6474" fill="none" id="auth-to-errors" style="stroke:#000000;stroke-width:1;"/><polygon fill="#000000" points="209.42,344.59,212.1396,335.1241,208.7299,339.6378,204.2162,336.2282,209.42,344.59" style="stroke:#000000;stroke-width:1;"/></g><!--link telemetry to logging--><g class="link" data-entity-1="telemetry" data-entity-2="logging" data-source-line="46" data-uid="lnk16" id="link_telemetry_logging"><path codeLine="46" d="M690.31,285.18 C662.88,303.3 631.3564,324.1231 604.1664,342.0831" fill="none" id="telemetry-to-logging" style="stroke:#000000;stroke-width:1;"/><polygon fill="#000000" points="599.16,345.39,608.8742,343.7672,603.332,342.6342,604.465,337.092,599.16,345.39" style="stroke:#000000;stroke-width:1;"/></g><!--link telemetry to context--><g class="link" data-entity-1="telemetry" data-entity-2="context" data-source-line="47" data-uid="lnk17" id="link_telemetry_context"><path codeLine="47" d="M715.02,285.21 C696.38,316.52 660.79,368.75 616.28,397.9 C530.71,453.94 414.4346,473.0288 353.9846,479.6288" fill="none" id="telemetry-to-context" style="stroke:#000000;stroke-width:1;"/><polygon fill="#000000" points="348.02,480.28,357.401,483.2795,352.9905,479.7373,356.5327,475.3268,348.02,480.28" style="stroke:#000000;stroke-width:1;"/></g><!--link middleware to logging--><g class="link" data-entity-1="middleware" data-entity-2="logging" data-source-line="49" data-uid="lnk18" id="link_middleware_logging"><path codeLine="49" d="M426.1,285.18 C455.44,303.68 489.6551,325.2492 518.3051,343.3192" fill="none" id="middleware-to-logging" style="stroke:#000000;stroke-width:1;"/><polygon fill="#000000" points="523.38,346.52,517.9015,338.3355,519.1509,343.8526,513.6338,345.102,523.38,346.52" style="stroke:#000000;stroke-width:1;"/></g><!--link middleware to context--><g class="link" data-entity-1="middleware" data-entity-2="context" data-source-line="50" data-uid="lnk19" id="link_middleware_context"><path codeLine="50" d="M376.79,285.13 C362.55,328.21 335.9127,408.843 321.6627,451.963" fill="none" id="middleware-to-context" style="stroke:#000000;stroke-width:1;"/><polygon fill="#000000" points="319.78,457.66,326.402,450.3697,321.3489,452.9125,318.8061,447.8594,319.78,457.66" style="stroke:#000000;stroke-width:1;"/></g><!--link middleware to errors--><g class="link" data-entity-1="middleware" data-entity-2="errors" data-source-line="51" data-uid="lnk20" id="link_middleware_errors"><path codeLine="51" d="M345.62,285.18 C315.62,304.64 279.9727,327.7732 251.8727,346.0132" fill="none" id="middleware-to-errors" style="stroke:#000000;stroke-width:1;"/><polygon fill="#000000" points="246.84,349.28,256.5669,347.735,251.0339,346.5577,252.2112,341.0247,246.84,349.28" style="stroke:#000000;stroke-width:1;"/></g><!--link health to logging--><g class="link" data-entity-1="health" data-entity-2="logging" data-source-line="53" data-uid="lnk21" id="link_health_logging"><path codeLine="53" d="M137.02,36.98 C197.8,44.54 330.81,66.18 429.28,118.97 C495.86,154.67 524.1,163.6 556.28,231.95 C573.28,268.08 571.198,309.6317 567.018,338.5617" fill="none" id="health-to-logging" style="stroke:#000000;stroke-width:1;"/><polygon fill="#000000" points="566.16,344.5,571.4059,336.1645,566.875,339.5514,563.4881,335.0205,566.16,344.5" style="stroke:#000000;stroke-width:1;"/></g><!--link health to config--><g class="link" data-entity-1="health" data-entity-2="config" data-source-line="54" data-uid="lnk22" id="link_health_config"><path codeLine="54" d="M104.28,59.18 C104.28,102.26 104.28,182.59 104.28,225.7" fill="none" id="health-to-config" style="stroke:#000000;stroke-width:1;"/><polygon fill="#000000" points="104.28,231.7,108.28,222.7,104.28,226.7,100.28,222.7,104.28,231.7" style="stroke:#000000;stroke-width:1;"/></g><!--link health to db--><g class="link" data-entity-1="health" data-entity-2="db" data-source-line="55" data-uid="lnk23" id="link_health_db"><path codeLine="55" d="M85.95,59.22 C73.28,77.03 59.9589,95.7315 47.2489,113.5915" fill="none" id="health-to-db" style="stroke:#000000;stroke-width:1;"/><polygon fill="#000000" points="43.77,118.48,52.2473,113.4665,46.6691,114.4063,45.7293,108.828,43.77,118.48" style="stroke:#000000;stroke-width:1;"/></g><!--link errors to context--><g class="link" data-entity-1="errors" data-entity-2="context" data-source-line="57" data-uid="lnk24" id="link_errors_context"><path codeLine="57" d="M236.77,398.15 C252.33,415.95 269.0129,435.0311 284.6129,452.8911" fill="none" id="errors-to-context" style="stroke:#000000;stroke-width:1;"/><polygon fill="#000000" points="288.56,457.41,285.652,448.0002,285.2708,453.6442,279.6268,453.263,288.56,457.41" style="stroke:#000000;stroke-width:1;"/></g><!--link db to config--><g class="link" data-entity-1="db" data-entity-2="config" data-source-line="59" data-uid="lnk25" id="link_db_config"><path codeLine="59" d="M43.6,172.2 C56.27,190 69.5898,208.7124 82.2998,226.5624" fill="none" id="db-to-config" style="stroke:#000000;stroke-width:1;"/><polygon fill="#000000" points="85.78,231.45,83.8181,221.7985,82.8799,227.377,77.3014,226.4388,85.78,231.45" style="stroke:#000000;stroke-width:1;"/></g><!--link db to errors--><g class="link" data-entity-1="db" data-entity-2="errors" data-source-line="60" data-uid="lnk26" id="link_db_errors"><path codeLine="60" d="M24.42,172.33 C24.74,202.3 29.45,251.81 54.28,284.93 C86.01,327.26 139.2603,349.102 176.0703,360.312" fill="none" id="db-to-errors" style="stroke:#000000;stroke-width:1;"/><polygon fill="#000000" points="181.81,362.06,174.3657,355.6116,177.0269,360.6034,172.0351,363.2646,181.81,362.06" style="stroke:#000000;stroke-width:1;"/></g><!--link db to context--><g class="link" data-entity-1="db" data-entity-2="context" data-source-line="61" data-uid="lnk27" id="link_db_context"><path codeLine="61" d="M18.3,172.43 C11.97,201.41 6,248.95 23.28,284.93 C73.35,389.21 202.7253,446.184 268.5453,469.534" fill="none" id="db-to-context" style="stroke:#000000;stroke-width:1;"/><polygon fill="#000000" points="274.2,471.54,267.0553,464.7611,269.4877,469.8683,264.3806,472.3007,274.2,471.54" style="stroke:#000000;stroke-width:1;"/></g><!--link di to config--><g class="link" data-entity-1="di" data-entity-2="config" data-source-line="63" data-uid="lnk28" id="link_di_config"><path codeLine="63" d="M223.93,160.52 C201.89,178.36 168.1225,205.7236 140.7625,227.8836" fill="none" id="di-to-config" style="stroke:#000000;stroke-width:1;"/><polygon fill="#000000" points="136.1,231.66,145.6114,229.1038,139.9854,228.513,140.5762,222.8871,136.1,231.66" style="stroke:#000000;stroke-width:1;"/></g><!--link di to logging--><g class="link" data-entity-1="di" data-entity-2="logging" data-source-line="64" data-uid="lnk29" id="link_di_logging"><path codeLine="64" d="M258.65,150.07 C297.24,158.75 391.68,183.73 455.28,231.95 C496.29,263.05 526.5651,308.7067 544.3051,339.3667" fill="none" id="di-to-logging" style="stroke:#000000;stroke-width:1;"/><polygon fill="#000000" points="547.31,344.56,546.2649,334.7667,544.8059,340.2322,539.3405,338.7733,547.31,344.56" style="stroke:#000000;stroke-width:1;"/></g><!--link config to errors--><g class="link" data-entity-1="config" data-entity-2="errors" data-source-line="66" data-uid="lnk30" id="link_config_errors"><path codeLine="66" d="M129.79,285.18 C147.43,302.98 166.5953,322.3195 184.2953,340.1695" fill="none" id="config-to-errors" style="stroke:#000000;stroke-width:1;"/><polygon fill="#000000" points="188.52,344.43,185.0233,335.2228,184.9994,340.8796,179.3426,340.8557,188.52,344.43" style="stroke:#000000;stroke-width:1;"/></g><!--link retry to errors--><g class="link" data-entity-1="retry" data-entity-2="errors" data-source-line="68" data-uid="lnk31" id="link_retry_errors"><path codeLine="68" d="M257.29,285.18 C248.31,302.98 239.1037,321.2237 230.0937,339.0737" fill="none" id="retry-to-errors" style="stroke:#000000;stroke-width:1;"/><polygon fill="#000000" points="227.39,344.43,235.0164,338.198,229.6431,339.9664,227.8746,334.5931,227.39,344.43" style="stroke:#000000;stroke-width:1;"/></g><!--SRC=[PP5DRiCW48NtSmgKVJOzGAMcH-YYQsoc68KVQuoLH5NlNW9ZWydAm_SUpCppSZL-bYIT68ERWqSVl-B3ebYTVOFbLHM_8CH5ZbTDOVNgCzX0udio4Pyya48gx6AJAR4Fed1hqH_0dBvIepZ9DKud8HVnBDBJhMQ3riRhB7FTEI9QT1ZfaJtxgNCvevJ5coJCjdhiV6Fm4UyncxZk71DAo_EMijCnhKfBralvsk77wAr1AZjT3LbJGyzDuQRZjEzETU-SvFdylcLMGTsyiZ8dG0sllNga70f04s7hxl1cx_3MaHDi7sXGoQSbQW3WL0_3fBIQ2tpY9bLZhpbupQ4xy3zfXwHzUIR_]--></g></svg>