<svg xmlns="http://www.w3.org/2000/svg" xmlns:xlink="http://www.w3.org/1999/xlink" contentStyleType="text/css" data-diagram-type="CLASS" height="795px" preserveAspectRatio="none" style="width:2332px;height:795px;background:#FFFFFF;" version="1.1" viewBox="0 0 2332 795" width="2332px" zoomAndPan="magnify"><defs/><g><!--cluster retry--><g class="cluster" data-entity="retry" data-source-line="9" data-uid="ent0002" id="cluster_retry"><path d="M356.5,6 L392.2676,6 A3.75,3.75 0 0 1 394.7676,8.5 L401.7676,28.4883 L2225.5,28.4883 A2.5,2.5 0 0 1 2228,30.9883 L2228,556.78 A2.5,2.5 0 0 1 2225.5,559.28 L356.5,559.28 A2.5,2.5 0 0 1 354,556.78 L354,8.5 A2.5,2.5 0 0 1 356.5,6" fill="none" style="stroke:#000000;stroke-width:1.5;"/><line style="stroke:#000000;stroke-width:1.5;" x1="354" x2="401.7676" y1="28.4883" y2="28.4883"/><text fill="#000000" font-family="sans-serif" font-size="14" font-weight="bold" lengthAdjust="spacing" textLength="34.7676" x="358" y="21.5352">retry</text></g><!--cluster errors--><g class="cluster" data-entity="errors" data-source-line="65" data-uid="ent0017" id="cluster_errors"><path d="M95.5,320.61 L140.6533,320.61 A3.75,3.75 0 0 1 143.1533,323.11 L150.1533,343.0983 L311.5,343.0983 A2.5,2.5 0 0 1 314,345.5983 L314,482.58 A2.5,2.5 0 0 1 311.5,485.08 L95.5,485.08 A2.5,2.5 0 0 1 93,482.58 L93,323.11 A2.5,2.5 0 0 1 95.5,320.61" fill="none" style="stroke:#000000;stroke-width:1.5;"/><line style="stroke:#000000;stroke-width:1.5;" x1="93" x2="150.1533" y1="343.0983" y2="343.0983"/><text fill="#000000" font-family="sans-serif" font-size="14" font-weight="bold" lengthAdjust="spacing" textLength="44.1533" x="97" y="336.1452">errors</text></g><!--cluster logging--><g class="cluster" data-entity="logging" data-source-line="73" data-uid="ent0019" id="cluster_logging"><path d="M211.5,649.01 L267.4473,649.01 A3.75,3.75 0 0 1 269.9473,651.51 L276.9473,671.4983 L406.5,671.4983 A2.5,2.5 0 0 1 409,673.9983 L409,761.51 A2.5,2.5 0 0 1 406.5,764.01 L211.5,764.01 A2.5,2.5 0 0 1 209,761.51 L209,651.51 A2.5,2.5 0 0 1 211.5,649.01" fill="none" style="stroke:#000000;stroke-width:1.5;"/><line style="stroke:#000000;stroke-width:1.5;" x1="209" x2="276.9473" y1="671.4983" y2="671.4983"/><text fill="#000000" font-family="sans-serif" font-size="14" font-weight="bold" lengthAdjust="spacing" textLength="54.9473" x="213" y="664.5452">logging</text></g><!--cluster telemetry--><g class="cluster" data-entity="telemetry" data-source-line="78" data-uid="ent0021" id="cluster_telemetry"><path d="M1329.5,624.28 L1399.1123,624.28 A3.75,3.75 0 0 1 1401.6123,626.78 L1408.6123,646.7683 L2252.5,646.7683 A2.5,2.5 0 0 1 2255,649.2683 L2255,786.24 A2.5,2.5 0 0 1 2252.5,788.74 L1329.5,788.74 A2.5,2.5 0 0 1 1327,786.24 L1327,626.78 A2.5,2.5 0 0 1 1329.5,624.28" fill="none" style="stroke:#000000;stroke-width:1.5;"/><line style="stroke:#000000;stroke-width:1.5;" x1="1327" x2="1408.6123" y1="646.7683" y2="646.7683"/><text fill="#000000" font-family="sans-serif" font-size="14" font-weight="bold" lengthAdjust="spacing" textLength="68.6123" x="1331" y="639.8152">telemetry</text></g><!--class RetryableFunc--><g class="entity" data-entity="RetryableFunc" data-source-line="10" data-uid="ent0003" id="entity_RetryableFunc"><rect fill="#F1F1F1" height="64.4883" rx="2.5" ry="2.5" style="stroke:#181818;stroke-width:0.5;" width="237.8184" x="1775.09" y="380.1"/><ellipse cx="1842.0617" cy="396.1" fill="#ADD1B2" rx="11" ry="11" style="stroke:#181818;stroke-width:1;"/><path d="M1844.5348,402.2431 Q1843.9538,402.5419 1843.3146,402.6913 Q1842.6754,402.8407 1841.9699,402.8407 Q1839.463,402.8407 1838.1432,401.1889 Q1836.8234,399.537 1836.8234,396.4159 Q1836.8234,393.2865 1838.1432,391.6347 Q1839.463,389.9828 1841.9699,389.9828 Q1842.6754,389.9828 1843.3229,390.1322 Q1843.9704,390.2816 1844.5348,390.5805 L1844.5348,393.3031 Q1843.904,392.7221 1843.3105,392.4523 Q1842.717,392.1825 1842.0861,392.1825 Q1840.7414,392.1825 1840.0566,393.2492 Q1839.3717,394.3158 1839.3717,396.4159 Q1839.3717,398.5077 1840.0566,399.5744 Q1840.7414,400.641 1842.0861,400.641 Q1842.717,400.641 1843.3105,400.3712 Q1843.904,400.1015 1844.5348,399.5204 Z " fill="#000000"/><text fill="#000000" font-family="sans-serif" font-size="14" lengthAdjust="spacing" textLength="95.375" x="1862.5617" y="401.391">RetryableFunc</text><line style="stroke:#181818;stroke-width:0.5;" x1="1776.09" x2="2011.9084" y1="412.1" y2="412.1"/><line style="stroke:#181818;stroke-width:0.5;" x1="1776.09" x2="2011.9084" y1="420.1" y2="420.1"/><ellipse cx="1786.09" cy="433.8441" fill="#84BE84" rx="3" ry="3" style="stroke:#038048;stroke-width:1;"/><text fill="#000000" font-family="sans-serif" font-size="14" lengthAdjust="spacing" textLength="211.8184" x="1795.09" y="437.6352">func(ctx context.Context) error</text></g><!--class IsRetryableError--><g class="entity" data-entity="IsRetryableError" data-source-line="14" data-uid="ent0004" id="entity_IsRetryableError"><rect fill="#F1F1F1" height="64.4883" rx="2.5" ry="2.5" style="stroke:#181818;stroke-width:0.5;" width="156.5596" x="2047.72" y="380.1"/><ellipse cx="2070.2329" cy="396.1" fill="#ADD1B2" rx="11" ry="11" style="stroke:#181818;stroke-width:1;"/><path d="M2072.706,402.2431 Q2072.125,402.5419 2071.4858,402.6913 Q2070.8467,402.8407 2070.1411,402.8407 Q2067.6343,402.8407 2066.3144,401.1889 Q2064.9946,399.537 2064.9946,396.4159 Q2064.9946,393.2865 2066.3144,391.6347 Q2067.6343,389.9828 2070.1411,389.9828 Q2070.8467,389.9828 2071.4941,390.1322 Q2072.1416,390.2816 2072.706,390.5805 L2072.706,393.3031 Q2072.0752,392.7221 2071.4817,392.4523 Q2070.8882,392.1825 2070.2573,392.1825 Q2068.9126,392.1825 2068.2278,393.2492 Q2067.5429,394.3158 2067.5429,396.4159 Q2067.5429,398.5077 2068.2278,399.5744 Q2068.9126,400.641 2070.2573,400.641 Q2070.8882,400.641 2071.4817,400.3712 Q2072.0752,400.1015 2072.706,399.5204 Z " fill="#000000"/><text fill="#000000" font-family="sans-serif" font-size="14" lengthAdjust="spacing" textLength="107.8643" x="2085.9024" y="401.391">IsRetryableError</text><line style="stroke:#181818;stroke-width:0.5;" x1="2048.72" x2="2203.2796" y1="412.1" y2="412.1"/><line style="stroke:#181818;stroke-width:0.5;" x1="2048.72" x2="2203.2796" y1="420.1" y2="420.1"/><ellipse cx="2058.72" cy="433.8441" fill="#84BE84" rx="3" ry="3" style="stroke:#038048;stroke-width:1;"/><text fill="#000000" font-family="sans-serif" font-size="14" lengthAdjust="spacing" textLength="130.5596" x="2067.72" y="437.6352">func(err error) bool</text></g><!--class Config--><g class="entity" data-entity="Config" data-source-line="18" data-uid="ent0005" id="entity_Config"><rect fill="#F1F1F1" height="245.8594" rx="2.5" ry="2.5" style="stroke:#181818;stroke-width:0.5;" width="392.7686" x="1099.62" y="289.42"/><ellipse cx="1269.3051" cy="305.42" fill="#ADD1B2" rx="11" ry="11" style="stroke:#181818;stroke-width:1;"/><path d="M1271.7782,311.5631 Q1271.1971,311.8619 1270.558,312.0113 Q1269.9188,312.1607 1269.2133,312.1607 Q1266.7064,312.1607 1265.3866,310.5089 Q1264.0668,308.857 1264.0668,305.7359 Q1264.0668,302.6065 1265.3866,300.9547 Q1266.7064,299.3028 1269.2133,299.3028 Q1269.9188,299.3028 1270.5663,299.4522 Q1271.2138,299.6016 1271.7782,299.9005 L1271.7782,302.6231 Q1271.1473,302.0421 1270.5538,301.7723 Q1269.9603,301.5025 1269.3295,301.5025 Q1267.9847,301.5025 1267.2999,302.5692 Q1266.6151,303.6358 1266.6151,305.7359 Q1266.6151,307.8277 1267.2999,308.8944 Q1267.9847,309.961 1269.3295,309.961 Q1269.9603,309.961 1270.5538,309.6912 Q1271.1473,309.4215 1271.7782,308.8404 Z " fill="#000000"/><text fill="#000000" font-family="sans-serif" font-size="14" lengthAdjust="spacing" textLength="44.8984" x="1289.8051" y="310.711">Config</text><line style="stroke:#181818;stroke-width:0.5;" x1="1100.62" x2="1491.3886" y1="321.42" y2="321.42"/><ellipse cx="1110.62" cy="335.1641" fill="none" rx="3" ry="3" style="stroke:#038048;stroke-width:1;"/><text fill="#000000" font-family="sans-serif" font-size="14" lengthAdjust="spacing" textLength="101.8076" x="1119.62" y="338.9552">MaxRetries: int</text><ellipse cx="1110.62" cy="351.6524" fill="none" rx="3" ry="3" style="stroke:#038048;stroke-width:1;"/><text fill="#000000" font-family="sans-serif" font-size="14" lengthAdjust="spacing" textLength="190.5107" x="1119.62" y="355.4434">InitialBackoff: time.Duration</text><ellipse cx="1110.62" cy="368.1407" fill="none" rx="3" ry="3" style="stroke:#038048;stroke-width:1;"/><text fill="#000000" font-family="sans-serif" font-size="14" lengthAdjust="spacing" textLength="181.0566" x="1119.62" y="371.9317">MaxBackoff: time.Duration</text><ellipse cx="1110.62" cy="384.629" fill="none" rx="3" ry="3" style="stroke:#038048;stroke-width:1;"/><text fill="#000000" font-family="sans-serif" font-size="14" lengthAdjust="spacing" textLength="149.3311" x="1119.62" y="388.42">BackoffFactor: float64</text><ellipse cx="1110.62" cy="401.1173" fill="none" rx="3" ry="3" style="stroke:#038048;stroke-width:1;"/><text fill="#000000" font-family="sans-serif" font-size="14" lengthAdjust="spacing" textLength="131.7012" x="1119.62" y="404.9083">JitterFactor: float64</text><ellipse cx="1110.62" cy="417.6055" fill="none" rx="3" ry="3" style="stroke:#038048;stroke-width:1;"/><text fill="#000000" font-family="sans-serif" font-size="14" lengthAdjust="spacing" textLength="155.3809" x="1119.62" y="421.3966">RetryableErrors: []error</text><line style="stroke:#181818;stroke-width:0.5;" x1="1100.62" x2="1491.3886" y1="428.3497" y2="428.3497"/><ellipse cx="1110.62" cy="442.0938" fill="#84BE84" rx="3" ry="3" style="stroke:#038048;stroke-width:1;"/><text fill="#000000" font-family="sans-serif" font-size="14" lengthAdjust="spacing" textLength="266.1777" x="1119.62" y="445.8848">WithMaxRetries(maxRetries int): Config</text><ellipse cx="1110.62" cy="458.5821" fill="#84BE84" rx="3" ry="3" style="stroke:#038048;stroke-width:1;"/><text fill="#000000" font-family="sans-serif" font-size="14" lengthAdjust="spacing" textLength="366.7686" x="1119.62" y="462.3731">WithInitialBackoff(initialBackoff time.Duration): Config</text><ellipse cx="1110.62" cy="475.0704" fill="#84BE84" rx="3" ry="3" style="stroke:#038048;stroke-width:1;"/><text fill="#000000" font-family="sans-serif" font-size="14" lengthAdjust="spacing" textLength="348.8584" x="1119.62" y="478.8614">WithMaxBackoff(maxBackoff time.Duration): Config</text><ellipse cx="1110.62" cy="491.5587" fill="#84BE84" rx="3" ry="3" style="stroke:#038048;stroke-width:1;"/><text fill="#000000" font-family="sans-serif" font-size="14" lengthAdjust="spacing" textLength="330.4766" x="1119.62" y="495.3497">WithBackoffFactor(backoffFactor float64): Config</text><ellipse cx="1110.62" cy="508.047" fill="#84BE84" rx="3" ry="3" style="stroke:#038048;stroke-width:1;"/><text fill="#000000" font-family="sans-serif" font-size="14" lengthAdjust="spacing" textLength="294.3623" x="1119.62" y="511.838">WithJitterFactor(jitterFactor float64): Config</text><ellipse cx="1110.62" cy="524.5352" fill="#84BE84" rx="3" ry="3" style="stroke:#038048;stroke-width:1;"/><text fill="#000000" font-family="sans-serif" font-size="14" lengthAdjust="spacing" textLength="344.4697" x="1119.62" y="528.3263">WithRetryableErrors(retryableErrors []error): Config</text></g><!--class Options--><g class="entity" data-entity="Options" data-source-line="33" data-uid="ent0006" id="entity_Options"><rect fill="#F1F1F1" height="97.4648" rx="2.5" ry="2.5" style="stroke:#181818;stroke-width:0.5;" width="323.2129" x="386.39" y="363.61"/><ellipse cx="517.0487" cy="379.61" fill="#ADD1B2" rx="11" ry="11" style="stroke:#181818;stroke-width:1;"/><path d="M519.5218,385.7531 Q518.9408,386.0519 518.3016,386.2013 Q517.6625,386.3507 516.9569,386.3507 Q514.4501,386.3507 513.1302,384.6989 Q511.8104,383.047 511.8104,379.9259 Q511.8104,376.7965 513.1302,375.1447 Q514.4501,373.4928 516.9569,373.4928 Q517.6625,373.4928 518.3099,373.6422 Q518.9574,373.7916 519.5218,374.0905 L519.5218,376.8131 Q518.891,376.2321 518.2975,375.9623 Q517.704,375.6925 517.0731,375.6925 Q515.7284,375.6925 515.0436,376.7592 Q514.3588,377.8258 514.3588,379.9259 Q514.3588,382.0177 515.0436,383.0844 Q515.7284,384.151 517.0731,384.151 Q517.704,384.151 518.2975,383.8812 Q518.891,383.6115 519.5218,383.0304 Z " fill="#000000"/><text fill="#000000" font-family="sans-serif" font-size="14" lengthAdjust="spacing" textLength="53.3955" x="537.5487" y="384.901">Options</text><line style="stroke:#181818;stroke-width:0.5;" x1="387.39" x2="708.6029" y1="395.61" y2="395.61"/><ellipse cx="397.39" cy="409.3541" fill="none" rx="3" ry="3" style="stroke:#038048;stroke-width:1;"/><text fill="#000000" font-family="sans-serif" font-size="14" lengthAdjust="spacing" textLength="219.543" x="406.39" y="413.1452">Logger: *logging.ContextLogger</text><ellipse cx="397.39" cy="425.8424" fill="none" rx="3" ry="3" style="stroke:#038048;stroke-width:1;"/><text fill="#000000" font-family="sans-serif" font-size="14" lengthAdjust="spacing" textLength="163.3447" x="406.39" y="429.6334">Tracer: telemetry.Tracer</text><line style="stroke:#181818;stroke-width:0.5;" x1="387.39" x2="708.6029" y1="436.5866" y2="436.5866"/><ellipse cx="397.39" cy="450.3307" fill="#84BE84" rx="3" ry="3" style="stroke:#038048;stroke-width:1;"/><text fill="#000000" font-family="sans-serif" font-size="14" lengthAdjust="spacing" textLength="297.2129" x="406.39" y="454.1217">WithOtelTracer(tracer trace.Tracer): Options</text></g><g class="entity" data-entity="GMN7" data-source-line="40" data-uid="ent0008" id="entity_GMN7"><path d="M745.1,392.03 L745.1,408.35 L709.77,412.35 L745.1,416.35 L745.1,432.6511 A0,0 0 0 0 745.1,432.6511 L1064.9032,432.6511 A0,0 0 0 0 1064.9032,432.6511 L1064.9032,402.03 L1054.9032,392.03 L745.1,392.03 A0,0 0 0 0 745.1,392.03" fill="#FEFFDD" style="stroke:#181818;stroke-width:0.5;"/><path d="M1054.9032,392.03 L1054.9032,402.03 L1064.9032,402.03 L1054.9032,392.03" fill="#FEFFDD" style="stroke:#181818;stroke-width:0.5;"/><text fill="#000000" font-family="sans-serif" font-size="13" lengthAdjust="spacing" textLength="298.8032" x="751.1" y="409.5984">Provides additional options for retry operations</text><text fill="#000000" font-family="sans-serif" font-size="13" lengthAdjust="spacing" textLength="261.2886" x="751.1" y="424.9089">including logging and tracing capabilities</text></g><g class="entity" data-entity="GMN10" data-source-line="45" data-uid="ent0011" id="entity_GMN10"><path d="M1527.51,392.03 L1527.51,408.35 L1492.73,412.35 L1527.51,416.35 L1527.51,432.6511 A0,0 0 0 0 1527.51,432.6511 L1740.5012,432.6511 A0,0 0 0 0 1740.5012,432.6511 L1740.5012,402.03 L1730.5012,392.03 L1527.51,392.03 A0,0 0 0 0 1527.51,392.03" fill="#FEFFDD" style="stroke:#181818;stroke-width:0.5;"/><path d="M1730.5012,392.03 L1730.5012,402.03 L1740.5012,402.03 L1730.5012,392.03" fill="#FEFFDD" style="stroke:#181818;stroke-width:0.5;"/><text fill="#000000" font-family="sans-serif" font-size="13" lengthAdjust="spacing" textLength="191.9912" x="1533.51" y="409.5984">Configures retry behavior with</text><text fill="#000000" font-family="sans-serif" font-size="13" lengthAdjust="spacing" textLength="184.2217" x="1533.51" y="424.9089">backoff and jitter parameters</text></g><!--class Functions--><g class="entity" data-entity="Functions" data-source-line="49" data-uid="ent0013" id="entity_Functions"><rect fill="#F1F1F1" height="163.418" rx="2.5" ry="2.5" style="stroke:#181818;stroke-width:0.5;" width="851.5146" x="870.24" y="49"/><ellipse cx="1258.8665" cy="65" fill="#ADD1B2" rx="11" ry="11" style="stroke:#181818;stroke-width:1;"/><path d="M1261.3396,71.1431 Q1260.7586,71.4419 1260.1194,71.5913 Q1259.4802,71.7407 1258.7747,71.7407 Q1256.2678,71.7407 1254.948,70.0889 Q1253.6282,68.437 1253.6282,65.3159 Q1253.6282,62.1865 1254.948,60.5347 Q1256.2678,58.8828 1258.7747,58.8828 Q1259.4802,58.8828 1260.1277,59.0322 Q1260.7752,59.1816 1261.3396,59.4805 L1261.3396,62.2031 Q1260.7088,61.6221 1260.1152,61.3523 Q1259.5217,61.0825 1258.8909,61.0825 Q1257.5462,61.0825 1256.8613,62.1492 Q1256.1765,63.2158 1256.1765,65.3159 Q1256.1765,67.4077 1256.8613,68.4744 Q1257.5462,69.541 1258.8909,69.541 Q1259.5217,69.541 1260.1152,69.2712 Q1260.7088,69.0015 1261.3396,68.4204 Z " fill="#000000"/><text fill="#000000" font-family="sans-serif" font-size="14" lengthAdjust="spacing" textLength="65.7617" x="1279.3665" y="70.291">Functions</text><line style="stroke:#181818;stroke-width:0.5;" x1="871.24" x2="1720.7546" y1="81" y2="81"/><line style="stroke:#181818;stroke-width:0.5;" x1="871.24" x2="1720.7546" y1="89" y2="89"/><ellipse cx="881.24" cy="102.7441" fill="#84BE84" rx="3" ry="3" style="stroke:#038048;stroke-width:1;"/><text fill="#000000" font-family="sans-serif" font-size="14" lengthAdjust="spacing" textLength="156.8984" x="890.24" y="106.5352">DefaultConfig(): Config</text><ellipse cx="881.24" cy="119.2324" fill="#84BE84" rx="3" ry="3" style="stroke:#038048;stroke-width:1;"/><text fill="#000000" font-family="sans-serif" font-size="14" lengthAdjust="spacing" textLength="173.8926" x="890.24" y="123.0234">DefaultOptions(): Options</text><ellipse cx="881.24" cy="135.7207" fill="#84BE84" rx="3" ry="3" style="stroke:#038048;stroke-width:1;"/><text fill="#000000" font-family="sans-serif" font-size="14" lengthAdjust="spacing" textLength="624.3672" x="890.24" y="139.5117">Do(ctx context.Context, fn RetryableFunc, config Config, isRetryable IsRetryableError): error</text><ellipse cx="881.24" cy="152.209" fill="#84BE84" rx="3" ry="3" style="stroke:#038048;stroke-width:1;"/><text fill="#000000" font-family="sans-serif" font-size="14" lengthAdjust="spacing" textLength="825.5146" x="890.24" y="156">DoWithOptions(ctx context.Context, fn RetryableFunc, config Config, isRetryable IsRetryableError, options Options): error</text><ellipse cx="881.24" cy="168.6973" fill="#84BE84" rx="3" ry="3" style="stroke:#038048;stroke-width:1;"/><text fill="#000000" font-family="sans-serif" font-size="14" lengthAdjust="spacing" textLength="297.4248" x="890.24" y="172.4883">IsNetworkError(err error): bool [Deprecated]</text><ellipse cx="881.24" cy="185.1855" fill="#84BE84" rx="3" ry="3" style="stroke:#038048;stroke-width:1;"/><text fill="#000000" font-family="sans-serif" font-size="14" lengthAdjust="spacing" textLength="297.042" x="890.24" y="188.9766">IsTimeoutError(err error): bool [Deprecated]</text><ellipse cx="881.24" cy="201.6738" fill="#84BE84" rx="3" ry="3" style="stroke:#038048;stroke-width:1;"/><text fill="#000000" font-family="sans-serif" font-size="14" lengthAdjust="spacing" textLength="304.6572" x="890.24" y="205.4648">IsTransientError(err error): bool [Deprecated]</text></g><g class="entity" data-entity="GMN14" data-source-line="60" data-uid="ent0015" id="entity_GMN14"><path d="M1757.01,110.4 L1757.01,126.71 L1722.17,130.71 L1757.01,134.71 L1757.01,151.0211 A0,0 0 0 0 1757.01,151.0211 L2128.9973,151.0211 A0,0 0 0 0 2128.9973,151.0211 L2128.9973,120.4 L2118.9973,110.4 L1757.01,110.4 A0,0 0 0 0 1757.01,110.4" fill="#FEFFDD" style="stroke:#181818;stroke-width:0.5;"/><path d="M2118.9973,110.4 L2118.9973,120.4 L2128.9973,120.4 L2118.9973,110.4" fill="#FEFFDD" style="stroke:#181818;stroke-width:0.5;"/><text fill="#000000" font-family="sans-serif" font-size="13" lengthAdjust="spacing" textLength="350.9873" x="1763.01" y="127.9684">Core functions for executing operations with retry logic</text><text fill="#000000" font-family="sans-serif" font-size="13" lengthAdjust="spacing" textLength="250.8149" x="1763.01" y="143.2789">and helper functions for error detection</text></g><!--class RetryError--><g class="entity" data-entity="RetryError" data-source-line="66" data-uid="ent0018" id="entity_RetryError"><rect fill="#F1F1F1" height="97.4648" rx="2.5" ry="2.5" style="stroke:#181818;stroke-width:0.5;" width="153.4971" x="117.25" y="363.61"/><ellipse cx="156.1866" cy="379.61" fill="#ADD1B2" rx="11" ry="11" style="stroke:#181818;stroke-width:1;"/><path d="M158.6597,385.7531 Q158.0787,386.0519 157.4395,386.2013 Q156.8003,386.3507 156.0948,386.3507 Q153.5879,386.3507 152.2681,384.6989 Q150.9483,383.047 150.9483,379.9259 Q150.9483,376.7965 152.2681,375.1447 Q153.5879,373.4928 156.0948,373.4928 Q156.8003,373.4928 157.4478,373.6422 Q158.0953,373.7916 158.6597,374.0905 L158.6597,376.8131 Q158.0289,376.2321 157.4354,375.9623 Q156.8418,375.6925 156.211,375.6925 Q154.8663,375.6925 154.1814,376.7592 Q153.4966,377.8258 153.4966,379.9259 Q153.4966,382.0177 154.1814,383.0844 Q154.8663,384.151 156.211,384.151 Q156.8418,384.151 157.4354,383.8812 Q158.0289,383.6115 158.6597,383.0304 Z " fill="#000000"/><text fill="#000000" font-family="sans-serif" font-size="14" lengthAdjust="spacing" textLength="68.3047" x="175.5058" y="384.901">RetryError</text><line style="stroke:#181818;stroke-width:0.5;" x1="118.25" x2="269.7471" y1="395.61" y2="395.61"/><ellipse cx="128.25" cy="409.3541" fill="none" rx="3" ry="3" style="stroke:#038048;stroke-width:1;"/><text fill="#000000" font-family="sans-serif" font-size="14" lengthAdjust="spacing" textLength="89.0176" x="137.25" y="413.1452">Attempts: int</text><ellipse cx="128.25" cy="425.8424" fill="none" rx="3" ry="3" style="stroke:#038048;stroke-width:1;"/><text fill="#000000" font-family="sans-serif" font-size="14" lengthAdjust="spacing" textLength="117.3936" x="137.25" y="429.6334">MaxAttempts: int</text><line style="stroke:#181818;stroke-width:0.5;" x1="118.25" x2="269.7471" y1="436.5866" y2="436.5866"/><ellipse cx="128.25" cy="450.3307" fill="#84BE84" rx="3" ry="3" style="stroke:#038048;stroke-width:1;"/><text fill="#000000" font-family="sans-serif" font-size="14" lengthAdjust="spacing" textLength="127.4971" x="137.25" y="454.1217">IsRetryError(): bool</text></g><!--class ContextLogger--><g class="entity" data-entity="ContextLogger" data-source-line="74" data-uid="ent0020" id="entity_ContextLogger"><rect fill="#F1F1F1" height="48" rx="2.5" ry="2.5" style="stroke:#181818;stroke-width:0.5;" width="132.8848" x="252.56" y="692.01"/><ellipse cx="267.56" cy="708.01" fill="#ADD1B2" rx="11" ry="11" style="stroke:#181818;stroke-width:1;"/><path d="M270.0331,714.1531 Q269.4521,714.4519 268.8129,714.6013 Q268.1738,714.7507 267.4682,714.7507 Q264.9614,714.7507 263.6415,713.0989 Q262.3217,711.447 262.3217,708.3259 Q262.3217,705.1965 263.6415,703.5447 Q264.9614,701.8928 267.4682,701.8928 Q268.1738,701.8928 268.8212,702.0422 Q269.4687,702.1916 270.0331,702.4905 L270.0331,705.2131 Q269.4023,704.6321 268.8088,704.3623 Q268.2153,704.0925 267.5844,704.0925 Q266.2397,704.0925 265.5549,705.1592 Q264.8701,706.2258 264.8701,708.3259 Q264.8701,710.4177 265.5549,711.4844 Q266.2397,712.551 267.5844,712.551 Q268.2153,712.551 268.8088,712.2812 Q269.4023,712.0115 270.0331,711.4304 Z " fill="#000000"/><text fill="#000000" font-family="sans-serif" font-size="14" lengthAdjust="spacing" textLength="100.8848" x="281.56" y="713.301">ContextLogger</text><line style="stroke:#181818;stroke-width:0.5;" x1="253.56" x2="384.4448" y1="724.01" y2="724.01"/><line style="stroke:#181818;stroke-width:0.5;" x1="253.56" x2="384.4448" y1="732.01" y2="732.01"/></g><!--class Tracer--><g class="entity" data-entity="Tracer" data-source-line="79" data-uid="ent0022" id="entity_Tracer"><rect fill="#F1F1F1" height="64.4883" rx="2.5" ry="2.5" style="stroke:#181818;stroke-width:0.5;" width="494.9248" x="1350.54" y="683.76"/><ellipse cx="1572.2465" cy="699.76" fill="#B4A7E5" rx="11" ry="11" style="stroke:#181818;stroke-width:1;"/><path d="M1568.6743,696.0251 L1568.6743,693.8669 L1576.0537,693.8669 L1576.0537,696.0251 L1573.5883,696.0251 L1573.5883,704.1018 L1576.0537,704.1018 L1576.0537,706.26 L1568.6743,706.26 L1568.6743,704.1018 L1571.1396,704.1018 L1571.1396,696.0251 Z " fill="#000000"/><text fill="#000000" font-family="sans-serif" font-size="14" font-style="italic" lengthAdjust="spacing" textLength="43.0117" x="1592.7465" y="705.051">Tracer</text><line style="stroke:#181818;stroke-width:0.5;" x1="1351.54" x2="1844.4648" y1="715.76" y2="715.76"/><line style="stroke:#181818;stroke-width:0.5;" x1="1351.54" x2="1844.4648" y1="723.76" y2="723.76"/><ellipse cx="1361.54" cy="737.5041" fill="#84BE84" rx="3" ry="3" style="stroke:#038048;stroke-width:1;"/><text fill="#000000" font-family="sans-serif" font-size="14" lengthAdjust="spacing" textLength="468.9248" x="1370.54" y="741.2952">Start(ctx context.Context, spanName string): (context.Context, Span)</text></g><!--class Span--><g class="entity" data-entity="Span" data-source-line="83" data-uid="ent0023" id="entity_Span"><rect fill="#F1F1F1" height="97.4648" rx="2.5" ry="2.5" style="stroke:#181818;stroke-width:0.5;" width="331.252" x="1880.38" y="667.28"/><ellipse cx="2025.3702" cy="683.28" fill="#B4A7E5" rx="11" ry="11" style="stroke:#181818;stroke-width:1;"/><path d="M2021.798,679.5451 L2021.798,677.3869 L2029.1774,677.3869 L2029.1774,679.5451 L2026.712,679.5451 L2026.712,687.6218 L2029.1774,687.6218 L2029.1774,689.78 L2021.798,689.78 L2021.798,687.6218 L2024.2633,687.6218 L2024.2633,679.5451 Z " fill="#000000"/><text fill="#000000" font-family="sans-serif" font-size="14" font-style="italic" lengthAdjust="spacing" textLength="32.7715" x="2045.8702" y="688.571">Span</text><line style="stroke:#181818;stroke-width:0.5;" x1="1881.38" x2="2210.632" y1="699.28" y2="699.28"/><line style="stroke:#181818;stroke-width:0.5;" x1="1881.38" x2="2210.632" y1="707.28" y2="707.28"/><ellipse cx="1891.38" cy="721.0241" fill="#84BE84" rx="3" ry="3" style="stroke:#038048;stroke-width:1;"/><text fill="#000000" font-family="sans-serif" font-size="14" lengthAdjust="spacing" textLength="34.1934" x="1900.38" y="724.8152">End()</text><ellipse cx="1891.38" cy="737.5124" fill="#84BE84" rx="3" ry="3" style="stroke:#038048;stroke-width:1;"/><text fill="#000000" font-family="sans-serif" font-size="14" lengthAdjust="spacing" textLength="305.252" x="1900.38" y="741.3034">SetAttributes(attributes ...attribute.KeyValue)</text><ellipse cx="1891.38" cy="754.0007" fill="#84BE84" rx="3" ry="3" style="stroke:#038048;stroke-width:1;"/><text fill="#000000" font-family="sans-serif" font-size="14" lengthAdjust="spacing" textLength="146.7129" x="1900.38" y="757.7917">RecordError(err error)</text></g><!--link retry to errors--><g class="link" data-entity-1="retry" data-entity-2="errors" data-source-line="91" data-uid="lnk24" id="link_retry_errors"><path codeLine="91" d="M353.9631,171.8538 C353.6502,173.4164 353.3304,175.0135 353.0041,176.6433 C347.7825,202.7191 340.8912,237.1306 334,271.5413 C327.1088,305.9519 320.2175,340.3616 314.9959,366.4336 C314.6696,368.0631 315.528,363.7769 315.2151,365.3392" fill="none" id="retry-to-errors" style="stroke:#000000;stroke-width:1;"/><polygon fill="#000000" points="314.0369,371.2224,319.7264,363.1831,315.0187,366.3197,311.8821,361.6121,314.0369,371.2224" style="stroke:#000000;stroke-width:1;"/><text fill="#000000" font-family="sans-serif" font-size="13" lengthAdjust="spacing" textLength="28.5645" x="340.02" y="255.9884">uses</text></g><!--link retry to logging--><g class="link" data-entity-1="retry" data-entity-2="logging" data-source-line="92" data-uid="lnk25" id="link_retry_logging"><path codeLine="92" d="M353.8983,133.0612 C353.5514,133.1234 353.1941,133.188 352.8266,133.2548 C352.0917,133.3885 351.3162,133.5315 350.5012,133.6839 C343.982,134.9037 334.9444,136.7314 324.0519,139.2859 C302.2669,144.395 273.0625,152.4113 241.7475,164.285 C179.1175,188.0325 108.045,227.21 71,289.42 C6,398.58 21.1,458.44 71,575.28 C88.365,615.93 124.005,650.415 155.7238,674.9563 C171.5831,687.2269 186.4622,697.0116 197.5864,703.838 C200.3675,705.5446 202.9138,707.0663 205.1822,708.3957 C206.3164,709.0604 207.381,709.6771 208.3708,710.2447 C208.4945,710.3157 203.4089,707.4067 203.5303,707.4761" fill="none" id="retry-to-logging" style="stroke:#000000;stroke-width:1;"/><polygon fill="#000000" points="208.7384,710.4553,202.9124,702.5145,204.3983,707.9727,198.9401,709.4586,208.7384,710.4553" style="stroke:#000000;stroke-width:1;"/><text fill="#000000" font-family="sans-serif" font-size="13" lengthAdjust="spacing" textLength="28.5645" x="72" y="417.4184">uses</text></g><!--link retry to telemetry--><g class="link" data-entity-1="retry" data-entity-2="telemetry" data-source-line="93" data-uid="lnk26" id="link_retry_telemetry"><path codeLine="93" d="M2228.515,251.0902 C2229.0623,251.6813 2229.6055,252.275 2230.1448,252.8713 C2231.2232,254.0638 2232.2856,255.2664 2233.3322,256.479 C2237.5183,261.3295 2241.4506,266.339 2245.1409,271.4925 C2252.5215,281.7994 2258.9344,292.6819 2264.4752,304.019 C2275.5567,326.6931 2283.15,351.1852 2288.0206,376.5261 C2297.7619,427.2078 2296.6125,481.2844 2290.6975,531.0013 C2284.7825,580.7181 2274.1019,626.0753 2264.7806,659.3183 C2262.4503,667.629 2260.205,675.1826 2258.1403,681.8579 C2257.1079,685.1956 2256.1208,688.3137 2255.1907,691.197 C2255.1326,691.3772 2256.9207,685.8476 2256.863,686.0259" fill="none" id="retry-to-telemetry" style="stroke:#000000;stroke-width:1;"/><polygon fill="#000000" points="2255.017,691.7349,2261.592,684.4022,2256.5554,686.9774,2253.9801,681.9408,2255.017,691.7349" style="stroke:#000000;stroke-width:1;"/><text fill="#000000" font-family="sans-serif" font-size="13" lengthAdjust="spacing" textLength="28.5645" x="2296.24" y="417.4184">uses</text></g><!--link Functions to RetryableFunc--><g class="link" data-entity-1="Functions" data-entity-2="RetryableFunc" data-source-line="94" data-uid="lnk27" id="link_Functions_RetryableFunc"><path codeLine="94" d="M1591.89,212.89 C1648.87,233.96 1706.72,259.37 1758,289.42 C1799.73,313.86 1835.8759,348.0921 1861.6259,375.3021" fill="none" id="Functions-to-RetryableFunc" style="stroke:#000000;stroke-width:1;stroke-dasharray:7.0,7.0;"/><polygon fill="#000000" points="1865.75,379.66,1862.4691,370.3737,1862.3132,376.0284,1856.6585,375.8725,1865.75,379.66" style="stroke:#000000;stroke-width:1;"/><text fill="#000000" font-family="sans-serif" font-size="13" lengthAdjust="spacing" textLength="28.5645" x="1700.57" y="255.9884">uses</text></g><!--link Functions to IsRetryableError--><g class="link" data-entity-1="Functions" data-entity-2="IsRetryableError" data-source-line="95" data-uid="lnk28" id="link_Functions_IsRetryableError"><path codeLine="95" d="M1722.19,210.99 C1867.18,240.35 2000.4,270.95 2030,289.42 C2065.43,311.52 2090.1359,346.362 2106.4959,374.522" fill="none" id="Functions-to-IsRetryableError" style="stroke:#000000;stroke-width:1;stroke-dasharray:7.0,7.0;"/><polygon fill="#000000" points="2109.51,379.71,2108.4476,369.9186,2106.9983,375.3867,2101.5302,373.9374,2109.51,379.71" style="stroke:#000000;stroke-width:1;"/><text fill="#000000" font-family="sans-serif" font-size="13" lengthAdjust="spacing" textLength="28.5645" x="1927.49" y="255.9884">uses</text></g><!--link Functions to Config--><g class="link" data-entity-1="Functions" data-entity-2="Config" data-source-line="96" data-uid="lnk29" id="link_Functions_Config"><path codeLine="96" d="M1296,212.59 C1296,236.46 1296,257.14 1296,283.01" fill="none" id="Functions-to-Config" style="stroke:#000000;stroke-width:1;stroke-dasharray:7.0,7.0;"/><polygon fill="#000000" points="1296,289.01,1300,280.01,1296,284.01,1292,280.01,1296,289.01" style="stroke:#000000;stroke-width:1;"/><text fill="#000000" font-family="sans-serif" font-size="13" lengthAdjust="spacing" textLength="28.5645" x="1297" y="255.9884">uses</text></g><!--link Functions to Options--><g class="link" data-entity-1="Functions" data-entity-2="Options" data-source-line="97" data-uid="lnk30" id="link_Functions_Options"><path codeLine="97" d="M935.16,212.87 C864.96,233.93 793.03,259.35 728,289.42 C685.52,309.06 646.7814,334.7087 613.1514,359.6187" fill="none" id="Functions-to-Options" style="stroke:#000000;stroke-width:1;stroke-dasharray:7.0,7.0;"/><polygon fill="#000000" points="608.33,363.19,617.943,361.0474,612.3478,360.2139,613.1813,354.6188,608.33,363.19" style="stroke:#000000;stroke-width:1;"/><text fill="#000000" font-family="sans-serif" font-size="13" lengthAdjust="spacing" textLength="28.5645" x="833.15" y="255.9884">uses</text></g><!--link Functions to RetryError--><g class="link" data-entity-1="Functions" data-entity-2="RetryError" data-source-line="98" data-uid="lnk31" id="link_Functions_RetryError"><path codeLine="98" d="M869.95,211.79 C868.63,212 867.31,212.21 866,212.42 C800.6,222.81 331.21,254.41 275,289.42 C247.39,306.61 229.8648,331.7444 216.5148,357.9344" fill="none" id="Functions-to-RetryError" style="stroke:#000000;stroke-width:1;stroke-dasharray:7.0,7.0;"/><polygon fill="#000000" points="213.79,363.28,221.441,357.0782,216.0607,358.8253,214.3135,353.4451,213.79,363.28" style="stroke:#000000;stroke-width:1;"/><text fill="#000000" font-family="sans-serif" font-size="13" lengthAdjust="spacing" textLength="45.1318" x="552.16" y="255.9884">creates</text></g><!--link Options to ContextLogger--><g class="link" data-entity-1="Options" data-entity-2="ContextLogger" data-source-line="99" data-uid="lnk32" id="link_Options_ContextLogger"><path codeLine="99" d="M511.46,461.48 C461.58,527.18 377.7488,637.6318 340.3688,686.8518" fill="none" id="Options-to-ContextLogger" style="stroke:#000000;stroke-width:1;stroke-dasharray:7.0,7.0;"/><polygon fill="#000000" points="336.74,691.63,345.3687,686.8818,339.764,687.6481,338.9977,682.0434,336.74,691.63" style="stroke:#000000;stroke-width:1;"/><text fill="#000000" font-family="sans-serif" font-size="13" lengthAdjust="spacing" textLength="65.7427" x="417.38" y="596.8484">references</text></g><!--link Options to Tracer--><g class="link" data-entity-1="Options" data-entity-2="Tracer" data-source-line="100" data-uid="lnk33" id="link_Options_Tracer"><path codeLine="100" d="M587.45,461.54 C620.83,498.85 672.06,548.53 728,575.28 C835.22,626.53 1126.806,666.3834 1344.156,690.3134" fill="none" id="Options-to-Tracer" style="stroke:#000000;stroke-width:1;stroke-dasharray:7.0,7.0;"/><polygon fill="#000000" points="1350.12,690.97,1341.6118,686.0091,1345.15,690.4228,1340.7363,693.961,1350.12,690.97" style="stroke:#000000;stroke-width:1;"/><text fill="#000000" font-family="sans-serif" font-size="13" lengthAdjust="spacing" textLength="65.7427" x="796.29" y="596.8484">references</text></g><!--SRC=[hLPBJzmm4BxlhnXnQRPTSgYg7lQ012n8z05LGUM0E7YJITR5QqUE0ukg_lUENtbjYgZKKyRpzipdcTGFN5PCioraQbifYT9ScsU1q6p5-rczBuLVCu0JbZsKMZKoFrL2QRZTS8EMhtIEslDE12aHxrXhzTHd_PxDAlgo4k50ez7F1y1gS9HpdWbMrt3mtJBOMk1v8pEdCk0uLO1t1T59PdQKeJIuC-cf_yu1AR0c9OhNEhseMoTdLkpyZfa3r-J5Uvh3MYanyaV12buwBvwCjb_PpZhbM2-1I-EP5v8RpeIjdYgA9HY-nNJLQ6QuagtTI-8WEsUPKNe9XL3CVFpWPP-uCQWdHSFxKKftzx4w9BtbPjFbcsnRqcO-NuQRTRh3QoHyS1ncFM7TtT16UgtLuEB9kd-ALvsmwfSa-Taxl60pgbMYX-TOkhvb7n5NbRr1xI0Hw8Y9BweiaLhpLX31PHcXwlbUvqQppEeO5BYraLFFwVAx8f7d9SPzm7s27gKLeiQyf388cfSR0whe2G6-QVN8SsepotDksKo02YaNL2F_95M5lYlUYCjCD3bb3-4Mm6JkKh1qnYgsveAyeLL74jdu-tdqgkx9HcCS0clSi4TE2JpHTPrAwBSBvTi8RYmXKUCueGzsHdITQ4-n5oiiM2ECZvsCO124eLR9eAPMhAO6pW8AEHnH2wjYPuBtlG3U3PgzeKD1UazofLohGmB_FzgYRNI8CGn_KL-YULBwmIdtPk3I3K6uMs6bCMC6y_jeSKClM3NcNomqapMddV8wcmaqjsqDGD88HTjf2s7SOTOOYymEnWvM0Mg4OPuvOmkj3GhI6hjmAo4dg6LX3hTewsyof-R1viczNTOjdEuOuNXCcDvMfhyiQ4vES4CZVSL2eLnj-hc4b-bYnLVwQx2qkh4JTrV7SQf3X-qqSjhjoMbIQgWBcZrmu4UGq_5alDwrOTfCmxYkcBoabmmrhHnPqfMIFPrhqfb71FJYMRwBPeaOwqpcoJo4HKCbr7pT6Dfhh2KXJTFsb7x6vnzCD3YFkpAZlvWn96D9tb3pXCVHXbVrpCFeyF0eTdq9JOrzVcp0dg0hOn1rGofDZqP_EvCgUpykarhXnsHI5ZVKtpE8ZZEDz13hMRG8ddkmMTARAb2Zp4Pg0Gi3-Hy0]--></g></svg>